<?xml version="1.0" standalone="no"?>
<!DOCTYPE svg PUBLIC "-//W3C//DTD SVG 1.1//EN" "http://www.w3.org/Graphics/SVG/1.1/DTD/svg11.dtd" >
<svg>
<metadata>
Created by FontForge 20090622 at Fri May  4 16:29:47 2018
 By deploy user
Copyright &#194;&#169; 2017 by Ren&#195;&#169; Bieder. All rights reserved.
</metadata>
<defs>
<font id="RationalDisplay-Medium" horiz-adv-x="882" >
  <font-face 
    font-family="Rational Display Medium"
    font-weight="500"
    font-stretch="normal"
    units-per-em="1000"
    panose-1="2 1 0 0 3 1 0 0 0 1"
    ascent="800"
    descent="-200"
    x-height="504"
    cap-height="700"
    bbox="-552 -221 1704 931"
    underline-thickness="50"
    underline-position="-50"
    unicode-range="U+0020-U+FB02"
  />
<missing-glyph horiz-adv-x="600" 
d="M50 0v700h500v-700h-500zM301 398l157 245h-315zM107 97l162 252l-162 253v-505zM493 98v503l-161 -252zM144 57h313l-156 243z" />
    <glyph glyph-name="fl" unicode="fl" horiz-adv-x="692" 
d="M113 536q0 83 54 132.5t143 49.5q46 0 95 -17v-92q-47 16 -87 16q-94 0 -94 -89v-32h181v-90h-181v-414h-111v414h-102v90h102v32zM503 700h112v-700h-112v700z" />
    <glyph glyph-name=".notdef" horiz-adv-x="600" 
d="M50 0v700h500v-700h-500zM301 398l157 245h-315zM107 97l162 252l-162 253v-505zM493 98v503l-161 -252zM144 57h313l-156 243z" />
    <glyph glyph-name=".null" horiz-adv-x="0" 
 />
    <glyph glyph-name="nonmarkingreturn" horiz-adv-x="333" 
 />
    <glyph glyph-name="space" unicode=" " horiz-adv-x="249" 
 />
    <glyph glyph-name="exclam" unicode="!" horiz-adv-x="286" 
d="M89 211l-8 489h123l-7 -489h-108zM79 0v120h128v-120h-128z" />
    <glyph glyph-name="quotedbl" unicode="&#x22;" horiz-adv-x="420" 
d="M62 444v256h110v-256h-110zM248 444v256h110v-256h-110z" />
    <glyph glyph-name="numbersign" unicode="#" horiz-adv-x="747" 
d="M717 430h-160l-35 -164h147v-88h-166l-38 -178h-101l38 178h-145l-38 -178h-101l38 178h-126v88h145l35 164h-132v88h151l39 182h101l-39 -182h145l39 182h101l-39 -182h141v-88zM421 266l35 164h-145l-35 -164h145z" />
    <glyph glyph-name="dollar" unicode="$" horiz-adv-x="667" 
d="M600 213q0 -85 -56.5 -137.5t-159.5 -59.5l1 -116h-92l1 119q-100 14 -159.5 77t-67.5 170h115q8 -129 112 -157l2 209q-49 11 -77.5 21t-62.5 29.5t-50 51.5t-16 77q0 79 53 128t151 58l-1 117h92l-1 -118q95 -11 149.5 -65.5t59.5 -148.5h-109q-9 105 -101 125l-1 -197
q33 -7 43.5 -9.5t41 -11.5t43 -16t34 -21.5t31 -31t17.5 -40.5t8 -53zM202 500q0 -31 19.5 -48.5t74.5 -33.5l-1 176q-44 -8 -68.5 -32.5t-24.5 -61.5zM384 104q47 8 73.5 34.5t26.5 68.5q0 40 -22 58t-80 33z" />
    <glyph glyph-name="percent" unicode="%" horiz-adv-x="883" 
d="M217 713q78 0 128.5 -50.5t50.5 -126.5q0 -77 -50.5 -127.5t-128.5 -50.5t-128.5 50.5t-50.5 127.5q0 76 50.5 126.5t128.5 50.5zM671 712l52 -35l-513 -690l-51 38zM217 642q-42 0 -69 -30t-27 -76q0 -47 27 -77t69 -30t69 30t27 77q0 46 -27 76t-69 30zM666 342
q78 0 128.5 -50t50.5 -126q0 -77 -50.5 -128t-128.5 -51t-128.5 51t-50.5 128q0 76 50.5 126t128.5 50zM666 272q-42 0 -69 -30t-27 -76q0 -47 27 -77t69 -30t69 30t27 77q0 46 -27 76t-69 30z" />
    <glyph glyph-name="ampersand" unicode="&#x26;" horiz-adv-x="728" 
d="M576 148l155 -148h-137l-79 76q-96 -87 -231 -87q-107 0 -178.5 56t-71.5 145q0 66 41.5 112t115.5 84q-81 89 -81 162t54.5 118t143.5 45q85 0 140.5 -44t55.5 -117q0 -59 -36.5 -103t-115.5 -84l149 -143q27 62 27 137h104q0 -118 -56 -209zM310 631q-43 0 -68 -24
t-25 -60q0 -52 67 -119q59 27 89 54t30 67q0 35 -26.5 58.5t-66.5 23.5zM295 83q88 0 150 59l-187 178q-52 -23 -82.5 -50.5t-30.5 -71.5q0 -50 42 -82.5t108 -32.5z" />
    <glyph glyph-name="quotesingle" unicode="'" horiz-adv-x="236" 
d="M62 700h112v-256h-112v256z" />
    <glyph glyph-name="parenleft" unicode="(" horiz-adv-x="351" 
d="M309 780q-73 -102 -115.5 -203.5t-42.5 -224.5q0 -125 45.5 -249t112.5 -218h-109q-69 92 -113.5 213.5t-44.5 253.5q0 129 41.5 229t116.5 199h109z" />
    <glyph glyph-name="parenright" unicode=")" horiz-adv-x="351" 
d="M42 780h109q75 -99 116.5 -199t41.5 -229q0 -132 -44.5 -253.5t-113.5 -213.5h-109q67 94 112.5 218t45.5 249q0 123 -42.5 224.5t-115.5 203.5z" />
    <glyph glyph-name="asterisk" unicode="*" horiz-adv-x="421" 
d="M385 575l-108 -23l74 -97l-69 -48l-71 112l-72 -112l-69 48l74 97l-108 23l21 83l119 -39l-7 124h84l-7 -123l118 38z" />
    <glyph glyph-name="plus" unicode="+" horiz-adv-x="625" 
d="M559 388v-95h-197v-204h-99v204h-197v95h197v204h99v-204h197z" />
    <glyph glyph-name="comma" unicode="," horiz-adv-x="275" 
d="M58 -125l14 253h152l-86 -253h-80z" />
    <glyph glyph-name="hyphen" unicode="-" horiz-adv-x="418" 
d="M57 331h304v-99h-304v99z" />
    <glyph glyph-name="period" unicode="." horiz-adv-x="260" 
d="M65 0v128h130v-128h-130z" />
    <glyph glyph-name="slash" unicode="/" horiz-adv-x="431" 
d="M291 700h104l-255 -700h-104z" />
    <glyph glyph-name="zero" unicode="0" horiz-adv-x="684" 
d="M342 712q133 0 213 -98t80 -264t-80 -264t-213 -98t-213 98t-80 264t80 264t213 98zM342 613q-79 0 -126 -70t-47 -193t47 -193t126 -70t126 70t47 193t-47 193t-126 70z" />
    <glyph glyph-name="one" unicode="1" horiz-adv-x="464" 
d="M288 700h68v-700h-118v594l-204 -88v117l253 77v-1z" />
    <glyph glyph-name="two" unicode="2" horiz-adv-x="589" 
d="M176 94h361v-94h-506v82h1l249 219q75 67 103.5 109t28.5 80q0 58 -36.5 92t-98.5 34t-99 -36.5t-38 -101.5h-114q5 110 71.5 172t181.5 62q113 0 179.5 -59.5t66.5 -158.5q0 -61 -47 -123.5t-150 -146.5z" />
    <glyph glyph-name="three" unicode="3" horiz-adv-x="612" 
d="M418 361q137 -37 137 -172q0 -87 -69 -144t-176 -57q-116 0 -188 60t-82 165h116q4 -61 44.5 -95.5t108.5 -34.5q60 0 98.5 32t38.5 81q0 56 -42 87.5t-115 31.5h-58v87h58q62 0 100 28.5t38 73.5q0 55 -33 85t-94 30q-133 0 -135 -131h-114q7 110 72.5 167t176.5 57
q108 0 172 -54t64 -147q0 -54 -31.5 -93t-86.5 -57z" />
    <glyph glyph-name="four" unicode="4" horiz-adv-x="654" 
d="M619 241v-90h-99v-151h-115v151h-349l-14 60q148 255 192 489h120q-38 -213 -179 -459h230l11 263h104v-263h99z" />
    <glyph glyph-name="five" unicode="5" horiz-adv-x="640" 
d="M346 471q100 0 169 -68t69 -171q0 -106 -73.5 -175t-187.5 -69q-108 0 -183 60.5t-85 162.5h113q7 -57 51 -92.5t105 -35.5q64 0 106.5 42.5t42.5 106.5q0 63 -43.5 104.5t-110.5 41.5q-92 0 -144 -71l-99 30l17 363l1 -1v1h461v-97h-365l-12 -216q56 84 168 84z" />
    <glyph glyph-name="six" unicode="6" horiz-adv-x="641" 
d="M355 456q102 0 168 -65t66 -164q0 -106 -71 -172.5t-185 -66.5q-133 0 -206 95q-70 92 -70 261q0 176 77.5 272t202.5 96q85 0 155 -45.5t91 -144.5h-122q-11 51 -44 74.5t-76 23.5q-77 0 -123 -71t-50 -211q50 118 187 118zM337 79q63 0 102 40.5t39 104.5t-39.5 104.5
t-104.5 40.5q-63 0 -103 -38.5t-40 -101.5q0 -64 40.5 -107t105.5 -43z" />
    <glyph glyph-name="seven" unicode="7" horiz-adv-x="586" 
d="M32 700h533v-87q-134 -129 -197.5 -288.5t-63.5 -324.5h-129v11q0 157 67 310.5t203 277.5h-413v101z" />
    <glyph glyph-name="eight" unicode="8" horiz-adv-x="648" 
d="M441 368q73 -20 112.5 -66.5t39.5 -108.5q0 -88 -76.5 -146.5t-192.5 -58.5q-117 0 -193 58.5t-76 146.5q0 63 39 109t112 66q-61 19 -93.5 60t-32.5 96q0 81 69.5 134.5t174.5 53.5t174 -54t69 -134q0 -56 -32.5 -97t-93.5 -59zM324 623q-59 0 -95 -29t-36 -78
q0 -47 36.5 -78.5t94.5 -31.5t94.5 31.5t36.5 78.5q0 49 -36 78t-95 29zM324 81q66 0 107 34t41 89q0 52 -41.5 84.5t-106.5 32.5q-66 0 -107.5 -32.5t-41.5 -84.5q0 -55 41.5 -89t107.5 -34z" />
    <glyph glyph-name="nine" unicode="9" horiz-adv-x="641" 
d="M512 617q72 -93 72 -261q0 -176 -77.5 -272t-202.5 -96q-85 0 -155.5 45.5t-91.5 144.5h123q11 -51 44.5 -74.5t76.5 -23.5q77 0 123 71t50 211q-50 -118 -187 -118q-102 0 -168.5 65t-66.5 164q0 106 71 172.5t185 66.5q128 0 204 -95zM307 331q63 0 103.5 38.5
t40.5 101.5q0 64 -41 107t-105 43q-63 0 -102.5 -40.5t-39.5 -104.5t39.5 -104.5t104.5 -40.5z" />
    <glyph glyph-name="colon" unicode=":" horiz-adv-x="260" 
d="M65 376v128h130v-128h-130zM65 0v128h130v-128h-130z" />
    <glyph glyph-name="semicolon" unicode=";" horiz-adv-x="291" 
d="M94 376v128h131v-128h-131zM58 -125l30 253h132l-84 -253h-78z" />
    <glyph glyph-name="less" unicode="&#x3c;" horiz-adv-x="619" 
d="M553 589v-112l-373 -135l373 -129v-112l-489 195v90z" />
    <glyph glyph-name="equal" unicode="=" horiz-adv-x="627" 
d="M66 495h495v-86h-495v86zM66 280h495v-86h-495v86z" />
    <glyph glyph-name="greater" unicode="&#x3e;" horiz-adv-x="619" 
d="M66 589l489 -203v-90l-489 -195v112l373 129l-373 135v112z" />
    <glyph glyph-name="question" unicode="?" horiz-adv-x="527" 
d="M259 713q98 0 161 -55.5t63 -139.5q0 -83 -41 -128.5t-129 -82.5l-12 -5v-90h-102v139l72 33q60 28 84 57.5t24 73.5q0 47 -34 77.5t-86 30.5q-59 0 -95 -34t-39 -94h-107q3 103 68 160.5t173 57.5zM184 0v120h128v-120h-128z" />
    <glyph glyph-name="at" unicode="@" horiz-adv-x="947" 
d="M442 476q86 0 129 -60h2l-1 51h97v-293q0 -24 13.5 -38.5t39.5 -14.5q51 0 81 54.5t30 135.5q0 141 -95 231t-248 90q-158 0 -265 -103.5t-107 -261.5q0 -157 105.5 -257.5t273.5 -100.5q179 0 308 125v-91q-136 -97 -306 -97q-201 0 -328 118.5t-127 302.5
q0 185 128 306t318 121q180 0 296.5 -108t116.5 -275q0 -112 -54.5 -181t-141.5 -69q-99 0 -127 81h-1q-17 -36 -55 -59t-86 -23q-80 0 -133.5 60t-53.5 150t53.5 148t137.5 58zM574 278q0 50 -31 85t-78 35q-49 0 -80.5 -35t-31.5 -92q0 -56 32.5 -91.5t79.5 -35.5
t77.5 36.5t31.5 91.5v6z" />
    <glyph glyph-name="A" unicode="A" horiz-adv-x="777" 
d="M610 0l-66 171h-312l-66 -171h-126l288 700h121l287 -700h-126zM267 262h242l-121 312z" />
    <glyph glyph-name="B" unicode="B" horiz-adv-x="736" 
d="M516 362q153 -37 153 -173q0 -87 -64.5 -138t-172.5 -51h-333v700h338q97 0 155 -47.5t58 -123.5q0 -120 -134 -167zM220 609v-205h179q69 0 102 28.5t33 73.5q0 47 -32.5 75t-85.5 28h-196zM409 91q60 0 101.5 29t41.5 84q0 47 -33.5 80.5t-101.5 33.5h-197v-227h189z
" />
    <glyph glyph-name="C" unicode="C" horiz-adv-x="788" 
d="M722 244q-19 -121 -100.5 -188t-212.5 -67q-155 0 -250 101t-95 261t95 260.5t250 100.5q130 0 212.5 -67.5t102.5 -189.5h-129q-14 74 -62.5 115t-123.5 41q-99 0 -159.5 -73t-60.5 -187q0 -115 60.5 -188t159.5 -73q73 0 120.5 40.5t61.5 113.5h131z" />
    <glyph glyph-name="D" unicode="D" horiz-adv-x="769" 
d="M334 700q169 0 270 -97.5t101 -251.5q0 -155 -101 -253t-270 -98h-235v700h235zM344 100q109 0 172.5 69.5t63.5 181.5q0 111 -63.5 180t-172.5 69h-124v-500h124z" />
    <glyph glyph-name="E" unicode="E" horiz-adv-x="673" 
d="M610 603h-390v-194h365v-95h-365v-217h390v-97h-511v700h511v-97z" />
    <glyph glyph-name="F" unicode="F" horiz-adv-x="667" 
d="M610 600h-390v-203h351v-98h-351v-299h-121v700h511v-100z" />
    <glyph glyph-name="G" unicode="G" horiz-adv-x="816" 
d="M407 367h324v-367h-93l-5 105q-68 -115 -225 -115q-156 0 -250 100t-94 261q0 160 95 260.5t251 100.5q127 0 210 -65.5t106 -181.5h-127q-19 69 -67 108.5t-123 39.5q-100 0 -160.5 -74t-60.5 -188q0 -117 61 -189.5t165 -72.5q83 0 142.5 49.5t66.5 134.5h-216v94z" />
    <glyph glyph-name="H" unicode="H" horiz-adv-x="778" 
d="M558 700h121v-700h-121v305h-338v-305h-121v700h121v-295h338v295z" />
    <glyph glyph-name="I" unicode="I" horiz-adv-x="319" 
d="M99 700h121v-700h-121v700z" />
    <glyph glyph-name="J" unicode="J" horiz-adv-x="548" 
d="M49 127q80 -37 141 -37q64 0 104 36t40 92v482h120v-481q0 -101 -69.5 -165t-185.5 -64q-76 0 -150 24v113z" />
    <glyph glyph-name="K" unicode="K" horiz-adv-x="737" 
d="M554 0l-190 304h-144v-304h-121v700h121v-294h144l190 294h133l-225 -344l234 -356h-142z" />
    <glyph glyph-name="L" unicode="L" horiz-adv-x="637" 
d="M220 100h355v-100h-476v700h121v-600z" />
    <glyph glyph-name="M" unicode="M" horiz-adv-x="896" 
d="M688 700h109v-700h-118v510l-223 -308h-16l-223 308v-510h-118v700h109l240 -339z" />
    <glyph glyph-name="N" unicode="N" horiz-adv-x="778" 
d="M559 700h120v-700h-109l-351 502v-502h-120v700h111l349 -505v505z" />
    <glyph glyph-name="O" unicode="O" horiz-adv-x="826" 
d="M413 712q157 0 253 -101t96 -262q0 -159 -96 -259.5t-253 -100.5t-253 100.5t-96 259.5q0 161 96 262t253 101zM413 611q-101 0 -162.5 -73t-61.5 -189q0 -114 61.5 -186.5t162.5 -72.5t162.5 72.5t61.5 186.5q0 116 -61.5 189t-162.5 73z" />
    <glyph glyph-name="P" unicode="P" horiz-adv-x="711" 
d="M436 700q106 0 171.5 -59t65.5 -149q0 -93 -65 -151.5t-172 -58.5h-216v-282h-121v700h337zM424 376q59 0 93.5 33.5t34.5 82.5q0 48 -34.5 80.5t-93.5 32.5h-204v-229h204z" />
    <glyph glyph-name="Q" unicode="Q" horiz-adv-x="794" 
d="M794 32l-71 -78l-105 95q-86 -60 -205 -60q-157 0 -253 100.5t-96 259.5q0 161 96 262t253 101t253 -101t96 -262q0 -134 -70 -229zM413 90q68 0 120 35l-113 101l65 74l116 -101q36 66 36 150q0 116 -61.5 189t-162.5 73t-162.5 -73t-61.5 -189q0 -114 61.5 -186.5
t162.5 -72.5z" />
    <glyph glyph-name="R" unicode="R" horiz-adv-x="728" 
d="M692 0h-138l-153 303h-181v-303h-121v700h340q99 0 163 -54.5t64 -139.5q0 -71 -41.5 -122.5t-111.5 -70.5zM220 607v-212h208q51 0 84 31.5t33 79.5q0 44 -33 72.5t-84 28.5h-208z" />
    <glyph glyph-name="S" unicode="S" horiz-adv-x="697" 
d="M191 259q5 -83 52.5 -128.5t122.5 -45.5q62 0 103.5 28.5t41.5 78.5q0 21 -9 37t-21 27t-36.5 21t-43.5 15.5t-54 14.5l-56 15t-51.5 16t-49.5 20.5t-39 25t-33 32.5t-19 41t-8 53q0 96 67.5 149t186.5 53q122 0 193.5 -59t81.5 -177h-122q-12 142 -149 142
q-63 0 -101 -27.5t-38 -75.5q0 -40 33.5 -62.5t136.5 -51.5q4 -1 30 -8t34 -9t32.5 -10t34.5 -13l30.5 -15t29.5 -19.5l23 -23.5t20 -29t11 -35t5 -42q0 -93 -72 -150t-193 -57q-133 0 -213 71.5t-85 197.5h124z" />
    <glyph glyph-name="T" unicode="T" horiz-adv-x="631" 
d="M605 700v-100h-229v-600h-121v600h-229v100h579z" />
    <glyph glyph-name="U" unicode="U" horiz-adv-x="774" 
d="M559 700h121v-433q0 -125 -80.5 -200.5t-212.5 -75.5t-212.5 75.5t-80.5 200.5v433h121v-435q0 -79 47 -126t125 -47t125 47t47 126v435z" />
    <glyph glyph-name="V" unicode="V" horiz-adv-x="737" 
d="M565 700h131l-268 -700h-120l-268 700h132l196 -552z" />
    <glyph glyph-name="W" unicode="W" horiz-adv-x="1042" 
d="M880 700h122l-199 -700h-117l-166 525l-163 -525h-118l-199 700h122l140 -535l173 535h93l172 -535z" />
    <glyph glyph-name="X" unicode="X" horiz-adv-x="714" 
d="M433 349l241 -349h-139l-178 271l-178 -271h-139l241 349l-237 351h139l174 -276l174 276h139z" />
    <glyph glyph-name="Y" unicode="Y" horiz-adv-x="733" 
d="M692 700l-265 -432v-268h-121v267l-266 433h137l189 -327l190 327h136z" />
    <glyph glyph-name="Z" unicode="Z" horiz-adv-x="690" 
d="M207 98h422v-98h-568v90l420 512h-420v98h563v-89z" />
    <glyph glyph-name="bracketleft" unicode="[" horiz-adv-x="366" 
d="M330 694h-141v-723h141v-86h-247v895h247v-86z" />
    <glyph glyph-name="backslash" unicode="\" horiz-adv-x="431" 
d="M140 700l255 -700h-104l-255 700h104z" />
    <glyph glyph-name="bracketright" unicode="]" horiz-adv-x="366" 
d="M283 780v-895h-247v86h141v723h-141v86h247z" />
    <glyph glyph-name="asciicircum" unicode="^" horiz-adv-x="502" 
d="M202 724h97l164 -299h-106l-106 209l-106 -209h-106z" />
    <glyph glyph-name="underscore" unicode="_" horiz-adv-x="600" 
d="M40 -85h520v-83h-520v83z" />
    <glyph glyph-name="grave" unicode="`" horiz-adv-x="440" 
d="M323 560h-85l-114 149h152z" />
    <glyph glyph-name="a" unicode="a" horiz-adv-x="635" 
d="M281 -10q-108 0 -173 73.5t-65 190.5q0 115 65 187.5t173 72.5q55 0 99 -23.5t63 -64.5h1v78h111v-504h-111v86h-1q-21 -45 -64.5 -70.5t-97.5 -25.5zM299 82q68 0 109 46t41 121v7q-1 74 -42 120t-108 46q-66 0 -106.5 -46.5t-40.5 -121.5q0 -77 40.5 -124.5
t106.5 -47.5z" />
    <glyph glyph-name="b" unicode="b" horiz-adv-x="635" 
d="M353 -12q-53 0 -97 26.5t-65 71.5h-1l1 -86h-112v700h112l-1 -274h1q19 41 63 65.5t99 24.5q108 0 173.5 -73.5t65.5 -188.5q0 -118 -65.5 -192t-173.5 -74zM336 424q-67 0 -108.5 -47t-41.5 -121v-7q0 -75 41 -122t109 -47q66 0 106 48t40 126q0 75 -40 122.5t-106 47.5
z" />
    <glyph glyph-name="c" unicode="c" horiz-adv-x="568" 
d="M535 193q-9 -92 -73 -148.5t-166 -56.5q-116 0 -184.5 73.5t-68.5 190.5t68.5 190.5t184.5 73.5q98 0 161.5 -53.5t74.5 -141.5h-111q-9 48 -41 76.5t-85 28.5q-67 0 -105.5 -48t-38.5 -126q0 -77 38.5 -125t105.5 -48q56 0 88.5 30.5t41.5 83.5h110z" />
    <glyph glyph-name="d" unicode="d" horiz-adv-x="640" 
d="M281 -12q-108 0 -173 74t-65 192q0 115 65 188.5t173 73.5q56 0 104 -24.5t66 -65.5h2v274h111v-700h-111v86h-1q-21 -44 -68.5 -71t-102.5 -27zM299 424q-66 0 -106.5 -47.5t-40.5 -122.5q0 -77 40.5 -125.5t106.5 -48.5q68 0 109 47t41 122v7q-1 74 -42 121t-108 47z
" />
    <glyph glyph-name="e" unicode="e" horiz-adv-x="575" 
d="M294 -12q-115 0 -183 72.5t-68 189.5q0 118 69 192t182 74t175.5 -74t62.5 -194v-19h-377v-4q4 -67 42 -108t95 -41q92 0 121 86h115q-22 -83 -83.5 -128.5t-150.5 -45.5zM158 300h265q-2 59 -36 95t-93 36q-56 0 -91.5 -34.5t-44.5 -96.5z" />
    <glyph glyph-name="f" unicode="f" horiz-adv-x="426" 
d="M318 625q-94 0 -94 -89v-32h181v-90h-181v-414h-111v414h-102v90h102v32q0 83 54 132.5t143 49.5q46 0 95 -17v-92q-47 16 -87 16z" />
    <glyph glyph-name="g" unicode="g" horiz-adv-x="623" 
d="M436 504h112v-506q0 -92 -70 -150t-180 -58q-105 0 -173.5 50.5t-77.5 137.5h118q8 -46 44 -72.5t92 -26.5q59 0 97 31.5t38 83.5v91h-1q-20 -32 -61.5 -53t-95.5 -21q-106 0 -173 72t-67 182q0 111 66.5 181t171.5 70q106 0 159 -77h1v65zM295 99q64 0 105.5 47
t41.5 120v7q0 66 -41.5 109.5t-105.5 43.5q-66 0 -106.5 -44.5t-40.5 -114.5q0 -72 41 -120t106 -48z" />
    <glyph glyph-name="h" unicode="h" horiz-adv-x="620" 
d="M357 516q90 0 139 -57.5t49 -155.5v-303h-111v288q0 60 -27.5 95t-75.5 35q-64 0 -102 -43t-38 -114v-261h-112v700h112v-291q48 107 166 107z" />
    <glyph glyph-name="i" unicode="i" horiz-adv-x="266" 
d="M65 592v117h137v-117h-137zM77 0v504h112v-504h-112z" />
    <glyph glyph-name="j" unicode="j" horiz-adv-x="274" 
d="M72 592v117h137v-117h-137zM-72 -104q54 -20 88 -20q30 0 49.5 19t19.5 49v560h112v-557q0 -70 -45.5 -115t-116.5 -45q-50 0 -107 16v93z" />
    <glyph glyph-name="k" unicode="k" horiz-adv-x="580" 
d="M441 0l-138 233h-112v-233h-112v700h112v-367h111l122 171h130l-164 -218l182 -286h-131z" />
    <glyph glyph-name="l" unicode="l" horiz-adv-x="266" 
d="M77 700h112v-700h-112v700z" />
    <glyph glyph-name="m" unicode="m" horiz-adv-x="939" 
d="M677 516q86 0 137 -55.5t51 -157.5v-303h-112v292q0 62 -27 94t-75 32q-122 0 -122 -143v-275h-112v292q0 61 -28 93.5t-75 32.5q-123 0 -123 -143v-275h-112v504h112v-84q44 96 151 96q120 0 166 -101q48 101 169 101z" />
    <glyph glyph-name="n" unicode="n" horiz-adv-x="620" 
d="M357 516q90 0 139 -57.5t49 -155.5v-303h-111v288q0 60 -27.5 95t-75.5 35q-64 0 -102 -43t-38 -114v-261h-112v504h112v-95q48 107 166 107z" />
    <glyph glyph-name="o" unicode="o" horiz-adv-x="598" 
d="M299 516q116 0 186 -73.5t70 -190.5t-70 -190.5t-186 -73.5q-115 0 -185.5 73.5t-70.5 190.5t70.5 190.5t185.5 73.5zM299 425q-67 0 -107 -48.5t-40 -124.5t40 -124.5t107 -48.5q68 0 108 48.5t40 124.5t-40 124.5t-108 48.5z" />
    <glyph glyph-name="p" unicode="p" horiz-adv-x="635" 
d="M79 -200v704h112l-1 -86h1q21 45 65 71.5t97 26.5q108 0 173.5 -74t65.5 -192q0 -115 -65.5 -188.5t-173.5 -73.5q-55 0 -99 24.5t-63 65.5h-1l1 -278h-112zM336 80q66 0 106 47.5t40 122.5q0 78 -40 126t-106 48q-68 0 -109 -47t-41 -122v-7q0 -74 41.5 -121t108.5 -47z
" />
    <glyph glyph-name="q" unicode="q" horiz-adv-x="635" 
d="M556 -200h-112l1 278h-1q-19 -41 -63 -65.5t-99 -24.5q-108 0 -173.5 73.5t-65.5 188.5q0 118 65.5 192t173.5 74q53 0 97 -26.5t65 -71.5h1l-1 86h112v-704zM299 80q67 0 108.5 47t41.5 121v7q0 75 -41 122t-109 47q-66 0 -106 -48t-40 -126q0 -75 40 -122.5t106 -47.5z
" />
    <glyph glyph-name="r" unicode="r" horiz-adv-x="441" 
d="M191 371q50 138 224 138v-120q-118 12 -171 -33t-53 -153v-203h-112v504h112v-133z" />
    <glyph glyph-name="s" unicode="s" horiz-adv-x="507" 
d="M361 343q-14 90 -111 90q-41 0 -66.5 -18t-25.5 -45q0 -13 5.5 -22.5t12.5 -16t25.5 -12.5t31 -9.5t42.5 -10.5q102 -24 133 -41q61 -34 61 -111q0 -78 -54.5 -118.5t-150.5 -40.5q-103 0 -163 50t-65 141h104q5 -50 37 -78.5t87 -28.5q98 0 98 70q0 31 -23 42.5
t-97 28.5q-35 8 -44.5 10.5t-37.5 11t-37.5 14.5l-27.5 18t-24.5 24.5t-12.5 31.5t-6 42q0 76 54.5 113.5t144.5 37.5q95 0 149 -44t63 -129h-102z" />
    <glyph glyph-name="t" unicode="t" horiz-adv-x="436" 
d="M413 414h-186v-237q0 -43 23.5 -66.5t67.5 -23.5q43 0 85 21v-96q-39 -21 -96 -21q-88 0 -140 48t-52 128v247h-98v90h1q53 0 75 20t22 68v68h112v-156h186v-90z" />
    <glyph glyph-name="u" unicode="u" horiz-adv-x="616" 
d="M537 504v-504h-112v88q-49 -99 -163 -99q-90 0 -140.5 57.5t-50.5 158.5v299h112v-288q0 -60 27.5 -95t75.5 -35q64 0 101.5 43t37.5 114v261h112z" />
    <glyph glyph-name="v" unicode="v" horiz-adv-x="540" 
d="M410 504h122l-207 -504h-110l-207 504h123l139 -380z" />
    <glyph glyph-name="w" unicode="w" horiz-adv-x="767" 
d="M642 504h117l-158 -504h-105l-112 373l-113 -373h-104l-159 504h117l101 -361l110 361h95l111 -361z" />
    <glyph glyph-name="x" unicode="x" horiz-adv-x="537" 
d="M341 255l188 -255h-132l-132 183l-133 -183h-124l190 253l-186 251h132l128 -185l129 185h124z" />
    <glyph glyph-name="y" unicode="y" horiz-adv-x="543" 
d="M416 504h119l-215 -573q-25 -69 -79 -106.5t-124 -37.5q-63 0 -125 28v102q65 -36 125 -36q38 0 67.5 22.5t42.5 59.5l6 17l-225 524h125l149 -385z" />
    <glyph glyph-name="z" unicode="z" horiz-adv-x="546" 
d="M196 90h297v-90h-440v76l296 338h-296v90h432v-78z" />
    <glyph glyph-name="braceleft" unicode="{" horiz-adv-x="416" 
d="M250 503q0 -82 -28.5 -120t-89.5 -51q60 -12 89 -50.5t29 -120.5v-126q0 -28 17.5 -45t44.5 -17h68v-88h-72q-78 0 -123.5 40t-45.5 108v128q0 77 -30 104t-78 27h-11v81h11q48 0 78 27t30 103v129q0 68 45.5 108t123.5 40h72v-88h-68q-27 0 -44.5 -17t-17.5 -45v-127z
" />
    <glyph glyph-name="bar" unicode="|" horiz-adv-x="381" 
d="M144 780h93v-895h-93v895z" />
    <glyph glyph-name="braceright" unicode="}" horiz-adv-x="416" 
d="M385 373h11v-81h-11q-48 0 -78 -27t-30 -104v-128q0 -68 -45.5 -108t-123.5 -40h-72v88h68q27 0 44.5 17t17.5 45v126q0 82 29 120.5t89 50.5q-61 13 -89.5 51t-28.5 120v127q0 28 -17.5 45t-44.5 17h-68v88h72q78 0 123.5 -40t45.5 -108v-129q0 -76 30 -103t78 -27z" />
    <glyph glyph-name="asciitilde" unicode="~" horiz-adv-x="565" 
d="M66 245q0 75 35 112t85 37q37 0 101.5 -27t84.5 -27q40 0 40 55h87q0 -75 -35 -112t-85 -37q-37 0 -101 27t-84 27q-41 0 -41 -55h-87z" />
    <glyph glyph-name="uni00A0" unicode="&#xa0;" horiz-adv-x="272" 
 />
    <glyph glyph-name="exclamdown" unicode="&#xa1;" horiz-adv-x="286" 
d="M79 610h128v-120h-128v120zM89 399h108l7 -489h-123z" />
    <glyph glyph-name="cent" unicode="&#xa2;" horiz-adv-x="585" 
d="M552 284q-13 -79 -67.5 -131t-133.5 -63v-96h-91v97q-98 16 -157.5 87.5t-59.5 173.5q0 103 60 174t158 86l-1 94h91v-93q77 -11 130.5 -60t68.5 -125h-111q-20 70 -89 90l-1 -113l1 -219q34 10 58 35.5t33 62.5h111zM152 352q0 -63 29.5 -107t79.5 -58l1 218l-1 112
q-50 -15 -79.5 -59t-29.5 -106z" />
    <glyph glyph-name="sterling" unicode="&#xa3;" horiz-adv-x="606" 
d="M175 94h384v-94h-504l-12 73l39 46t36 43.5t20 36t10 45.5q0 28 -11 55h-115v76h77q-36 66 -36 121q0 92 68.5 154.5t176.5 62.5q99 0 166 -53t81 -149h-108q-10 49 -48 78.5t-90 29.5q-59 0 -96.5 -36t-37.5 -92q0 -48 44 -116h255v-76h-214q8 -24 8 -48
q0 -30 -13 -57.5t-28 -45t-52 -54.5z" />
    <glyph glyph-name="currency" unicode="&#xa4;" horiz-adv-x="676" 
d="M592 343q0 -79 -41 -144l85 -85l-58 -58l-82 82q-71 -55 -159 -55q-90 0 -158 55l-81 -82l-58 58l84 84q-42 65 -42 145q0 87 51 157l-93 94l58 58l94 -95q66 45 145 45q80 0 145 -46l96 96l58 -58l-95 -95q51 -69 51 -156zM337 165q72 0 120 51.5t48 126.5q0 74 -48 125
t-120 51q-73 0 -120.5 -51t-47.5 -125q0 -75 47.5 -126.5t120.5 -51.5z" />
    <glyph glyph-name="yen" unicode="&#xa5;" horiz-adv-x="649" 
d="M642 700l-210 -361h143v-69h-184l-12 -21v-33h196v-69h-196v-147h-109v147h-197v69h197v31l-13 23h-184v69h143l-210 361h134l184 -340l185 340h133z" />
    <glyph glyph-name="brokenbar" unicode="&#xa6;" horiz-adv-x="381" 
d="M144 780h93v-360h-93v360zM144 245h93v-360h-93v360z" />
    <glyph glyph-name="section" unicode="&#xa7;" horiz-adv-x="560" 
d="M430 178q62 -41 62 -114q0 -72 -56.5 -115t-152.5 -43q-99 0 -160.5 43.5t-69.5 129.5h110q3 -44 33.5 -68.5t83.5 -24.5q46 0 72 21t26 54t-30 49t-103 32l-50.5 12t-49 17.5t-49 28.5t-30.5 42t-14 62q0 89 81 137q-59 42 -59 113q0 72 55 115.5t150 43.5
q93 0 153.5 -44t68.5 -130h-110q-3 44 -32.5 68.5t-76.5 24.5q-45 0 -70 -21t-25 -54q0 -34 28.5 -49.5t101.5 -31.5l50.5 -12t48.5 -17t48.5 -28.5t30.5 -42.5t14 -62q0 -87 -79 -136zM159 319q0 -37 27 -55.5t87 -32.5q58 -12 87 -21q42 40 42 90q0 37 -26 55t-87 32
q-58 12 -87 21q-43 -40 -43 -89z" />
    <glyph glyph-name="dieresis" unicode="&#xa8;" horiz-adv-x="440" 
d="M50 592v117h124v-117h-124zM266 592v117h124v-117h-124z" />
    <glyph glyph-name="copyright" unicode="&#xa9;" horiz-adv-x="844" 
d="M421 -12q-150 0 -255.5 103.5t-105.5 258.5t106 258.5t257 103.5q150 0 255.5 -102.5t105.5 -257.5q0 -156 -106 -260t-257 -104zM421 40q127 0 217.5 89t90.5 222t-90 221t-216 88q-127 0 -217.5 -88.5t-90.5 -221.5t90 -221.5t216 -88.5zM613 297q-9 -68 -60.5 -111.5
t-125.5 -43.5q-91 0 -147.5 58.5t-56.5 149.5t56.5 149.5t147.5 58.5q72 0 123 -41.5t62 -106.5h-87q-7 33 -33.5 54t-65.5 21q-54 0 -85.5 -37.5t-31.5 -97.5t31.5 -97.5t85.5 -37.5q40 0 67 23t34 59h86z" />
    <glyph glyph-name="ordfeminine" unicode="&#xaa;" horiz-adv-x="497" 
d="M217 297q-82 0 -132.5 57.5t-50.5 149.5q0 90 50.5 146.5t132.5 56.5q43 0 77.5 -19.5t46.5 -48.5h1v60h96v-393h-96v61h-1q-14 -30 -48.5 -50t-75.5 -20zM240 630q-51 0 -81.5 -35t-30.5 -91q0 -57 31 -93t81 -36q48 0 77 35t29 90v7q-1 54 -30 88.5t-76 34.5z" />
    <glyph glyph-name="guillemotleft" unicode="&#xab;" horiz-adv-x="572" 
d="M173 261l133 -178h-123l-132 178l132 178h123zM385 261l143 -178h-133l-132 178l132 178h133z" />
    <glyph glyph-name="logicalnot" unicode="&#xac;" horiz-adv-x="627" 
d="M66 426h495v-271h-89v180h-406v91z" />
    <glyph glyph-name="registered" unicode="&#xae;" horiz-adv-x="524" 
d="M263 718q100 0 170.5 -68.5t70.5 -171.5q0 -105 -71 -174.5t-172 -69.5q-100 0 -170.5 69t-70.5 173t71 173t172 69zM261 278q82 0 140 56.5t58 142.5q0 85 -57.5 141.5t-138.5 56.5q-82 0 -140 -56.5t-58 -142.5q0 -85 57.5 -141.5t138.5 -56.5zM376 534q0 -51 -52 -69
l62 -109h-64l-50 102h-56v-102h-55v250h131q37 0 60.5 -20t23.5 -52zM216 561v-59h69q17 0 28 8.5t11 22.5q0 13 -10 20.5t-26 7.5h-72z" />
    <glyph glyph-name="macron" unicode="&#xaf;" horiz-adv-x="440" 
d="M100 678h240v-82h-240v82z" />
    <glyph glyph-name="degree" unicode="&#xb0;" horiz-adv-x="440" 
d="M219 740q68 0 118.5 -47.5t50.5 -118.5q0 -70 -49.5 -117.5t-118.5 -47.5t-118.5 47.5t-49.5 117.5t49.5 118t117.5 48zM220 665q-36 0 -61 -25.5t-25 -64.5t25 -65t61 -26t61 26t25 65t-25 64.5t-61 25.5z" />
    <glyph glyph-name="plusminus" unicode="&#xb1;" horiz-adv-x="625" 
d="M362 458h197v-95h-197v-146h-99v146h-197v95h197v146h99v-146zM66 75v95h493v-95h-493z" />
    <glyph glyph-name="uni00B2" unicode="&#xb2;" horiz-adv-x="347" 
d="M129 433h194v-70h-313v51l149 121q36 29 52 52t16 51q0 26 -17.5 43.5t-45.5 17.5q-30 0 -49 -17t-21 -48h-83q4 64 44.5 99.5t109.5 35.5q66 0 108 -37t42 -93q0 -48 -32 -86t-88 -74z" />
    <glyph glyph-name="uni00B3" unicode="&#xb3;" horiz-adv-x="370" 
d="M269 565q73 -18 73 -89q0 -54 -41 -86.5t-110 -32.5q-72 0 -117.5 37t-49.5 101h85q2 -33 24 -51.5t56 -18.5q32 0 50.5 16t18.5 42q0 52 -78 52h-26v60h25q34 0 53.5 14.5t19.5 39.5q0 24 -18 38t-46 14q-32 0 -51.5 -17t-21.5 -46h-81q4 61 45.5 96t108.5 35
q66 0 106.5 -31.5t40.5 -83.5q0 -68 -66 -89z" />
    <glyph glyph-name="acute" unicode="&#xb4;" horiz-adv-x="440" 
d="M125 560l47 149h152l-114 -149h-85z" />
    <glyph glyph-name="paragraph" unicode="&#xb6;" horiz-adv-x="606" 
d="M403 0h-94v285h-50q-100 0 -164.5 56.5t-64.5 144.5q0 93 66 153.5t168 60.5h139v-700zM453 700h77v-700h-77v700z" />
    <glyph glyph-name="periodcentered" unicode="&#xb7;" horiz-adv-x="260" 
d="M65 248v128h130v-128h-130z" />
    <glyph glyph-name="cedilla" unicode="&#xb8;" horiz-adv-x="440" 
d="M145 -63l57 63h59l-43 -54h6q43 0 70.5 -23t27.5 -59q0 -37 -30 -61t-75 -24q-46 0 -77 26t-36 67l73 8q1 -19 11.5 -29.5t25.5 -10.5q14 0 23 7t9 19q0 31 -50 31h-34z" />
    <glyph glyph-name="uni00B9" unicode="&#xb9;" horiz-adv-x="297" 
d="M172 760h68v-399h-88v319l-128 -59v92z" />
    <glyph glyph-name="ordmasculine" unicode="&#xba;" horiz-adv-x="474" 
d="M237 707q91 0 147.5 -57.5t56.5 -146.5q0 -91 -56 -148.5t-148 -57.5q-91 0 -147 57.5t-56 148.5q0 89 56 146.5t147 57.5zM237 631q-50 0 -79 -35.5t-29 -92.5q0 -58 29 -94t79 -36t79 36t29 94q0 57 -29 92.5t-79 35.5z" />
    <glyph glyph-name="guillemotright" unicode="&#xbb;" horiz-adv-x="572" 
d="M186 261l-142 178h132l133 -178l-133 -178h-132zM398 261l-132 178h122l133 -178l-133 -178h-122z" />
    <glyph glyph-name="onequarter" unicode="&#xbc;" horiz-adv-x="870" 
d="M632 712l52 -35l-513 -690l-51 38zM152 301v319l-128 -59v92l148 47h68v-399h-88zM848 151v-70h-61v-81h-82v81h-194l-14 57q78 142 94 261h94q-21 -118 -91 -248h112l6 142h75v-142h61z" />
    <glyph glyph-name="onehalf" unicode="&#xbd;" horiz-adv-x="827" 
d="M621 712l52 -35l-513 -690l-51 38zM152 301v319l-128 -59v92l148 47h68v-399h-88zM609 70h194v-70h-313v51l149 121q36 29 52 52t16 51q0 26 -17.5 43.5t-45.5 17.5q-30 0 -49 -17t-21 -48h-83q4 64 44.5 99.5t109.5 35.5q66 0 108 -37t42 -93q0 -48 -32 -86t-88 -74z
" />
    <glyph glyph-name="threequarters" unicode="&#xbe;" horiz-adv-x="896" 
d="M689 712l52 -35l-513 -690l-51 38zM337 416q0 -54 -41 -86.5t-110 -32.5q-72 0 -117.5 36.5t-49.5 101.5h85q2 -33 24 -51.5t56 -18.5q33 0 51 16t18 42q0 52 -78 52h-26v60h26q33 0 52.5 14.5t19.5 39.5q0 24 -18 38t-46 14q-32 0 -51.5 -17t-21.5 -46h-81q4 61 45.5 96
t108.5 35q66 0 106.5 -31.5t40.5 -83.5q0 -68 -66 -89q73 -18 73 -89zM875 151v-70h-61v-81h-82v81h-194l-14 57q78 142 94 261h94q-21 -118 -91 -248h112l6 142h75v-142h61z" />
    <glyph glyph-name="questiondown" unicode="&#xbf;" horiz-adv-x="527" 
d="M343 615v-120h-128v120h128zM402 120h107q-3 -103 -68 -160.5t-173 -57.5q-98 0 -161 55.5t-63 139.5q0 83 41 128.5t129 82.5l12 5v90h102v-139l-72 -33q-60 -28 -84 -57.5t-24 -73.5q0 -47 34 -77.5t86 -30.5q59 0 95 34t39 94z" />
    <glyph glyph-name="Agrave" unicode="&#xc0;" horiz-adv-x="777" 
d="M425 756h-93l-114 140h157zM610 0l-66 171h-312l-66 -171h-126l288 700h121l287 -700h-126zM267 262h242l-121 312z" />
    <glyph glyph-name="Aacute" unicode="&#xc1;" horiz-adv-x="777" 
d="M558 896l-114 -140h-93l50 140h157zM610 0l-66 171h-312l-66 -171h-126l288 700h121l287 -700h-126zM267 262h242l-121 312z" />
    <glyph glyph-name="Acircumflex" unicode="&#xc2;" horiz-adv-x="777" 
d="M388 829l-70 -73h-99l102 140h133l102 -140h-99zM610 0l-66 171h-312l-66 -171h-126l288 700h121l287 -700h-126zM267 262h242l-121 312z" />
    <glyph glyph-name="Atilde" unicode="&#xc3;" horiz-adv-x="777" 
d="M339 794q-33 0 -35 -35h-78q1 57 31.5 82.5t75.5 25.5q34 0 66 -17.5t49 -17.5q20 0 27.5 9t8.5 26h77q0 -56 -29.5 -82.5t-76.5 -26.5q-34 0 -66.5 18t-49.5 18zM610 0l-66 171h-312l-66 -171h-126l288 700h121l287 -700h-126zM267 262h242l-121 312z" />
    <glyph glyph-name="Adieresis" unicode="&#xc4;" horiz-adv-x="777" 
d="M335 884v-116h-124v116h124zM565 884v-116h-124v116h124zM610 0l-66 171h-312l-66 -171h-126l288 700h121l287 -700h-126zM267 262h242l-121 312z" />
    <glyph glyph-name="Aring" unicode="&#xc5;" horiz-adv-x="777" 
d="M390 720q-46 0 -79 30t-33 76q0 45 33 75t79 30t79 -30t33 -75q0 -46 -33 -76t-79 -30zM390 879q-22 0 -37 -15t-15 -38t15 -38.5t37 -15.5t37 15.5t15 38.5t-15 38t-37 15zM610 0l-66 171h-312l-66 -171h-126l288 700h121l287 -700h-126zM267 262h242l-121 312z" />
    <glyph glyph-name="AE" unicode="&#xc6;" horiz-adv-x="1126" 
d="M1063 603h-390v-194h365v-95h-365v-217h390v-97h-511v171h-261l-106 -171h-145l461 700h562v-97zM349 264h203v327z" />
    <glyph glyph-name="Ccedilla" unicode="&#xc7;" horiz-adv-x="788" 
d="M409 90q73 0 120.5 40.5t61.5 113.5h131q-17 -113 -90.5 -179.5t-191.5 -74.5l-35 -44h6q43 0 70.5 -23t27.5 -59q0 -37 -30 -61t-75 -24q-46 0 -77 26t-36 67l73 8q1 -19 11.5 -29.5t25.5 -10.5q14 0 23 7t9 19q0 31 -50 31h-34l-17 40l48 53q-143 10 -229.5 109.5
t-86.5 251.5q0 160 95 260.5t250 100.5q130 0 212.5 -67.5t102.5 -189.5h-129q-14 74 -62.5 115t-123.5 41q-99 0 -159.5 -73t-60.5 -187q0 -115 60.5 -188t159.5 -73z" />
    <glyph glyph-name="Egrave" unicode="&#xc8;" horiz-adv-x="673" 
d="M393 756h-93l-114 140h157zM610 603h-390v-194h365v-95h-365v-217h390v-97h-511v700h511v-97z" />
    <glyph glyph-name="Eacute" unicode="&#xc9;" horiz-adv-x="673" 
d="M319 756l50 140h157l-114 -140h-93zM610 603h-390v-194h365v-95h-365v-217h390v-97h-511v700h511v-97z" />
    <glyph glyph-name="Ecircumflex" unicode="&#xca;" horiz-adv-x="673" 
d="M524 756h-99l-69 73l-70 -73h-99l102 140h133zM610 603h-390v-194h365v-95h-365v-217h390v-97h-511v700h511v-97z" />
    <glyph glyph-name="Edieresis" unicode="&#xcb;" horiz-adv-x="673" 
d="M179 768v116h124v-116h-124zM409 768v116h124v-116h-124zM610 603h-390v-194h365v-95h-365v-217h390v-97h-511v700h511v-97z" />
    <glyph glyph-name="Igrave" unicode="&#xcc;" horiz-adv-x="319" 
d="M197 756h-93l-114 140h157zM99 700h121v-700h-121v700z" />
    <glyph glyph-name="Iacute" unicode="&#xcd;" horiz-adv-x="297" 
d="M104 756l50 140h157l-114 -140h-93zM99 700h121v-700h-121v700z" />
    <glyph glyph-name="Icircumflex" unicode="&#xce;" horiz-adv-x="319" 
d="M328 756h-99l-69 73l-70 -73h-99l102 140h133zM99 700h121v-700h-121v700z" />
    <glyph glyph-name="Idieresis" unicode="&#xcf;" horiz-adv-x="319" 
d="M-17 768v116h124v-116h-124zM213 768v116h124v-116h-124zM99 700h121v-700h-121v700z" />
    <glyph glyph-name="Eth" unicode="&#xd0;" horiz-adv-x="772" 
d="M337 700q169 0 270 -97.5t101 -251.5q0 -155 -101 -253t-270 -98h-235v319h-68v83h68v298h235zM347 100q109 0 172.5 69.5t63.5 181.5q0 111 -63.5 180t-172.5 69h-124v-198h199v-83h-199v-219h124z" />
    <glyph glyph-name="Ntilde" unicode="&#xd1;" horiz-adv-x="778" 
d="M331 794q-33 0 -35 -35h-78q1 57 31.5 82.5t75.5 25.5q34 0 66 -17.5t49 -17.5q20 0 27.5 9t8.5 26h77q0 -56 -29.5 -82.5t-76.5 -26.5q-34 0 -66.5 18t-49.5 18zM559 700h120v-700h-109l-351 502v-502h-120v700h111l349 -505v505z" />
    <glyph glyph-name="Ograve" unicode="&#xd2;" horiz-adv-x="826" 
d="M450 756h-93l-114 140h157zM413 712q157 0 253 -101t96 -262q0 -159 -96 -259.5t-253 -100.5t-253 100.5t-96 259.5q0 161 96 262t253 101zM413 611q-101 0 -162.5 -73t-61.5 -189q0 -114 61.5 -186.5t162.5 -72.5t162.5 72.5t61.5 186.5q0 116 -61.5 189t-162.5 73z" />
    <glyph glyph-name="Oacute" unicode="&#xd3;" horiz-adv-x="826" 
d="M376 756l50 140h157l-114 -140h-93zM413 712q157 0 253 -101t96 -262q0 -159 -96 -259.5t-253 -100.5t-253 100.5t-96 259.5q0 161 96 262t253 101zM413 611q-101 0 -162.5 -73t-61.5 -189q0 -114 61.5 -186.5t162.5 -72.5t162.5 72.5t61.5 186.5q0 116 -61.5 189
t-162.5 73z" />
    <glyph glyph-name="Ocircumflex" unicode="&#xd4;" horiz-adv-x="826" 
d="M581 756h-99l-69 73l-70 -73h-99l102 140h133zM413 712q157 0 253 -101t96 -262q0 -159 -96 -259.5t-253 -100.5t-253 100.5t-96 259.5q0 161 96 262t253 101zM413 611q-101 0 -162.5 -73t-61.5 -189q0 -114 61.5 -186.5t162.5 -72.5t162.5 72.5t61.5 186.5
q0 116 -61.5 189t-162.5 73z" />
    <glyph glyph-name="Otilde" unicode="&#xd5;" horiz-adv-x="826" 
d="M480 758q-34 0 -66.5 18t-49.5 18q-33 0 -35 -35h-78q1 57 31.5 82.5t75.5 25.5q34 0 66 -17.5t49 -17.5q20 0 27.5 9t8.5 26h77q0 -56 -29.5 -82.5t-76.5 -26.5zM413 712q157 0 253 -101t96 -262q0 -159 -96 -259.5t-253 -100.5t-253 100.5t-96 259.5q0 161 96 262
t253 101zM413 611q-101 0 -162.5 -73t-61.5 -189q0 -114 61.5 -186.5t162.5 -72.5t162.5 72.5t61.5 186.5q0 116 -61.5 189t-162.5 73z" />
    <glyph glyph-name="Odieresis" unicode="&#xd6;" horiz-adv-x="826" 
d="M236 768v116h124v-116h-124zM466 768v116h124v-116h-124zM413 712q157 0 253 -101t96 -262q0 -159 -96 -259.5t-253 -100.5t-253 100.5t-96 259.5q0 161 96 262t253 101zM413 611q-101 0 -162.5 -73t-61.5 -189q0 -114 61.5 -186.5t162.5 -72.5t162.5 72.5t61.5 186.5
q0 116 -61.5 189t-162.5 73z" />
    <glyph glyph-name="multiply" unicode="&#xd7;" horiz-adv-x="590" 
d="M524 504l-164 -163l164 -164l-65 -65l-164 164l-164 -164l-65 65l164 164l-164 163l65 65l164 -164l164 164z" />
    <glyph glyph-name="Oslash" unicode="&#xd8;" horiz-adv-x="826" 
d="M678 598q84 -98 84 -249q0 -159 -96 -259.5t-253 -100.5q-121 0 -208 62l-70 -81l-54 49l70 81q-87 98 -87 249q0 161 96 262t253 101q124 0 211 -64l72 83l55 -48zM189 349q0 -93 41 -158l321 372q-57 48 -138 48q-101 0 -162.5 -73t-61.5 -189zM413 90
q101 0 162.5 72.5t61.5 186.5q0 90 -39 157l-320 -370q57 -46 135 -46z" />
    <glyph glyph-name="Ugrave" unicode="&#xd9;" horiz-adv-x="774" 
d="M424 756h-93l-114 140h157zM559 700h121v-433q0 -125 -80.5 -200.5t-212.5 -75.5t-212.5 75.5t-80.5 200.5v433h121v-435q0 -79 47 -126t125 -47t125 47t47 126v435z" />
    <glyph glyph-name="Uacute" unicode="&#xda;" horiz-adv-x="774" 
d="M557 896l-114 -140h-93l50 140h157zM559 700h121v-433q0 -125 -80.5 -200.5t-212.5 -75.5t-212.5 75.5t-80.5 200.5v433h121v-435q0 -79 47 -126t125 -47t125 47t47 126v435z" />
    <glyph glyph-name="Ucircumflex" unicode="&#xdb;" horiz-adv-x="774" 
d="M387 829l-70 -73h-99l102 140h133l102 -140h-99zM559 700h121v-433q0 -125 -80.5 -200.5t-212.5 -75.5t-212.5 75.5t-80.5 200.5v433h121v-435q0 -79 47 -126t125 -47t125 47t47 126v435z" />
    <glyph glyph-name="Udieresis" unicode="&#xdc;" horiz-adv-x="774" 
d="M334 884v-116h-124v116h124zM564 884v-116h-124v116h124zM559 700h121v-433q0 -125 -80.5 -200.5t-212.5 -75.5t-212.5 75.5t-80.5 200.5v433h121v-435q0 -79 47 -126t125 -47t125 47t47 126v435z" />
    <glyph glyph-name="Yacute" unicode="&#xdd;" horiz-adv-x="733" 
d="M536 896l-114 -140h-93l50 140h157zM692 700l-265 -432v-268h-121v267l-266 433h137l189 -327l190 327h136z" />
    <glyph glyph-name="Thorn" unicode="&#xde;" horiz-adv-x="711" 
d="M436 568q106 0 171.5 -59.5t65.5 -148.5q0 -94 -65 -153t-172 -59h-216v-148h-121v700h121v-132h216zM424 244q59 0 94 33.5t35 82.5q0 47 -35 79.5t-94 32.5h-204v-228h204z" />
    <glyph glyph-name="germandbls" unicode="&#xdf;" horiz-adv-x="636" 
d="M399 379q88 -15 140 -64t52 -125q0 -87 -64 -143.5t-170 -56.5q-47 0 -101 13l1 103q50 -23 91 -23q60 0 95 32.5t35 82.5q0 59 -50 94t-136 38l-1 86q67 10 103.5 38.5t36.5 72.5t-30.5 71.5t-83.5 27.5q-60 0 -93 -37t-33 -103v-486h-112v504q0 99 64.5 155.5
t175.5 56.5q98 0 159 -50.5t61 -129.5q0 -57 -37.5 -97.5t-102.5 -59.5z" />
    <glyph glyph-name="agrave" unicode="&#xe0;" horiz-adv-x="635" 
d="M362 560h-85l-114 149h152zM281 -10q-108 0 -173 73.5t-65 190.5q0 115 65 187.5t173 72.5q55 0 99 -23.5t63 -64.5h1v78h111v-504h-111v86h-1q-21 -45 -64.5 -70.5t-97.5 -25.5zM299 82q68 0 109 46t41 121v7q-1 74 -42 120t-108 46q-66 0 -106.5 -46.5t-40.5 -121.5
q0 -77 40.5 -124.5t106.5 -47.5z" />
    <glyph glyph-name="aacute" unicode="&#xe1;" horiz-adv-x="635" 
d="M265 560l47 149h152l-114 -149h-85zM281 -10q-108 0 -173 73.5t-65 190.5q0 115 65 187.5t173 72.5q55 0 99 -23.5t63 -64.5h1v78h111v-504h-111v86h-1q-21 -45 -64.5 -70.5t-97.5 -25.5zM299 82q68 0 109 46t41 121v7q-1 74 -42 120t-108 46q-66 0 -106.5 -46.5
t-40.5 -121.5q0 -77 40.5 -124.5t106.5 -47.5z" />
    <glyph glyph-name="acircumflex" unicode="&#xe2;" horiz-adv-x="635" 
d="M454 560h-83l-63 78l-64 -78h-83l84 146h125zM281 -10q-108 0 -173 73.5t-65 190.5q0 115 65 187.5t173 72.5q55 0 99 -23.5t63 -64.5h1v78h111v-504h-111v86h-1q-21 -45 -64.5 -70.5t-97.5 -25.5zM299 82q68 0 109 46t41 121v7q-1 74 -42 120t-108 46
q-66 0 -106.5 -46.5t-40.5 -121.5q0 -77 40.5 -124.5t106.5 -47.5z" />
    <glyph glyph-name="atilde" unicode="&#xe3;" horiz-adv-x="635" 
d="M369 576q-32 0 -60.5 18t-43.5 18q-33 0 -35 -35h-78q1 56 31.5 81t75.5 25q32 0 60 -17.5t43 -17.5q20 0 27.5 9t8.5 26h77q0 -56 -29.5 -81.5t-76.5 -25.5zM281 -10q-108 0 -173 73.5t-65 190.5q0 115 65 187.5t173 72.5q55 0 99 -23.5t63 -64.5h1v78h111v-504h-111v86
h-1q-21 -45 -64.5 -70.5t-97.5 -25.5zM299 82q68 0 109 46t41 121v7q-1 74 -42 120t-108 46q-66 0 -106.5 -46.5t-40.5 -121.5q0 -77 40.5 -124.5t106.5 -47.5z" />
    <glyph glyph-name="adieresis" unicode="&#xe4;" horiz-adv-x="635" 
d="M138 592v117h124v-117h-124zM354 592v117h124v-117h-124zM281 -10q-108 0 -173 73.5t-65 190.5q0 115 65 187.5t173 72.5q55 0 99 -23.5t63 -64.5h1v78h111v-504h-111v86h-1q-21 -45 -64.5 -70.5t-97.5 -25.5zM299 82q68 0 109 46t41 121v7q-1 74 -42 120t-108 46
q-66 0 -106.5 -46.5t-40.5 -121.5q0 -77 40.5 -124.5t106.5 -47.5z" />
    <glyph glyph-name="aring" unicode="&#xe5;" horiz-adv-x="635" 
d="M310 547q-45 0 -78 30t-33 75t33 75t78 30t78 -30t33 -75t-33 -75t-78 -30zM310 598q22 0 37 15.5t15 38.5t-15 38.5t-37 15.5t-37 -15.5t-15 -38.5t15 -38.5t37 -15.5zM281 -10q-108 0 -173 73.5t-65 190.5q0 115 65 187.5t173 72.5q55 0 99 -23.5t63 -64.5h1v78h111
v-504h-111v86h-1q-21 -45 -64.5 -70.5t-97.5 -25.5zM299 82q68 0 109 46t41 121v7q-1 74 -42 120t-108 46q-66 0 -106.5 -46.5t-40.5 -121.5q0 -77 40.5 -124.5t106.5 -47.5z" />
    <glyph glyph-name="ae" unicode="&#xe6;" horiz-adv-x="883" 
d="M840 232h-357v-9q5 -67 39 -106t89 -39q81 0 111 79h115q-46 -167 -226 -167q-126 0 -184 95q-62 -95 -203 -95q-85 0 -134 39.5t-49 107.5q0 77 70 121t200 44h60v26q0 47 -25.5 74t-68.5 27q-46 0 -73.5 -23t-29.5 -63h-112q1 80 59.5 125.5t154.5 45.5q117 0 166 -76
q60 76 168 76q107 0 168.5 -72.5t61.5 -189.5v-20zM611 430q-107 0 -126 -128h247q-2 58 -33.5 93t-87.5 35zM233 73q62 0 99.5 34t38.5 89v36h-61q-156 0 -156 -90q0 -32 21 -50.5t58 -18.5z" />
    <glyph glyph-name="ccedilla" unicode="&#xe7;" horiz-adv-x="568" 
d="M535 193q-8 -84 -63 -139t-143 -64l-35 -44h6q43 0 70.5 -23t27.5 -59q0 -37 -30 -61t-75 -24q-46 0 -77 26t-36 67l73 8q1 -19 11.5 -29.5t25.5 -10.5q14 0 23 7t9 19q0 31 -50 31h-34l-17 40l47 52q-104 10 -164.5 81.5t-60.5 181.5q0 117 68.5 190.5t184.5 73.5
q98 0 161.5 -53.5t74.5 -141.5h-111q-9 48 -41 76.5t-85 28.5q-67 0 -105.5 -48t-38.5 -126q0 -77 38.5 -125t105.5 -48q56 0 88.5 30.5t41.5 83.5h110z" />
    <glyph glyph-name="egrave" unicode="&#xe8;" horiz-adv-x="575" 
d="M337 560h-85l-114 149h152zM294 -12q-115 0 -183 72.5t-68 189.5q0 118 69 192t182 74t175.5 -74t62.5 -194v-19h-377v-4q4 -67 42 -108t95 -41q92 0 121 86h115q-22 -83 -83.5 -128.5t-150.5 -45.5zM158 300h265q-2 59 -36 95t-93 36q-56 0 -91.5 -34.5t-44.5 -96.5z
" />
    <glyph glyph-name="eacute" unicode="&#xe9;" horiz-adv-x="575" 
d="M244 560l47 149h152l-114 -149h-85zM294 -12q-115 0 -183 72.5t-68 189.5q0 118 69 192t182 74t175.5 -74t62.5 -194v-19h-377v-4q4 -67 42 -108t95 -41q92 0 121 86h115q-22 -83 -83.5 -128.5t-150.5 -45.5zM158 300h265q-2 59 -36 95t-93 36q-56 0 -91.5 -34.5
t-44.5 -96.5z" />
    <glyph glyph-name="ecircumflex" unicode="&#xea;" horiz-adv-x="575" 
d="M437 560h-83l-63 78l-64 -78h-83l84 146h125zM294 -12q-115 0 -183 72.5t-68 189.5q0 118 69 192t182 74t175.5 -74t62.5 -194v-19h-377v-4q4 -67 42 -108t95 -41q92 0 121 86h115q-22 -83 -83.5 -128.5t-150.5 -45.5zM158 300h265q-2 59 -36 95t-93 36
q-56 0 -91.5 -34.5t-44.5 -96.5z" />
    <glyph glyph-name="edieresis" unicode="&#xeb;" horiz-adv-x="575" 
d="M121 592v117h124v-117h-124zM337 592v117h124v-117h-124zM294 -12q-115 0 -183 72.5t-68 189.5q0 118 69 192t182 74t175.5 -74t62.5 -194v-19h-377v-4q4 -67 42 -108t95 -41q92 0 121 86h115q-22 -83 -83.5 -128.5t-150.5 -45.5zM158 300h265q-2 59 -36 95t-93 36
q-56 0 -91.5 -34.5t-44.5 -96.5z" />
    <glyph glyph-name="igrave" unicode="&#xec;" horiz-adv-x="241" 
d="M169 560h-85l-114 149h152zM65 0v504h111v-504h-111z" />
    <glyph glyph-name="iacute" unicode="&#xed;" horiz-adv-x="241" 
d="M74 560l47 149h152l-114 -149h-85zM65 0v504h111v-504h-111z" />
    <glyph glyph-name="icircumflex" unicode="&#xee;" horiz-adv-x="241" 
d="M267 560h-83l-63 78l-64 -78h-83l84 146h125zM65 0v504h111v-504h-111z" />
    <glyph glyph-name="idieresis" unicode="&#xef;" horiz-adv-x="241" 
d="M-49 592v117h124v-117h-124zM167 592v117h124v-117h-124zM65 0v504h111v-504h-111z" />
    <glyph glyph-name="eth" unicode="&#xf0;" horiz-adv-x="602" 
d="M347 651q77 -36 126 -98t67.5 -128.5t18.5 -144.5q0 -133 -72 -211.5t-185 -78.5q-118 0 -188.5 72t-70.5 189q0 114 66 184.5t176 70.5q113 0 170 -87q-47 133 -189 172l-115 -85l-35 45l74 55q-52 6 -115 6v91q119 0 209 -28l107 79l34 -46zM301 79q69 0 110 47.5
t41 123.5t-42.5 123.5t-108.5 47.5q-68 0 -109 -47.5t-41 -123.5t41 -123.5t109 -47.5z" />
    <glyph glyph-name="ntilde" unicode="&#xf1;" horiz-adv-x="620" 
d="M268 612q-33 0 -35 -35h-78q1 56 31.5 81t75.5 25q32 0 60 -17.5t43 -17.5q20 0 27.5 9t8.5 26h77q0 -56 -29.5 -81.5t-76.5 -25.5q-32 0 -60.5 18t-43.5 18zM357 516q90 0 139 -57.5t49 -155.5v-303h-111v288q0 60 -27.5 95t-75.5 35q-64 0 -102 -43t-38 -114v-261h-112
v504h112v-95q48 107 166 107z" />
    <glyph glyph-name="ograve" unicode="&#xf2;" horiz-adv-x="598" 
d="M351 560h-85l-114 149h152zM299 516q116 0 186 -73.5t70 -190.5t-70 -190.5t-186 -73.5q-115 0 -185.5 73.5t-70.5 190.5t70.5 190.5t185.5 73.5zM299 425q-67 0 -107 -48.5t-40 -124.5t40 -124.5t107 -48.5q68 0 108 48.5t40 124.5t-40 124.5t-108 48.5z" />
    <glyph glyph-name="oacute" unicode="&#xf3;" horiz-adv-x="598" 
d="M263 560l47 149h152l-114 -149h-85zM299 516q116 0 186 -73.5t70 -190.5t-70 -190.5t-186 -73.5q-115 0 -185.5 73.5t-70.5 190.5t70.5 190.5t185.5 73.5zM299 425q-67 0 -107 -48.5t-40 -124.5t40 -124.5t107 -48.5q68 0 108 48.5t40 124.5t-40 124.5t-108 48.5z" />
    <glyph glyph-name="ocircumflex" unicode="&#xf4;" horiz-adv-x="598" 
d="M445 560h-83l-63 78l-64 -78h-83l84 146h125zM299 516q116 0 186 -73.5t70 -190.5t-70 -190.5t-186 -73.5q-115 0 -185.5 73.5t-70.5 190.5t70.5 190.5t185.5 73.5zM299 425q-67 0 -107 -48.5t-40 -124.5t40 -124.5t107 -48.5q68 0 108 48.5t40 124.5t-40 124.5
t-108 48.5z" />
    <glyph glyph-name="otilde" unicode="&#xf5;" horiz-adv-x="598" 
d="M360 576q-32 0 -60.5 18t-43.5 18q-33 0 -35 -35h-78q1 56 31.5 81t75.5 25q32 0 60 -17.5t43 -17.5q20 0 27.5 9t8.5 26h77q0 -56 -29.5 -81.5t-76.5 -25.5zM299 516q116 0 186 -73.5t70 -190.5t-70 -190.5t-186 -73.5q-115 0 -185.5 73.5t-70.5 190.5t70.5 190.5
t185.5 73.5zM299 425q-67 0 -107 -48.5t-40 -124.5t40 -124.5t107 -48.5q68 0 108 48.5t40 124.5t-40 124.5t-108 48.5z" />
    <glyph glyph-name="odieresis" unicode="&#xf6;" horiz-adv-x="598" 
d="M129 592v117h124v-117h-124zM345 592v117h124v-117h-124zM299 516q116 0 186 -73.5t70 -190.5t-70 -190.5t-186 -73.5q-115 0 -185.5 73.5t-70.5 190.5t70.5 190.5t185.5 73.5zM299 425q-67 0 -107 -48.5t-40 -124.5t40 -124.5t107 -48.5q68 0 108 48.5t40 124.5
t-40 124.5t-108 48.5z" />
    <glyph glyph-name="divide" unicode="&#xf7;" horiz-adv-x="631" 
d="M252 479v132h128v-132h-128zM66 384h499v-87h-499v87zM251 70v132h129v-132h-129z" />
    <glyph glyph-name="oslash" unicode="&#xf8;" horiz-adv-x="598" 
d="M494 432q61 -72 61 -180q0 -117 -70 -190.5t-186 -73.5q-87 0 -151 44l-47 -54l-48 44l47 55q-57 71 -57 175q0 117 70.5 190.5t185.5 73.5q83 0 146 -41l54 63l49 -43zM152 252q0 -51 20 -93l208 242q-35 24 -81 24q-67 0 -107 -48.5t-40 -124.5zM299 79q68 0 108 48.5
t40 124.5q0 57 -23 100l-211 -245q36 -28 86 -28z" />
    <glyph glyph-name="ugrave" unicode="&#xf9;" horiz-adv-x="616" 
d="M371 560h-85l-114 149h152zM537 504v-504h-112v88q-49 -99 -163 -99q-90 0 -140.5 57.5t-50.5 158.5v299h112v-288q0 -60 27.5 -95t75.5 -35q64 0 101.5 43t37.5 114v261h112z" />
    <glyph glyph-name="uacute" unicode="&#xfa;" horiz-adv-x="616" 
d="M451 709l-114 -149h-85l47 149h152zM537 504v-504h-112v88q-49 -99 -163 -99q-90 0 -140.5 57.5t-50.5 158.5v299h112v-288q0 -60 27.5 -95t75.5 -35q64 0 101.5 43t37.5 114v261h112z" />
    <glyph glyph-name="ucircumflex" unicode="&#xfb;" horiz-adv-x="616" 
d="M299 638l-64 -78h-83l84 146h125l84 -146h-83zM537 504v-504h-112v88q-49 -99 -163 -99q-90 0 -140.5 57.5t-50.5 158.5v299h112v-288q0 -60 27.5 -95t75.5 -35q64 0 101.5 43t37.5 114v261h112z" />
    <glyph glyph-name="udieresis" unicode="&#xfc;" horiz-adv-x="616" 
d="M253 709v-117h-124v117h124zM469 709v-117h-124v117h124zM537 504v-504h-112v88q-49 -99 -163 -99q-90 0 -140.5 57.5t-50.5 158.5v299h112v-288q0 -60 27.5 -95t75.5 -35q64 0 101.5 43t37.5 114v261h112z" />
    <glyph glyph-name="yacute" unicode="&#xfd;" horiz-adv-x="543" 
d="M437 709l-114 -149h-85l47 149h152zM416 504h119l-215 -573q-25 -69 -79 -106.5t-124 -37.5q-63 0 -125 28v102q65 -36 125 -36q38 0 67.5 22.5t42.5 59.5l6 17l-225 524h125l149 -385z" />
    <glyph glyph-name="thorn" unicode="&#xfe;" horiz-adv-x="635" 
d="M79 -200v900h112v-274h1q21 40 64.5 64t96.5 24q108 0 173.5 -73.5t65.5 -190.5q0 -115 -65.5 -187.5t-173.5 -72.5q-54 0 -98 22t-63 58h-1v-270h-112zM336 82q66 0 106 46.5t40 121.5q0 77 -40 124.5t-106 47.5q-68 0 -109 -46t-41 -121v-7q0 -74 41.5 -120t108.5 -46z
" />
    <glyph glyph-name="ydieresis" unicode="&#xff;" horiz-adv-x="543" 
d="M239 709v-117h-124v117h124zM455 709v-117h-124v117h124zM416 504h119l-215 -573q-25 -69 -79 -106.5t-124 -37.5q-63 0 -125 28v102q65 -36 125 -36q38 0 67.5 22.5t42.5 59.5l6 17l-225 524h125l149 -385z" />
    <glyph glyph-name="Amacron" unicode="&#x100;" horiz-adv-x="777" 
d="M526 866v-82h-276v82h276zM610 0l-66 171h-312l-66 -171h-126l288 700h121l287 -700h-126zM267 262h242l-121 312z" />
    <glyph glyph-name="amacron" unicode="&#x101;" horiz-adv-x="635" 
d="M188 678h240v-82h-240v82zM281 -10q-108 0 -173 73.5t-65 190.5q0 115 65 187.5t173 72.5q55 0 99 -23.5t63 -64.5h1v78h111v-504h-111v86h-1q-21 -45 -64.5 -70.5t-97.5 -25.5zM299 82q68 0 109 46t41 121v7q-1 74 -42 120t-108 46q-66 0 -106.5 -46.5t-40.5 -121.5
q0 -77 40.5 -124.5t106.5 -47.5z" />
    <glyph glyph-name="Abreve" unicode="&#x102;" horiz-adv-x="777" 
d="M388 753q-68 0 -110.5 38t-43.5 104h91q5 -70 63 -70q30 0 48 18.5t19 51.5h89q-1 -66 -44 -104t-112 -38zM610 0l-66 171h-312l-66 -171h-126l288 700h121l287 -700h-126zM267 262h242l-121 312z" />
    <glyph glyph-name="abreve" unicode="&#x103;" horiz-adv-x="635" 
d="M308 564q-68 0 -109.5 38t-42.5 106h89q0 -35 17.5 -54t45.5 -19q29 0 48 19.5t19 53.5h87q-1 -68 -43 -106t-111 -38zM281 -10q-108 0 -173 73.5t-65 190.5q0 115 65 187.5t173 72.5q55 0 99 -23.5t63 -64.5h1v78h111v-504h-111v86h-1q-21 -45 -64.5 -70.5t-97.5 -25.5z
M299 82q68 0 109 46t41 121v7q-1 74 -42 120t-108 46q-66 0 -106.5 -46.5t-40.5 -121.5q0 -77 40.5 -124.5t106.5 -47.5z" />
    <glyph glyph-name="Aogonek" unicode="&#x104;" horiz-adv-x="777" 
d="M705 -110q30 0 55 10v-80q-41 -11 -83 -11q-51 0 -86.5 25.5t-35.5 63.5q0 59 77 102h-22l-66 171h-312l-66 -171h-126l288 700h121l287 -700l-38.5 -27.5t-21.5 -22t-10 -27.5q0 -15 11 -24t28 -9zM267 262h242l-121 312z" />
    <glyph glyph-name="aogonek" unicode="&#x105;" horiz-adv-x="635" 
d="M524 -110q30 0 55 10v-80q-41 -11 -83 -11q-51 0 -86.5 25.5t-35.5 63.5q0 59 77 102h-7v86h-1q-21 -45 -64.5 -70.5t-97.5 -25.5q-108 0 -173 73.5t-65 190.5q0 115 65 187.5t173 72.5q55 0 99 -23.5t63 -64.5h1v78h111v-504l-38.5 -27.5t-21.5 -22t-10 -27.5
q0 -15 11 -24t28 -9zM449 249v7q-1 74 -42 120t-108 46q-66 0 -106.5 -46.5t-40.5 -121.5q0 -77 40.5 -124.5t106.5 -47.5q68 0 109 46t41 121z" />
    <glyph glyph-name="Cacute" unicode="&#x106;" horiz-adv-x="788" 
d="M372 756l50 140h157l-114 -140h-93zM722 244q-19 -121 -100.5 -188t-212.5 -67q-155 0 -250 101t-95 261t95 260.5t250 100.5q130 0 212.5 -67.5t102.5 -189.5h-129q-14 74 -62.5 115t-123.5 41q-99 0 -159.5 -73t-60.5 -187q0 -115 60.5 -188t159.5 -73q73 0 120.5 40.5
t61.5 113.5h131z" />
    <glyph glyph-name="cacute" unicode="&#x107;" horiz-adv-x="568" 
d="M254 560l47 149h152l-114 -149h-85zM535 193q-9 -92 -73 -148.5t-166 -56.5q-116 0 -184.5 73.5t-68.5 190.5t68.5 190.5t184.5 73.5q98 0 161.5 -53.5t74.5 -141.5h-111q-9 48 -41 76.5t-85 28.5q-67 0 -105.5 -48t-38.5 -126q0 -77 38.5 -125t105.5 -48q56 0 88.5 30.5
t41.5 83.5h110z" />
    <glyph glyph-name="Cdotaccent" unicode="&#x10a;" horiz-adv-x="788" 
d="M345 769v115h130v-115h-130zM722 244q-19 -121 -100.5 -188t-212.5 -67q-155 0 -250 101t-95 261t95 260.5t250 100.5q130 0 212.5 -67.5t102.5 -189.5h-129q-14 74 -62.5 115t-123.5 41q-99 0 -159.5 -73t-60.5 -187q0 -115 60.5 -188t159.5 -73q73 0 120.5 40.5
t61.5 113.5h131z" />
    <glyph glyph-name="cdotaccent" unicode="&#x10b;" horiz-adv-x="568" 
d="M235 592v117h135v-117h-135zM535 193q-9 -92 -73 -148.5t-166 -56.5q-116 0 -184.5 73.5t-68.5 190.5t68.5 190.5t184.5 73.5q98 0 161.5 -53.5t74.5 -141.5h-111q-9 48 -41 76.5t-85 28.5q-67 0 -105.5 -48t-38.5 -126q0 -77 38.5 -125t105.5 -48q56 0 88.5 30.5
t41.5 83.5h110z" />
    <glyph glyph-name="Ccaron" unicode="&#x10c;" horiz-adv-x="788" 
d="M577 896l-102 -140h-133l-102 140h99l70 -73l69 73h99zM722 244q-19 -121 -100.5 -188t-212.5 -67q-155 0 -250 101t-95 261t95 260.5t250 100.5q130 0 212.5 -67.5t102.5 -189.5h-129q-14 74 -62.5 115t-123.5 41q-99 0 -159.5 -73t-60.5 -187q0 -115 60.5 -188
t159.5 -73q73 0 120.5 40.5t61.5 113.5h131z" />
    <glyph glyph-name="ccaron" unicode="&#x10d;" horiz-adv-x="568" 
d="M447 706l-84 -146h-125l-84 146h83l64 -78l63 78h83zM535 193q-9 -92 -73 -148.5t-166 -56.5q-116 0 -184.5 73.5t-68.5 190.5t68.5 190.5t184.5 73.5q98 0 161.5 -53.5t74.5 -141.5h-111q-9 48 -41 76.5t-85 28.5q-67 0 -105.5 -48t-38.5 -126q0 -77 38.5 -125
t105.5 -48q56 0 88.5 30.5t41.5 83.5h110z" />
    <glyph glyph-name="Dcaron" unicode="&#x10e;" horiz-adv-x="769" 
d="M526 896l-102 -140h-133l-102 140h99l70 -73l69 73h99zM334 700q169 0 270 -97.5t101 -251.5q0 -155 -101 -253t-270 -98h-235v700h235zM344 100q109 0 172.5 69.5t63.5 181.5q0 111 -63.5 180t-172.5 69h-124v-500h124z" />
    <glyph glyph-name="dcaron" unicode="&#x10f;" horiz-adv-x="640" 
d="M281 -12q-108 0 -173 74t-65 192q0 115 65 188.5t173 73.5q56 0 104 -24.5t66 -65.5h2v274h111v-700h-111v86h-1q-21 -44 -68.5 -71t-102.5 -27zM632 700h108l-52 -139h-74zM299 424q-66 0 -106.5 -47.5t-40.5 -122.5q0 -77 40.5 -125.5t106.5 -48.5q68 0 109 47t41 122
v7q-1 74 -42 121t-108 47z" />
    <glyph glyph-name="Dcroat" unicode="&#x110;" horiz-adv-x="772" 
d="M337 700q169 0 270 -97.5t101 -251.5q0 -155 -101 -253t-270 -98h-235v319h-68v83h68v298h235zM347 100q109 0 172.5 69.5t63.5 181.5q0 111 -63.5 180t-172.5 69h-124v-198h199v-83h-199v-219h124z" />
    <glyph glyph-name="dcroat" unicode="&#x111;" horiz-adv-x="640" 
d="M644 631v-67h-80v-564h-111v86h-1q-21 -44 -68.5 -71t-102.5 -27q-108 0 -173 74t-65 192q0 115 65 188.5t173 73.5q56 0 104 -24.5t66 -65.5h2v138h-205v67h205v69h111v-69h80zM449 249v7q-1 74 -42 121t-108 47q-66 0 -106.5 -47.5t-40.5 -122.5q0 -77 40.5 -125.5
t106.5 -48.5q68 0 109 47t41 122z" />
    <glyph glyph-name="Emacron" unicode="&#x112;" horiz-adv-x="673" 
d="M218 784v82h276v-82h-276zM610 603h-390v-194h365v-95h-365v-217h390v-97h-511v700h511v-97z" />
    <glyph glyph-name="emacron" unicode="&#x113;" horiz-adv-x="575" 
d="M171 678h240v-82h-240v82zM294 -12q-115 0 -183 72.5t-68 189.5q0 118 69 192t182 74t175.5 -74t62.5 -194v-19h-377v-4q4 -67 42 -108t95 -41q92 0 121 86h115q-22 -83 -83.5 -128.5t-150.5 -45.5zM158 300h265q-2 59 -36 95t-93 36q-56 0 -91.5 -34.5t-44.5 -96.5z" />
    <glyph glyph-name="Ebreve" unicode="&#x114;" horiz-adv-x="673" 
d="M356 753q-68 0 -110.5 38t-43.5 104h91q5 -70 63 -70q30 0 48 18.5t19 51.5h89q-1 -66 -44 -104t-112 -38zM610 603h-390v-194h365v-95h-365v-217h390v-97h-511v700h511v-97z" />
    <glyph glyph-name="ebreve" unicode="&#x115;" horiz-adv-x="575" 
d="M291 564q-68 0 -109.5 38t-42.5 106h89q0 -35 17.5 -54t45.5 -19q29 0 48 19.5t19 53.5h87q-1 -68 -43 -106t-111 -38zM294 -12q-115 0 -183 72.5t-68 189.5q0 118 69 192t182 74t175.5 -74t62.5 -194v-19h-377v-4q4 -67 42 -108t95 -41q92 0 121 86h115
q-22 -83 -83.5 -128.5t-150.5 -45.5zM158 300h265q-2 59 -36 95t-93 36q-56 0 -91.5 -34.5t-44.5 -96.5z" />
    <glyph glyph-name="Edotaccent" unicode="&#x116;" horiz-adv-x="673" 
d="M292 769v115h130v-115h-130zM610 603h-390v-194h365v-95h-365v-217h390v-97h-511v700h511v-97z" />
    <glyph glyph-name="edotaccent" unicode="&#x117;" horiz-adv-x="575" 
d="M225 592v117h135v-117h-135zM294 -12q-115 0 -183 72.5t-68 189.5q0 118 69 192t182 74t175.5 -74t62.5 -194v-19h-377v-4q4 -67 42 -108t95 -41q92 0 121 86h115q-22 -83 -83.5 -128.5t-150.5 -45.5zM158 300h265q-2 59 -36 95t-93 36q-56 0 -91.5 -34.5t-44.5 -96.5z
" />
    <glyph glyph-name="Eogonek" unicode="&#x118;" horiz-adv-x="673" 
d="M579 -110q30 0 55 10v-80q-41 -11 -83 -11q-51 0 -86.5 25.5t-35.5 63.5q0 59 77 102h-407v700h511v-97h-390v-194h365v-95h-365v-217h390v-97l-38.5 -27.5t-21.5 -22t-10 -27.5q0 -15 11 -24t28 -9z" />
    <glyph glyph-name="eogonek" unicode="&#x119;" horiz-adv-x="575" 
d="M532 229h-377v-4q4 -67 42 -108t95 -41q92 0 121 86h115q-22 -85 -87 -131q-72 -67 -82 -81t-10 -27q0 -15 11 -24t28 -9q30 0 55 10v-80q-41 -11 -83 -11q-50 0 -86 25.5t-36 63.5q0 46 59 90h-3q-115 0 -183 72.5t-68 189.5q0 118 69 192t182 74t175.5 -74t62.5 -194
v-19zM294 431q-56 0 -91.5 -34.5t-44.5 -96.5h265q-2 59 -36 95t-93 36z" />
    <glyph glyph-name="Ecaron" unicode="&#x11a;" horiz-adv-x="673" 
d="M524 896l-102 -140h-133l-102 140h99l70 -73l69 73h99zM610 603h-390v-194h365v-95h-365v-217h390v-97h-511v700h511v-97z" />
    <glyph glyph-name="ecaron" unicode="&#x11b;" horiz-adv-x="575" 
d="M437 706l-84 -146h-125l-84 146h83l64 -78l63 78h83zM294 -12q-115 0 -183 72.5t-68 189.5q0 118 69 192t182 74t175.5 -74t62.5 -194v-19h-377v-4q4 -67 42 -108t95 -41q92 0 121 86h115q-22 -83 -83.5 -128.5t-150.5 -45.5zM158 300h265q-2 59 -36 95t-93 36
q-56 0 -91.5 -34.5t-44.5 -96.5z" />
    <glyph glyph-name="Gbreve" unicode="&#x11e;" horiz-adv-x="816" 
d="M413 753q-68 0 -110.5 38t-43.5 104h91q5 -70 63 -70q30 0 48 18.5t19 51.5h89q-1 -66 -44 -104t-112 -38zM407 367h324v-367h-93l-5 105q-68 -115 -225 -115q-156 0 -250 100t-94 261q0 160 95 260.5t251 100.5q127 0 210 -65.5t106 -181.5h-127q-19 69 -67 108.5
t-123 39.5q-100 0 -160.5 -74t-60.5 -188q0 -117 61 -189.5t165 -72.5q83 0 142.5 49.5t66.5 134.5h-216v94z" />
    <glyph glyph-name="gbreve" unicode="&#x11f;" horiz-adv-x="623" 
d="M301 564q-68 0 -109.5 38t-42.5 106h89q0 -35 17.5 -54t45.5 -19q29 0 48 19.5t19 53.5h87q-1 -68 -43 -106t-111 -38zM436 504h112v-506q0 -92 -70 -150t-180 -58q-105 0 -173.5 50.5t-77.5 137.5h118q8 -46 44 -72.5t92 -26.5q59 0 97 31.5t38 83.5v91h-1
q-20 -32 -61.5 -53t-95.5 -21q-106 0 -173 72t-67 182q0 111 66.5 181t171.5 70q106 0 159 -77h1v65zM295 99q64 0 105.5 47t41.5 120v7q0 66 -41.5 109.5t-105.5 43.5q-66 0 -106.5 -44.5t-40.5 -114.5q0 -72 41 -120t106 -48z" />
    <glyph glyph-name="Gdotaccent" unicode="&#x120;" horiz-adv-x="816" 
d="M479 884v-115h-130v115h130zM407 367h324v-367h-93l-5 105q-68 -115 -225 -115q-156 0 -250 100t-94 261q0 160 95 260.5t251 100.5q127 0 210 -65.5t106 -181.5h-127q-19 69 -67 108.5t-123 39.5q-100 0 -160.5 -74t-60.5 -188q0 -117 61 -189.5t165 -72.5
q83 0 142.5 49.5t66.5 134.5h-216v94z" />
    <glyph glyph-name="gdotaccent" unicode="&#x121;" horiz-adv-x="623" 
d="M370 709v-117h-135v117h135zM436 504h112v-506q0 -92 -70 -150t-180 -58q-105 0 -173.5 50.5t-77.5 137.5h118q8 -46 44 -72.5t92 -26.5q59 0 97 31.5t38 83.5v91h-1q-20 -32 -61.5 -53t-95.5 -21q-106 0 -173 72t-67 182q0 111 66.5 181t171.5 70q106 0 159 -77h1v65z
M295 99q64 0 105.5 47t41.5 120v7q0 66 -41.5 109.5t-105.5 43.5q-66 0 -106.5 -44.5t-40.5 -114.5q0 -72 41 -120t106 -48z" />
    <glyph glyph-name="Gcommaaccent" unicode="&#x122;" horiz-adv-x="816" 
d="M407 367h324v-367h-93l-5 105q-68 -115 -225 -115q-156 0 -250 100t-94 261q0 160 95 260.5t251 100.5q127 0 210 -65.5t106 -181.5h-127q-19 69 -67 108.5t-123 39.5q-100 0 -160.5 -74t-60.5 -188q0 -117 61 -189.5t165 -72.5q83 0 142.5 49.5t66.5 134.5h-216v94z
M324 -193l30 141h132l-83 -141h-79z" />
    <glyph glyph-name="gcommaaccent" unicode="&#x123;" horiz-adv-x="623" 
d="M396 701l-30 -141h-132l83 141h79zM436 504h112v-506q0 -92 -70 -150t-180 -58q-105 0 -173.5 50.5t-77.5 137.5h118q8 -46 44 -72.5t92 -26.5q59 0 97 31.5t38 83.5v91h-1q-20 -32 -61.5 -53t-95.5 -21q-106 0 -173 72t-67 182q0 111 66.5 181t171.5 70q106 0 159 -77h1
v65zM295 99q64 0 105.5 47t41.5 120v7q0 66 -41.5 109.5t-105.5 43.5q-66 0 -106.5 -44.5t-40.5 -114.5q0 -72 41 -120t106 -48z" />
    <glyph glyph-name="Hbar" unicode="&#x126;" horiz-adv-x="778" 
d="M744 580v-67h-65v-513h-121v305h-338v-305h-121v513h-68v67h68v120h121v-120h338v120h121v-120h65zM558 405v108h-338v-108h338z" />
    <glyph glyph-name="hbar" unicode="&#x127;" horiz-adv-x="620" 
d="M357 516q90 0 139 -57.5t49 -155.5v-303h-111v288q0 60 -27.5 95t-75.5 35q-64 0 -102 -43t-38 -114v-261h-112v564h-84v67h84v69h112v-69h200v-67h-200v-155q48 107 166 107z" />
    <glyph glyph-name="Imacron" unicode="&#x12a;" horiz-adv-x="319" 
d="M22 784v82h276v-82h-276zM99 700h121v-700h-121v700z" />
    <glyph glyph-name="imacron" unicode="&#x12b;" horiz-adv-x="241" 
d="M1 678h240v-82h-240v82zM65 0v504h111v-504h-111z" />
    <glyph glyph-name="Iogonek" unicode="&#x12e;" horiz-adv-x="319" 
d="M189 -110q30 0 55 10v-80q-41 -11 -83 -11q-51 0 -86.5 25.5t-35.5 63.5q0 59 77 102h-17v700h121v-700l-38.5 -27.5t-21.5 -22t-10 -27.5q0 -15 11 -24t28 -9z" />
    <glyph glyph-name="iogonek" unicode="&#x12f;" horiz-adv-x="258" 
d="M202 709v-117h-137v117h137zM158 -110q30 0 55 10v-80q-41 -11 -83 -11q-51 0 -86.5 25.5t-35.5 63.5q0 59 77 102h-8v504h112v-504l-38.5 -27.5t-21.5 -22t-10 -27.5q0 -15 11 -24t28 -9z" />
    <glyph glyph-name="Idotaccent" unicode="&#x130;" horiz-adv-x="319" 
d="M93 769v115h136v-115h-136zM99 700h121v-700h-121v700z" />
    <glyph glyph-name="dotlessi" unicode="&#x131;" horiz-adv-x="241" 
d="M65 0v504h111v-504h-111z" />
    <glyph glyph-name="IJ" unicode="&#x132;" horiz-adv-x="867" 
d="M99 700h121v-700h-121v700zM368 127q80 -37 141 -37q64 0 104 36t40 92v482h120v-481q0 -101 -69.5 -165t-185.5 -64q-76 0 -150 24v113z" />
    <glyph glyph-name="ij" unicode="&#x133;" horiz-adv-x="540" 
d="M65 592v117h137v-117h-137zM338 592v117h137v-117h-137zM77 0v504h112v-504h-112zM194 -104q54 -20 88 -20q30 0 49.5 19t19.5 49v560h112v-557q0 -70 -45.5 -115t-116.5 -45q-50 0 -107 16v93z" />
    <glyph glyph-name="Kcommaaccent" unicode="&#x136;" horiz-adv-x="737" 
d="M462 356l234 -356h-142l-190 304h-144v-304h-121v700h121v-294h144l190 294h133zM263 -193l30 141h132l-83 -141h-79z" />
    <glyph glyph-name="kcommaaccent" unicode="&#x137;" horiz-adv-x="580" 
d="M390 286l182 -286h-131l-138 233h-112v-233h-112v700h112v-367h111l122 171h130zM216 -193l30 141h132l-83 -141h-79z" />
    <glyph glyph-name="Lacute" unicode="&#x139;" horiz-adv-x="637" 
d="M322 896l-114 -140h-93l50 140h157zM220 100h355v-100h-476v700h121v-600z" />
    <glyph glyph-name="lacute" unicode="&#x13a;" horiz-adv-x="266" 
d="M92 756l47 149h152l-114 -149h-85zM77 700h112v-700h-112v700z" />
    <glyph glyph-name="Lcommaaccent" unicode="&#x13b;" horiz-adv-x="637" 
d="M220 100h355v-100h-476v700h121v-600zM246 -193l30 141h132l-83 -141h-79z" />
    <glyph glyph-name="lcommaaccent" unicode="&#x13c;" horiz-adv-x="266" 
d="M77 700h112v-700h-112v700zM36 -193l30 141h132l-83 -141h-79z" />
    <glyph glyph-name="Lcaron" unicode="&#x13d;" horiz-adv-x="637" 
d="M220 100h355v-100h-476v700h121v-600zM474 700l-55 -211h-77l18 211h114z" />
    <glyph glyph-name="lcaron" unicode="&#x13e;" horiz-adv-x="266" 
d="M77 700h112v-700h-112v700zM254 700h108l-52 -139h-74z" />
    <glyph glyph-name="Lslash" unicode="&#x141;" horiz-adv-x="667" 
d="M250 100h355v-100h-476v257l-94 -45v94l94 45v349h121v-291l192 92v-95l-192 -92v-214z" />
    <glyph glyph-name="lslash" unicode="&#x142;" horiz-adv-x="264" 
d="M241 453v-91l-52 -23v-339h-112v290l-46 -20v91l46 20v319h112v-270z" />
    <glyph glyph-name="Nacute" unicode="&#x143;" horiz-adv-x="778" 
d="M550 896l-114 -140h-93l50 140h157zM559 700h120v-700h-109l-351 502v-502h-120v700h111l349 -505v505z" />
    <glyph glyph-name="nacute" unicode="&#x144;" horiz-adv-x="620" 
d="M463 709l-114 -149h-85l47 149h152zM357 516q90 0 139 -57.5t49 -155.5v-303h-111v288q0 60 -27.5 95t-75.5 35q-64 0 -102 -43t-38 -114v-261h-112v504h112v-95q48 107 166 107z" />
    <glyph glyph-name="Ncommaaccent" unicode="&#x145;" horiz-adv-x="778" 
d="M559 700h120v-700h-109l-351 502v-502h-120v700h111l349 -505v505zM302 -193l30 141h132l-83 -141h-79z" />
    <glyph glyph-name="ncommaaccent" unicode="&#x146;" horiz-adv-x="620" 
d="M357 516q90 0 139 -57.5t49 -155.5v-303h-111v288q0 60 -27.5 95t-75.5 35q-64 0 -102 -43t-38 -114v-261h-112v504h112v-95q48 107 166 107zM222 -193l30 141h132l-83 -141h-79z" />
    <glyph glyph-name="Ncaron" unicode="&#x147;" horiz-adv-x="778" 
d="M446 756h-133l-102 140h99l70 -73l69 73h99zM559 700h120v-700h-109l-351 502v-502h-120v700h111l349 -505v505z" />
    <glyph glyph-name="ncaron" unicode="&#x148;" horiz-adv-x="620" 
d="M373 560h-125l-84 146h83l64 -78l63 78h83zM357 516q90 0 139 -57.5t49 -155.5v-303h-111v288q0 60 -27.5 95t-75.5 35q-64 0 -102 -43t-38 -114v-261h-112v504h112v-95q48 107 166 107z" />
    <glyph glyph-name="Eng" unicode="&#x14a;" horiz-adv-x="778" 
d="M559 700h120v-749q0 -71 -47 -117.5t-119 -46.5q-51 0 -108 16v95q55 -18 89 -18q28 0 46.5 19.5t18.5 48.5v68l-340 486v-502h-120v700h111l349 -505v505z" />
    <glyph glyph-name="eng" unicode="&#x14b;" horiz-adv-x="620" 
d="M357 516q90 0 139 -57.5t49 -155.5v-356q0 -70 -45 -115t-115 -45q-50 0 -107 16v97q53 -21 88 -21q30 0 49 19t19 48v342q0 60 -27.5 95t-75.5 35q-64 0 -102 -43t-38 -114v-261h-112v504h112v-95q48 107 166 107z" />
    <glyph glyph-name="Omacron" unicode="&#x14c;" horiz-adv-x="826" 
d="M275 784v82h276v-82h-276zM413 712q157 0 253 -101t96 -262q0 -159 -96 -259.5t-253 -100.5t-253 100.5t-96 259.5q0 161 96 262t253 101zM413 611q-101 0 -162.5 -73t-61.5 -189q0 -114 61.5 -186.5t162.5 -72.5t162.5 72.5t61.5 186.5q0 116 -61.5 189t-162.5 73z" />
    <glyph glyph-name="omacron" unicode="&#x14d;" horiz-adv-x="598" 
d="M179 678h240v-82h-240v82zM299 516q116 0 186 -73.5t70 -190.5t-70 -190.5t-186 -73.5q-115 0 -185.5 73.5t-70.5 190.5t70.5 190.5t185.5 73.5zM299 425q-67 0 -107 -48.5t-40 -124.5t40 -124.5t107 -48.5q68 0 108 48.5t40 124.5t-40 124.5t-108 48.5z" />
    <glyph glyph-name="Ohungarumlaut" unicode="&#x150;" horiz-adv-x="826" 
d="M274 756l58 140h147l-110 -140h-95zM476 756l58 140h147l-110 -140h-95zM413 712q157 0 253 -101t96 -262q0 -159 -96 -259.5t-253 -100.5t-253 100.5t-96 259.5q0 161 96 262t253 101zM413 611q-101 0 -162.5 -73t-61.5 -189q0 -114 61.5 -186.5t162.5 -72.5t162.5 72.5
t61.5 186.5q0 116 -61.5 189t-162.5 73z" />
    <glyph glyph-name="ohungarumlaut" unicode="&#x151;" horiz-adv-x="598" 
d="M165 561l58 148h143l-110 -148h-91zM347 561l58 148h143l-110 -148h-91zM299 516q116 0 186 -73.5t70 -190.5t-70 -190.5t-186 -73.5q-115 0 -185.5 73.5t-70.5 190.5t70.5 190.5t185.5 73.5zM299 425q-67 0 -107 -48.5t-40 -124.5t40 -124.5t107 -48.5q68 0 108 48.5
t40 124.5t-40 124.5t-108 48.5z" />
    <glyph glyph-name="OE" unicode="&#x152;" horiz-adv-x="1123" 
d="M1060 603h-390v-194h365v-95h-365v-217h390v-97h-625q-169 0 -270 98t-101 253q0 154 101 251.5t270 97.5h625v-97zM549 100v500h-124q-109 0 -172.5 -69t-63.5 -180q0 -112 63.5 -181.5t172.5 -69.5h124z" />
    <glyph glyph-name="oe" unicode="&#x153;" horiz-adv-x="979" 
d="M937 229h-377v-4q4 -67 42 -108t95 -41q92 0 121 86h115q-22 -83 -83.5 -128.5t-150.5 -45.5q-130 0 -199 91q-70 -91 -201 -91q-115 0 -185.5 73.5t-70.5 190.5t70.5 190.5t185.5 73.5q131 0 202 -93q71 93 198 93q113 0 175.5 -74t62.5 -194v-19zM699 431
q-56 0 -91.5 -34.5t-44.5 -96.5h265q-2 59 -36 95t-93 36zM299 79q68 0 108 48.5t40 124.5t-40 124.5t-108 48.5q-67 0 -107 -48.5t-40 -124.5t40 -124.5t107 -48.5z" />
    <glyph glyph-name="Racute" unicode="&#x154;" horiz-adv-x="728" 
d="M527 896l-114 -140h-93l50 140h157zM692 0h-138l-153 303h-181v-303h-121v700h340q99 0 163 -54.5t64 -139.5q0 -71 -41.5 -122.5t-111.5 -70.5zM220 607v-212h208q51 0 84 31.5t33 79.5q0 44 -33 72.5t-84 28.5h-208z" />
    <glyph glyph-name="racute" unicode="&#x155;" horiz-adv-x="441" 
d="M384 709l-114 -149h-85l47 149h152zM191 371q50 138 224 138v-120q-118 12 -171 -33t-53 -153v-203h-112v504h112v-133z" />
    <glyph glyph-name="Rcommaaccent" unicode="&#x156;" horiz-adv-x="728" 
d="M513 313l179 -313h-138l-153 303h-181v-303h-121v700h340q99 0 163 -54.5t64 -139.5q0 -71 -41.5 -122.5t-111.5 -70.5zM220 607v-212h208q51 0 84 31.5t33 79.5q0 44 -33 72.5t-84 28.5h-208zM292 -193l30 141h132l-83 -141h-79z" />
    <glyph glyph-name="rcommaaccent" unicode="&#x157;" horiz-adv-x="441" 
d="M191 371q50 138 224 138v-120q-118 12 -171 -33t-53 -153v-203h-112v504h112v-133zM40 -193l30 141h132l-83 -141h-79z" />
    <glyph glyph-name="Rcaron" unicode="&#x158;" horiz-adv-x="728" 
d="M423 756h-133l-102 140h99l70 -73l69 73h99zM692 0h-138l-153 303h-181v-303h-121v700h340q99 0 163 -54.5t64 -139.5q0 -71 -41.5 -122.5t-111.5 -70.5zM220 607v-212h208q51 0 84 31.5t33 79.5q0 44 -33 72.5t-84 28.5h-208z" />
    <glyph glyph-name="rcaron" unicode="&#x159;" horiz-adv-x="441" 
d="M294 560h-125l-84 146h83l64 -78l63 78h83zM191 371q50 138 224 138v-120q-118 12 -171 -33t-53 -153v-203h-112v504h112v-133z" />
    <glyph glyph-name="Sacute" unicode="&#x15a;" horiz-adv-x="697" 
d="M313 756l50 140h157l-114 -140h-93zM191 259q5 -83 52.5 -128.5t122.5 -45.5q62 0 103.5 28.5t41.5 78.5q0 21 -9 37t-21 27t-36.5 21t-43.5 15.5t-54 14.5l-56 15t-51.5 16t-49.5 20.5t-39 25t-33 32.5t-19 41t-8 53q0 96 67.5 149t186.5 53q122 0 193.5 -59t81.5 -177
h-122q-12 142 -149 142q-63 0 -101 -27.5t-38 -75.5q0 -40 33.5 -62.5t136.5 -51.5q4 -1 30 -8t34 -9t32.5 -10t34.5 -13l30.5 -15t29.5 -19.5l23 -23.5t20 -29t11 -35t5 -42q0 -93 -72 -150t-193 -57q-133 0 -213 71.5t-85 197.5h124z" />
    <glyph glyph-name="sacute" unicode="&#x15b;" horiz-adv-x="507" 
d="M209 560l47 149h152l-114 -149h-85zM361 343q-14 90 -111 90q-41 0 -66.5 -18t-25.5 -45q0 -13 5.5 -22.5t12.5 -16t25.5 -12.5t31 -9.5t42.5 -10.5q102 -24 133 -41q61 -34 61 -111q0 -78 -54.5 -118.5t-150.5 -40.5q-103 0 -163 50t-65 141h104q5 -50 37 -78.5
t87 -28.5q98 0 98 70q0 31 -23 42.5t-97 28.5q-35 8 -44.5 10.5t-37.5 11t-37.5 14.5l-27.5 18t-24.5 24.5t-12.5 31.5t-6 42q0 76 54.5 113.5t144.5 37.5q95 0 149 -44t63 -129h-102z" />
    <glyph glyph-name="Scedilla" unicode="&#x15e;" horiz-adv-x="697" 
d="M630 197q0 -88 -64.5 -144t-175.5 -62l-36 -45h6q43 0 70.5 -23t27.5 -59q0 -37 -30 -61t-75 -24q-46 0 -77 26t-36 67l73 8q1 -19 11.5 -29.5t25.5 -10.5q14 0 23 7t9 19q0 31 -50 31h-34l-17 40l49 54q-118 10 -188 80t-75 188h124q5 -83 52.5 -128.5t122.5 -45.5
q62 0 103.5 28.5t41.5 78.5q0 21 -9 37t-21 27t-36.5 21t-43.5 15.5t-54 14.5l-56 15t-51.5 16t-49.5 20.5t-39 25t-33 32.5t-19 41t-8 53q0 96 67.5 149t186.5 53q122 0 193.5 -59t81.5 -177h-122q-12 142 -149 142q-63 0 -101 -27.5t-38 -75.5q0 -40 33.5 -62.5
t136.5 -51.5q4 -1 30 -8t34 -9t32.5 -10t34.5 -13l30.5 -15t29.5 -19.5l23 -23.5t20 -29t11 -35t5 -42z" />
    <glyph glyph-name="scedilla" unicode="&#x15f;" horiz-adv-x="507" 
d="M469 147q0 -74 -48.5 -114t-134.5 -44l-34 -43h6q43 0 70.5 -23t27.5 -59q0 -37 -30 -61t-75 -24q-46 0 -77 26t-36 67l73 8q1 -19 11.5 -29.5t25.5 -10.5q14 0 23 7t9 19q0 31 -50 31h-34l-17 40l48 53q-87 9 -137 58t-54 131h104q5 -50 37 -78.5t87 -28.5q98 0 98 70
q0 31 -23 42.5t-97 28.5q-35 8 -44.5 10.5t-37.5 11t-37.5 14.5l-27.5 18t-24.5 24.5t-12.5 31.5t-6 42q0 76 54.5 113.5t144.5 37.5q95 0 149 -44t63 -129h-102q-14 90 -111 90q-41 0 -66.5 -18t-25.5 -45q0 -13 5.5 -22.5t12.5 -16t25.5 -12.5t31 -9.5t42.5 -10.5
q102 -24 133 -41q61 -34 61 -111z" />
    <glyph glyph-name="Scaron" unicode="&#x160;" horiz-adv-x="697" 
d="M518 896l-102 -140h-133l-102 140h99l70 -73l69 73h99zM191 259q5 -83 52.5 -128.5t122.5 -45.5q62 0 103.5 28.5t41.5 78.5q0 21 -9 37t-21 27t-36.5 21t-43.5 15.5t-54 14.5l-56 15t-51.5 16t-49.5 20.5t-39 25t-33 32.5t-19 41t-8 53q0 96 67.5 149t186.5 53
q122 0 193.5 -59t81.5 -177h-122q-12 142 -149 142q-63 0 -101 -27.5t-38 -75.5q0 -40 33.5 -62.5t136.5 -51.5q4 -1 30 -8t34 -9t32.5 -10t34.5 -13l30.5 -15t29.5 -19.5l23 -23.5t20 -29t11 -35t5 -42q0 -93 -72 -150t-193 -57q-133 0 -213 71.5t-85 197.5h124z" />
    <glyph glyph-name="scaron" unicode="&#x161;" horiz-adv-x="507" 
d="M402 706l-84 -146h-125l-84 146h83l64 -78l63 78h83zM361 343q-14 90 -111 90q-41 0 -66.5 -18t-25.5 -45q0 -13 5.5 -22.5t12.5 -16t25.5 -12.5t31 -9.5t42.5 -10.5q102 -24 133 -41q61 -34 61 -111q0 -78 -54.5 -118.5t-150.5 -40.5q-103 0 -163 50t-65 141h104
q5 -50 37 -78.5t87 -28.5q98 0 98 70q0 31 -23 42.5t-97 28.5q-35 8 -44.5 10.5t-37.5 11t-37.5 14.5l-27.5 18t-24.5 24.5t-12.5 31.5t-6 42q0 76 54.5 113.5t144.5 37.5q95 0 149 -44t63 -129h-102z" />
    <glyph glyph-name="uni0162" unicode="&#x162;" horiz-adv-x="631" 
d="M376 0h-15l-43 -54h6q43 0 70.5 -23t27.5 -59q0 -37 -30 -61t-75 -24q-46 0 -77 26t-36 67l73 8q1 -19 11.5 -29.5t25.5 -10.5q14 0 23 7t9 19q0 31 -50 31h-34l-17 40l57 63h-47v600h-229v100h579v-100h-229v-600z" />
    <glyph glyph-name="uni0163" unicode="&#x163;" horiz-adv-x="436" 
d="M413 414h-186v-237q0 -43 23.5 -66.5t67.5 -23.5q43 0 85 21v-96q-39 -21 -96 -21h-1l-36 -45h6q43 0 70.5 -23t27.5 -59q0 -37 -30 -61t-75 -24q-46 0 -77 26t-36 67l73 8q1 -19 11.5 -29.5t25.5 -10.5q14 0 23 7t9 19q0 31 -50 31h-34l-17 40l54 60q-64 14 -100 59
t-36 111v247h-98v90h1q53 0 75 20t22 68v68h112v-156h186v-90z" />
    <glyph glyph-name="Tcaron" unicode="&#x164;" horiz-adv-x="631" 
d="M382 756h-133l-102 140h99l70 -73l69 73h99zM605 700v-100h-229v-600h-121v600h-229v100h579z" />
    <glyph glyph-name="tcaron" unicode="&#x165;" horiz-adv-x="436" 
d="M404 700l-52 -139h-74l18 139h108zM413 414h-186v-237q0 -43 23.5 -66.5t67.5 -23.5q43 0 85 21v-96q-39 -21 -96 -21q-88 0 -140 48t-52 128v247h-98v90h1q53 0 75 20t22 68v68h112v-156h186v-90z" />
    <glyph glyph-name="Tbar" unicode="&#x166;" horiz-adv-x="631" 
d="M605 600h-229v-209h141v-83h-141v-308h-121v308h-142v83h142v209h-229v100h579v-100z" />
    <glyph glyph-name="tbar" unicode="&#x167;" horiz-adv-x="436" 
d="M413 414h-186v-97h175v-67h-175v-73q0 -43 23.5 -66.5t67.5 -23.5q43 0 85 21v-96q-39 -21 -96 -21q-88 0 -140 48t-52 128v83h-89v67h89v97h-98v90h1q53 0 75 20t22 68v68h112v-156h186v-90z" />
    <glyph glyph-name="Umacron" unicode="&#x16a;" horiz-adv-x="774" 
d="M525 866v-82h-276v82h276zM559 700h121v-433q0 -125 -80.5 -200.5t-212.5 -75.5t-212.5 75.5t-80.5 200.5v433h121v-435q0 -79 47 -126t125 -47t125 47t47 126v435z" />
    <glyph glyph-name="umacron" unicode="&#x16b;" horiz-adv-x="616" 
d="M419 678v-82h-240v82h240zM537 504v-504h-112v88q-49 -99 -163 -99q-90 0 -140.5 57.5t-50.5 158.5v299h112v-288q0 -60 27.5 -95t75.5 -35q64 0 101.5 43t37.5 114v261h112z" />
    <glyph glyph-name="Uring" unicode="&#x16e;" horiz-adv-x="774" 
d="M389 720q-46 0 -79 30t-33 76q0 45 33 75t79 30t79 -30t33 -75q0 -46 -33 -76t-79 -30zM389 879q-22 0 -37 -15t-15 -38t15 -38.5t37 -15.5t37 15.5t15 38.5t-15 38t-37 15zM559 700h121v-433q0 -125 -80.5 -200.5t-212.5 -75.5t-212.5 75.5t-80.5 200.5v433h121v-435
q0 -79 47 -126t125 -47t125 47t47 126v435z" />
    <glyph glyph-name="uring" unicode="&#x16f;" horiz-adv-x="616" 
d="M301 547q-45 0 -78 30t-33 75t33 75t78 30t78 -30t33 -75t-33 -75t-78 -30zM301 706q-22 0 -37 -15.5t-15 -38.5t15 -38.5t37 -15.5t37 15.5t15 38.5t-15 38.5t-37 15.5zM537 504v-504h-112v88q-49 -99 -163 -99q-90 0 -140.5 57.5t-50.5 158.5v299h112v-288
q0 -60 27.5 -95t75.5 -35q64 0 101.5 43t37.5 114v261h112z" />
    <glyph glyph-name="Uhungarumlaut" unicode="&#x170;" horiz-adv-x="774" 
d="M431 896l-110 -140h-95l58 140h147zM523 756h-95l58 140h147zM559 700h121v-433q0 -125 -80.5 -200.5t-212.5 -75.5t-212.5 75.5t-80.5 200.5v433h121v-435q0 -79 47 -126t125 -47t125 47t47 126v435z" />
    <glyph glyph-name="uhungarumlaut" unicode="&#x171;" horiz-adv-x="616" 
d="M353 709l-110 -148h-91l58 148h143zM425 561h-91l58 148h143zM537 504v-504h-112v88q-49 -99 -163 -99q-90 0 -140.5 57.5t-50.5 158.5v299h112v-288q0 -60 27.5 -95t75.5 -35q64 0 101.5 43t37.5 114v261h112z" />
    <glyph glyph-name="Uogonek" unicode="&#x172;" horiz-adv-x="774" 
d="M559 700h121v-433q0 -141 -102 -218l-32 -29.5l-26.5 -24.5l-19.5 -18.5t-15.5 -16.5l-9.5 -13t-6.5 -12.5t-1.5 -11.5q0 -15 11 -24t28 -9q30 0 55 10v-80q-41 -11 -83 -11q-50 0 -86 25.5t-36 63.5q0 48 65 94q-11 -1 -34 -1q-132 0 -212.5 75.5t-80.5 200.5v433h121
v-435q0 -79 47 -126t125 -47t125 47t47 126v435z" />
    <glyph glyph-name="uogonek" unicode="&#x173;" horiz-adv-x="616" 
d="M506 -110q30 0 55 10v-80q-41 -11 -83 -11q-51 0 -86.5 25.5t-35.5 63.5q0 59 77 102h-8v88q-49 -99 -163 -99q-90 0 -140.5 57.5t-50.5 158.5v299h112v-288q0 -60 27.5 -95t75.5 -35q64 0 101.5 43t37.5 114v261h112v-504l-38.5 -27.5t-21.5 -22t-10 -27.5q0 -15 11 -24
t28 -9z" />
    <glyph glyph-name="Wcircumflex" unicode="&#x174;" horiz-adv-x="1042" 
d="M521 829l-70 -73h-99l102 140h133l102 -140h-99zM880 700h122l-199 -700h-117l-166 525l-163 -525h-118l-199 700h122l140 -535l173 535h93l172 -535z" />
    <glyph glyph-name="wcircumflex" unicode="&#x175;" horiz-adv-x="767" 
d="M384 638l-64 -78h-83l84 146h125l84 -146h-83zM642 504h117l-158 -504h-105l-112 373l-113 -373h-104l-159 504h117l101 -361l110 361h95l111 -361z" />
    <glyph glyph-name="Ycircumflex" unicode="&#x176;" horiz-adv-x="733" 
d="M366 829l-70 -73h-99l102 140h133l102 -140h-99zM692 700l-265 -432v-268h-121v267l-266 433h137l189 -327l190 327h136z" />
    <glyph glyph-name="ycircumflex" unicode="&#x177;" horiz-adv-x="543" 
d="M285 638l-64 -78h-83l84 146h125l84 -146h-83zM416 504h119l-215 -573q-25 -69 -79 -106.5t-124 -37.5q-63 0 -125 28v102q65 -36 125 -36q38 0 67.5 22.5t42.5 59.5l6 17l-225 524h125l149 -385z" />
    <glyph glyph-name="Ydieresis" unicode="&#x178;" horiz-adv-x="733" 
d="M313 884v-116h-124v116h124zM543 884v-116h-124v116h124zM692 700l-265 -432v-268h-121v267l-266 433h137l189 -327l190 327h136z" />
    <glyph glyph-name="Zacute" unicode="&#x179;" horiz-adv-x="690" 
d="M515 896l-114 -140h-93l50 140h157zM207 98h422v-98h-568v90l420 512h-420v98h563v-89z" />
    <glyph glyph-name="zacute" unicode="&#x17a;" horiz-adv-x="546" 
d="M418 709l-114 -149h-85l47 149h152zM196 90h297v-90h-440v76l296 338h-296v90h432v-78z" />
    <glyph glyph-name="Zdotaccent" unicode="&#x17b;" horiz-adv-x="690" 
d="M411 884v-115h-130v115h130zM207 98h422v-98h-568v90l420 512h-420v98h563v-89z" />
    <glyph glyph-name="zdotaccent" unicode="&#x17c;" horiz-adv-x="546" 
d="M335 709v-117h-135v117h135zM196 90h297v-90h-440v76l296 338h-296v90h432v-78z" />
    <glyph glyph-name="Zcaron" unicode="&#x17d;" horiz-adv-x="690" 
d="M411 756h-133l-102 140h99l70 -73l69 73h99zM207 98h422v-98h-568v90l420 512h-420v98h563v-89z" />
    <glyph glyph-name="zcaron" unicode="&#x17e;" horiz-adv-x="546" 
d="M328 560h-125l-84 146h83l64 -78l63 78h83zM196 90h297v-90h-440v76l296 338h-296v90h432v-78z" />
    <glyph glyph-name="Scommaaccent" unicode="&#x218;" horiz-adv-x="697" 
d="M191 259q5 -83 52.5 -128.5t122.5 -45.5q62 0 103.5 28.5t41.5 78.5q0 21 -9 37t-21 27t-36.5 21t-43.5 15.5t-54 14.5l-56 15t-51.5 16t-49.5 20.5t-39 25t-33 32.5t-19 41t-8 53q0 96 67.5 149t186.5 53q122 0 193.5 -59t81.5 -177h-122q-12 142 -149 142
q-63 0 -101 -27.5t-38 -75.5q0 -40 33.5 -62.5t136.5 -51.5q4 -1 30 -8t34 -9t32.5 -10t34.5 -13l30.5 -15t29.5 -19.5l23 -23.5t20 -29t11 -35t5 -42q0 -93 -72 -150t-193 -57q-133 0 -213 71.5t-85 197.5h124zM253 -193l30 141h132l-83 -141h-79z" />
    <glyph glyph-name="scommaaccent" unicode="&#x219;" horiz-adv-x="507" 
d="M361 343q-14 90 -111 90q-41 0 -66.5 -18t-25.5 -45q0 -13 5.5 -22.5t12.5 -16t25.5 -12.5t31 -9.5t42.5 -10.5q102 -24 133 -41q61 -34 61 -111q0 -78 -54.5 -118.5t-150.5 -40.5q-103 0 -163 50t-65 141h104q5 -50 37 -78.5t87 -28.5q98 0 98 70q0 31 -23 42.5
t-97 28.5q-35 8 -44.5 10.5t-37.5 11t-37.5 14.5l-27.5 18t-24.5 24.5t-12.5 31.5t-6 42q0 76 54.5 113.5t144.5 37.5q95 0 149 -44t63 -129h-102zM159 -193l30 141h132l-83 -141h-79z" />
    <glyph glyph-name="uni021A" unicode="&#x21a;" horiz-adv-x="631" 
d="M26 700h579v-100h-229v-600h-121v600h-229v100zM217 -193l30 141h132l-83 -141h-79z" />
    <glyph glyph-name="uni021B" unicode="&#x21b;" horiz-adv-x="436" 
d="M413 414h-186v-237q0 -43 23.5 -66.5t67.5 -23.5q43 0 85 21v-96q-39 -21 -96 -21q-88 0 -140 48t-52 128v247h-98v90h1q53 0 75 20t22 68v68h112v-156h186v-90zM169 -193l30 141h132l-83 -141h-79z" />
    <glyph glyph-name="circumflex" unicode="&#x2c6;" horiz-adv-x="440" 
d="M366 560h-83l-63 78l-64 -78h-83l84 146h125z" />
    <glyph glyph-name="caron" unicode="&#x2c7;" horiz-adv-x="440" 
d="M366 706l-84 -146h-125l-84 146h83l64 -78l63 78h83z" />
    <glyph glyph-name="breve" unicode="&#x2d8;" horiz-adv-x="440" 
d="M220 564q-68 0 -109.5 38t-42.5 106h89q0 -35 17.5 -54t45.5 -19q29 0 48 19.5t19 53.5h87q-1 -68 -43 -106t-111 -38z" />
    <glyph glyph-name="dotaccent" unicode="&#x2d9;" horiz-adv-x="440" 
d="M154 592v117h135v-117h-135z" />
    <glyph glyph-name="ring" unicode="&#x2da;" horiz-adv-x="440" 
d="M222 547q-45 0 -78 30t-33 75t33 75t78 30t78 -30t33 -75t-33 -75t-78 -30zM222 598q22 0 37 15.5t15 38.5t-15 38.5t-37 15.5t-37 -15.5t-15 -38.5t15 -38.5t37 -15.5z" />
    <glyph glyph-name="ogonek" unicode="&#x2db;" horiz-adv-x="440" 
d="M118 -102q0 34 29.5 66t86.5 54l65 -18l-38.5 -27.5t-21.5 -22t-10 -27.5q0 -15 11 -24t28 -9q30 0 55 10v-80q-41 -11 -83 -11q-51 0 -86.5 25.5t-35.5 63.5z" />
    <glyph glyph-name="tilde" unicode="&#x2dc;" horiz-adv-x="440" 
d="M281 576q-32 0 -60.5 18t-43.5 18q-33 0 -35 -35h-78q1 56 31.5 81t75.5 25q32 0 60 -17.5t43 -17.5q20 0 27.5 9t8.5 26h77q0 -56 -29.5 -81.5t-76.5 -25.5z" />
    <glyph glyph-name="hungarumlaut" unicode="&#x2dd;" horiz-adv-x="440" 
d="M35 561l58 148h143l-110 -148h-91zM217 561l58 148h143l-110 -148h-91z" />
    <glyph glyph-name="gravecomb" unicode="&#x300;" horiz-adv-x="0" 
d="M-159 756h-93l-114 140h157z" />
    <glyph glyph-name="acutecomb" unicode="&#x301;" horiz-adv-x="0" 
d="M-283 756l50 140h157l-114 -140h-93z" />
    <glyph glyph-name="uni0302" unicode="&#x302;" horiz-adv-x="0" 
d="M-52 756h-99l-69 73l-70 -73h-99l102 140h133z" />
    <glyph glyph-name="tildecomb" unicode="&#x303;" horiz-adv-x="0" 
d="M-153 758q-34 0 -66.5 18t-49.5 18q-33 0 -35 -35h-78q1 57 31.5 82.5t75.5 25.5q34 0 66 -17.5t49 -17.5q20 0 27.5 9t8.5 26h77q0 -56 -29.5 -82.5t-76.5 -26.5z" />
    <glyph glyph-name="uni0304" unicode="&#x304;" horiz-adv-x="0" 
d="M-358 784v82h276v-82h-276z" />
    <glyph glyph-name="uni0306" unicode="&#x306;" horiz-adv-x="0" 
d="M-220 753q-68 0 -110.5 38t-43.5 104h91q5 -70 63 -70q30 0 48 18.5t19 51.5h89q-1 -66 -44 -104t-112 -38z" />
    <glyph glyph-name="uni0307" unicode="&#x307;" horiz-adv-x="0" 
d="M-284 769v115h130v-115h-130z" />
    <glyph glyph-name="uni0308" unicode="&#x308;" horiz-adv-x="0" 
d="M-397 768v116h124v-116h-124zM-167 768v116h124v-116h-124z" />
    <glyph glyph-name="uni030A" unicode="&#x30a;" horiz-adv-x="0" 
d="M-218 720q-46 0 -79 30t-33 76q0 45 33 75t79 30t79 -30t33 -75q0 -46 -33 -76t-79 -30zM-218 772q22 0 37 15.5t15 38.5t-15 38t-37 15t-37 -15t-15 -38t15 -38.5t37 -15.5z" />
    <glyph glyph-name="uni030B" unicode="&#x30b;" horiz-adv-x="0" 
d="M-419 756l58 140h147l-110 -140h-95zM-217 756l58 140h147l-110 -140h-95z" />
    <glyph glyph-name="uni030C" unicode="&#x30c;" horiz-adv-x="0" 
d="M-52 896l-102 -140h-133l-102 140h99l70 -73l69 73h99z" />
    <glyph glyph-name="uni0312" unicode="&#x312;" horiz-adv-x="0" 
d="M-147 701l-30 -141h-132l83 141h79z" />
    <glyph glyph-name="uni0326" unicode="&#x326;" horiz-adv-x="0" 
d="M-311 -193l30 141h132l-83 -141h-79z" />
    <glyph glyph-name="uni0327" unicode="&#x327;" horiz-adv-x="0" 
d="M-295 -63l57 63h59l-43 -54h6q43 0 70.5 -23t27.5 -59q0 -37 -30 -61t-75 -24q-46 0 -77 26t-36 67l73 8q1 -19 11.5 -29.5t25.5 -10.5q14 0 23 7t9 19q0 31 -50 31h-34z" />
    <glyph glyph-name="uni0328" unicode="&#x328;" horiz-adv-x="0" 
d="M-322 -102q0 41 36.5 72t144.5 95l45 -13l-33 -30.5l-28 -25.5t-20 -19t-16 -16.5t-10 -13t-6.5 -13t-1.5 -11.5q0 -15 11 -24t28 -9q30 0 55 10v-80q-41 -11 -83 -11q-50 0 -86 25.5t-36 63.5z" />
    <glyph glyph-name="uni0335" unicode="&#x335;" horiz-adv-x="0" 
d="M-419 424h396v-67h-396v67z" />
    <glyph glyph-name="uni0336" unicode="&#x336;" horiz-adv-x="0" 
d="M-421 437h404v-94h-404v94z" />
    <glyph glyph-name="uni0337" unicode="&#x337;" horiz-adv-x="0" 
d="M-20 536l49 -43l-447 -517l-48 44z" />
    <glyph glyph-name="uni0338" unicode="&#x338;" horiz-adv-x="0" 
d="M63 731l55 -48l-616 -713l-54 49z" />
    <glyph glyph-name="uni03BC" unicode="&#x3bc;" horiz-adv-x="616" 
d="M537 504v-504h-112v88q-49 -99 -163 -99q-52 0 -89 19v-208h-102v704h112v-288q0 -60 27.5 -95t75.5 -35q64 0 101.5 43t37.5 114v261h112z" />
    <glyph glyph-name="Wgrave" unicode="&#x1e80;" horiz-adv-x="1042" 
d="M558 756h-93l-114 140h157zM880 700h122l-199 -700h-117l-166 525l-163 -525h-118l-199 700h122l140 -535l173 535h93l172 -535z" />
    <glyph glyph-name="wgrave" unicode="&#x1e81;" horiz-adv-x="767" 
d="M421 560h-85l-114 149h152zM642 504h117l-158 -504h-105l-112 373l-113 -373h-104l-159 504h117l101 -361l110 361h95l111 -361z" />
    <glyph glyph-name="Wacute" unicode="&#x1e82;" horiz-adv-x="1042" 
d="M691 896l-114 -140h-93l50 140h157zM880 700h122l-199 -700h-117l-166 525l-163 -525h-118l-199 700h122l140 -535l173 535h93l172 -535z" />
    <glyph glyph-name="wacute" unicode="&#x1e83;" horiz-adv-x="767" 
d="M548 709l-114 -149h-85l47 149h152zM642 504h117l-158 -504h-105l-112 373l-113 -373h-104l-159 504h117l101 -361l110 361h95l111 -361z" />
    <glyph glyph-name="Wdieresis" unicode="&#x1e84;" horiz-adv-x="1042" 
d="M468 884v-116h-124v116h124zM698 884v-116h-124v116h124zM880 700h122l-199 -700h-117l-166 525l-163 -525h-118l-199 700h122l140 -535l173 535h93l172 -535z" />
    <glyph glyph-name="wdieresis" unicode="&#x1e85;" horiz-adv-x="767" 
d="M338 709v-117h-124v117h124zM554 709v-117h-124v117h124zM642 504h117l-158 -504h-105l-112 373l-113 -373h-104l-159 504h117l101 -361l110 361h95l111 -361z" />
    <glyph glyph-name="Ygrave" unicode="&#x1ef2;" horiz-adv-x="733" 
d="M420 756h-93l-114 140h157zM692 700l-265 -432v-268h-121v267l-266 433h137l189 -327l190 327h136z" />
    <glyph glyph-name="ygrave" unicode="&#x1ef3;" horiz-adv-x="543" 
d="M326 560h-85l-114 149h152zM416 504h119l-215 -573q-25 -69 -79 -106.5t-124 -37.5q-63 0 -125 28v102q65 -36 125 -36q38 0 67.5 22.5t42.5 59.5l6 17l-225 524h125l149 -385z" />
    <glyph glyph-name="uni2009" unicode="&#x2009;" horiz-adv-x="104" 
 />
    <glyph glyph-name="endash" unicode="&#x2013;" horiz-adv-x="702" 
d="M57 327h588v-89h-588v89z" />
    <glyph glyph-name="emdash" unicode="&#x2014;" horiz-adv-x="1114" 
d="M57 327h1000v-89h-1000v89z" />
    <glyph glyph-name="quoteleft" unicode="&#x2018;" horiz-adv-x="273" 
d="M210 700l-14 -253h-151l84 253h81z" />
    <glyph glyph-name="quoteright" unicode="&#x2019;" horiz-adv-x="273" 
d="M63 447l14 253h151l-84 -253h-81z" />
    <glyph glyph-name="quotesinglbase" unicode="&#x201a;" horiz-adv-x="273" 
d="M63 -125l14 253h151l-84 -253h-81z" />
    <glyph glyph-name="quotedblleft" unicode="&#x201c;" horiz-adv-x="479" 
d="M210 700l-14 -253h-151l84 253h81zM416 700l-14 -253h-151l84 253h81z" />
    <glyph glyph-name="quotedblright" unicode="&#x201d;" horiz-adv-x="479" 
d="M63 447l14 253h151l-84 -253h-81zM269 447l14 253h151l-84 -253h-81z" />
    <glyph glyph-name="quotedblbase" unicode="&#x201e;" horiz-adv-x="479" 
d="M63 -125l14 253h151l-84 -253h-81zM269 -125l14 253h151l-84 -253h-81z" />
    <glyph glyph-name="dagger" unicode="&#x2020;" horiz-adv-x="402" 
d="M358 627v-80h-116v-292h-82v292h-116v80h116v116h82v-116h116z" />
    <glyph glyph-name="daggerdbl" unicode="&#x2021;" horiz-adv-x="402" 
d="M358 547h-116v-96h116v-80h-116v-116h-82v116h-116v80h116v96h-116v80h116v116h82v-116h116v-80z" />
    <glyph glyph-name="bullet" unicode="&#x2022;" horiz-adv-x="395" 
d="M197 171q-62 0 -106.5 44t-44.5 106v2q0 62 44.5 106t106.5 44q63 0 107.5 -44t44.5 -106v-2q0 -62 -44.5 -106t-107.5 -44z" />
    <glyph glyph-name="ellipsis" unicode="&#x2026;" horiz-adv-x="781" 
d="M65 0v128h130v-128h-130zM325 0v128h130v-128h-130zM586 0v128h130v-128h-130z" />
    <glyph glyph-name="perthousand" unicode="&#x2030;" horiz-adv-x="1287" 
d="M217 713q78 0 128.5 -50.5t50.5 -126.5q0 -77 -50.5 -127.5t-128.5 -50.5t-128.5 50.5t-50.5 127.5q0 76 50.5 126.5t128.5 50.5zM671 712l52 -35l-513 -690l-51 38zM217 642q-42 0 -69 -30t-27 -76q0 -47 27 -77t69 -30t69 30t27 77q0 46 -27 76t-69 30zM666 342
q78 0 128.5 -50t50.5 -126q0 -77 -50.5 -128t-128.5 -51t-128.5 51t-50.5 128q0 76 50.5 126t128.5 50zM1070 342q78 0 128.5 -50t50.5 -126q0 -77 -50.5 -128t-128.5 -51t-128.5 51t-50.5 128q0 76 50.5 126t128.5 50zM666 272q-42 0 -69 -30t-27 -76q0 -47 27 -77t69 -30
t69 30t27 77q0 46 -27 76t-69 30zM1070 272q-42 0 -69 -30t-27 -76q0 -47 27 -77t69 -30t69 30t27 77q0 46 -27 76t-69 30z" />
    <glyph glyph-name="guilsinglleft" unicode="&#x2039;" horiz-adv-x="362" 
d="M167 261l151 -178h-127l-140 178l140 178h127z" />
    <glyph glyph-name="guilsinglright" unicode="&#x203a;" horiz-adv-x="362" 
d="M194 261l-150 178h126l141 -178l-141 -178h-126z" />
    <glyph glyph-name="fraction" unicode="&#x2044;" horiz-adv-x="183" 
d="M324 712l52 -35l-513 -690l-51 38z" />
    <glyph glyph-name="uni2070" unicode="&#x2070;" horiz-adv-x="408" 
d="M203 769q81 0 129 -58.5t48 -148.5t-48 -148.5t-129 -58.5q-80 0 -127.5 59t-47.5 148t47.5 148t127.5 59zM203 700q-41 0 -62.5 -36t-21.5 -102q0 -137 84 -137q86 0 86 137q0 138 -86 138z" />
    <glyph glyph-name="uni2074" unicode="&#x2074;" horiz-adv-x="386" 
d="M365 512v-70h-61v-81h-82v81h-194l-14 57q78 142 94 261h94q-21 -118 -91 -248h112l6 142h75v-142h61z" />
    <glyph glyph-name="uni2075" unicode="&#x2075;" horiz-adv-x="366" 
d="M204 624q57 0 95.5 -37.5t38.5 -94.5q0 -60 -44 -99t-116 -39q-65 0 -107.5 33.5t-50.5 97.5h87q4 -30 24 -46t49 -16q33 0 51.5 18.5t18.5 49.5t-18.5 51.5t-50.5 20.5q-48 0 -69 -38l-81 16l10 219h282v-72h-212l-10 -116q31 52 103 52z" />
    <glyph glyph-name="uni2076" unicode="&#x2076;" horiz-adv-x="374" 
d="M214 626q56 0 95.5 -36.5t39.5 -94.5q0 -61 -44 -100.5t-112 -39.5q-77 0 -122 50q-43 49 -43 144q0 105 43 162.5t121 57.5q23 0 45.5 -5.5t45 -17.5t38 -36t19.5 -57h-88q-3 25 -18.5 37t-37.5 12q-37 0 -56.5 -34.5t-21.5 -90.5q25 49 96 49zM194 422q30 0 50.5 19
t20.5 52t-20 52.5t-51 19.5q-32 0 -52.5 -20t-20.5 -52t21 -51.5t52 -19.5z" />
    <glyph glyph-name="uni2077" unicode="&#x2077;" horiz-adv-x="345" 
d="M18 758h317v-57q-58 -66 -94.5 -154t-40.5 -184h-98v4q8 181 145 318h-229v73z" />
    <glyph glyph-name="uni2078" unicode="&#x2078;" horiz-adv-x="369" 
d="M256 577q89 -21 89 -102q0 -55 -45 -86t-116 -31q-70 0 -114.5 31t-44.5 86q0 81 88 102q-74 19 -74 88q0 50 41 77t104 27q64 0 104.5 -27t40.5 -77q0 -69 -73 -88zM184 707q-27 0 -45.5 -14.5t-18.5 -38.5t18.5 -39t45.5 -15t46 15t19 39t-19.5 38.5t-45.5 14.5z
M184 424q30 0 50 15.5t20 41.5t-20 44t-50 18q-29 0 -48.5 -17.5t-19.5 -43.5q0 -27 19 -42.5t49 -15.5z" />
    <glyph glyph-name="uni2079" unicode="&#x2079;" horiz-adv-x="374" 
d="M302 719q44 -50 44 -145q0 -103 -43.5 -161t-121.5 -58q-58 0 -98.5 30t-48.5 87h87q7 -49 57 -49q37 0 56.5 34.5t21.5 91.5q-26 -51 -96 -51q-56 0 -95.5 37t-39.5 94q0 61 44 100.5t112 39.5q76 0 121 -50zM180 560q32 0 52.5 20t20.5 51q0 32 -21 52t-52 20
t-51.5 -19.5t-20.5 -52.5q0 -32 20.5 -51.5t51.5 -19.5z" />
    <glyph glyph-name="uni2080" unicode="&#x2080;" horiz-adv-x="408" 
d="M203 212q81 0 129 -59t48 -149q0 -89 -48 -147.5t-129 -58.5q-80 0 -127.5 58.5t-47.5 147.5q0 90 47.5 149t127.5 59zM203 142q-84 0 -84 -138q0 -65 21.5 -100.5t62.5 -35.5q86 0 86 136q0 138 -86 138z" />
    <glyph glyph-name="uni2081" unicode="&#x2081;" horiz-adv-x="297" 
d="M172 200h68v-399h-88v319l-128 -59v91z" />
    <glyph glyph-name="uni2082" unicode="&#x2082;" horiz-adv-x="347" 
d="M128 -130h195v-69h-313v51l149 121q36 30 52 52t16 51q0 26 -17.5 43.5t-45.5 17.5q-30 0 -49 -17t-21 -48h-83q5 64 45 99.5t109 35.5q66 0 108 -37t42 -93q0 -48 -32 -86t-88 -74z" />
    <glyph glyph-name="uni2083" unicode="&#x2083;" horiz-adv-x="370" 
d="M269 6q73 -18 73 -89q0 -54 -41 -86.5t-110 -32.5q-72 0 -117.5 37t-49.5 101h85q2 -32 24 -50.5t56 -18.5q32 0 50.5 15.5t18.5 41.5q0 52 -78 52h-26v60h25q34 0 53.5 14.5t19.5 39.5q0 24 -18 38t-46 14q-31 0 -51 -16.5t-22 -45.5h-81q4 61 45.5 95.5t108.5 34.5
q66 0 106.5 -31.5t40.5 -83.5q0 -68 -66 -89z" />
    <glyph glyph-name="uni2084" unicode="&#x2084;" horiz-adv-x="386" 
d="M365 -48v-70h-61v-81h-82v81h-194l-14 56q78 142 94 262h94q-20 -117 -90 -248h111l6 142h75v-142h61z" />
    <glyph glyph-name="uni2085" unicode="&#x2085;" horiz-adv-x="366" 
d="M204 68q57 0 95.5 -37.5t38.5 -94.5q0 -60 -44 -99t-116 -39q-65 0 -107.5 33.5t-50.5 97.5h87q4 -30 24 -46t49 -16q33 0 51.5 18.5t18.5 49.5t-18.5 51.5t-50.5 20.5q-48 0 -69 -38l-81 16l10 219h282v-72h-212l-10 -116q31 52 103 52z" />
    <glyph glyph-name="uni2086" unicode="&#x2086;" horiz-adv-x="374" 
d="M214 69q56 0 95.5 -37t39.5 -94q0 -61 -44 -100.5t-112 -39.5q-77 0 -122 50q-43 47 -43 144q0 105 43 162.5t121 57.5q32 0 61 -9t55.5 -37t31.5 -71h-88q-6 50 -56 50q-37 0 -56.5 -35t-21.5 -91q26 50 96 50zM194 -135q31 0 51 19t20 52q0 32 -20 51.5t-51 19.5
q-32 0 -52.5 -20t-20.5 -51q0 -32 21 -51.5t52 -19.5z" />
    <glyph glyph-name="uni2087" unicode="&#x2087;" horiz-adv-x="345" 
d="M18 196h317v-57q-126 -145 -135 -338h-98v4q8 179 145 318h-229v73z" />
    <glyph glyph-name="uni2088" unicode="&#x2088;" horiz-adv-x="369" 
d="M256 17q89 -21 89 -102q0 -55 -45 -86t-116 -31q-70 0 -114.5 31t-44.5 86q0 81 88 102q-74 19 -74 88q0 50 41 77t104 27q64 0 104.5 -27t40.5 -77q0 -69 -73 -88zM184 147q-27 0 -45.5 -14.5t-18.5 -38.5t18.5 -39t45.5 -15t46 15t19 39t-19.5 38.5t-45.5 14.5z
M184 -136q30 0 50 15.5t20 41.5t-20 44t-50 18q-29 0 -48.5 -17.5t-19.5 -43.5q0 -27 19 -42.5t49 -15.5z" />
    <glyph glyph-name="uni2089" unicode="&#x2089;" horiz-adv-x="374" 
d="M302 162q44 -50 44 -146q0 -103 -43.5 -160.5t-121.5 -57.5q-58 0 -98.5 30t-48.5 87h87q3 -23 18 -36.5t39 -13.5q38 0 57 35t21 91q-26 -50 -96 -50q-56 0 -95.5 36.5t-39.5 94.5q0 61 44 100.5t112 39.5q76 0 121 -50zM180 2q32 0 52.5 20t20.5 52t-21 51.5t-52 19.5
q-30 0 -51 -19t-21 -52q0 -32 20.5 -52t51.5 -20z" />
    <glyph glyph-name="Euro" unicode="&#x20ac;" horiz-adv-x="753" 
d="M407 80q56 0 97.5 40.5t58.5 111.5h122q-25 -114 -99.5 -179.5t-178.5 -65.5q-118 0 -196 67t-103 187h-98v71h89q-1 12 -1 37q0 28 1 41h-89v71h99q26 119 103.5 185.5t194.5 66.5q105 0 180.5 -66.5t100.5 -182.5h-123q-17 74 -58.5 115t-99.5 41q-68 0 -113.5 -41.5
t-63.5 -117.5h242v-71h-253q-1 -13 -1 -41q0 -25 1 -37h253v-71h-243q18 -78 63.5 -119.5t114.5 -41.5z" />
    <glyph glyph-name="uni2116" unicode="&#x2116;" horiz-adv-x="1298" 
d="M991 297q-91 0 -147 57.5t-56 148.5q0 89 56 146.5t147 57.5t147.5 -57.5t56.5 -146.5q0 -91 -56 -148.5t-148 -57.5zM559 195v505h120v-700h-109l-351 502v-502h-120v700h111zM991 631q-50 0 -79 -35.5t-29 -92.5q0 -58 29 -94t79 -36t79 36t29 94q0 57 -29 92.5
t-79 35.5zM800 147v86h382v-86h-382z" />
    <glyph glyph-name="uni2117" unicode="&#x2117;" horiz-adv-x="844" 
d="M423 712q150 0 255.5 -102.5t105.5 -257.5q0 -156 -106 -260t-257 -104q-150 0 -255.5 103.5t-105.5 258.5t106 258.5t257 103.5zM421 40q127 0 217.5 89t90.5 222t-90 221t-216 88q-127 0 -217.5 -88.5t-90.5 -221.5t90 -221.5t216 -88.5zM480 550q63 0 102.5 -35.5
t39.5 -91.5q0 -55 -40 -92t-102 -37h-122v-144h-79v400h201zM476 359q32 0 50.5 18t18.5 46t-18.5 45t-50.5 17h-118v-126h118z" />
    <glyph glyph-name="uni2120" unicode="&#x2120;" horiz-adv-x="758" 
d="M192 560q1 0 13 -3t17 -4.5l17 -5t18 -7.5t16.5 -9.5t16 -12.5t11.5 -15.5t8.5 -19.5t2.5 -24q0 -48 -36.5 -76.5t-100.5 -28.5q-65 0 -106 35.5t-46 102.5h76q6 -79 77 -79q59 0 59 40q0 17 -14 25.5t-53 18.5q-30 8 -47.5 14.5t-39 19t-32 32.5t-10.5 47q0 46 35 72
t98 26q62 0 98.5 -30.5t40.5 -89.5h-75q-3 63 -64 63q-57 0 -57 -38q0 -20 14 -30.5t63 -22.5zM639 700h70v-339h-77v219l-89 -105h-14l-89 107v-221h-77v339h71l102 -129z" />
    <glyph glyph-name="trademark" unicode="&#x2122;" horiz-adv-x="745" 
d="M296 700v-68h-97v-271h-80v271h-97v68h274zM626 700h70v-339h-77v219l-88 -105h-15l-88 106v-220h-78v339h71l103 -129z" />
    <glyph glyph-name="uni2150" unicode="&#x2150;" horiz-adv-x="852" 
d="M609 712l52 -35l-513 -690l-51 38zM152 301v319l-128 -59v92l148 47h68v-399h-88zM524 395h317v-57q-58 -66 -94.5 -154t-40.5 -184h-98v4q8 181 145 318h-229v73z" />
    <glyph glyph-name="uni2151" unicode="&#x2151;" horiz-adv-x="841" 
d="M609 712l52 -35l-513 -690l-51 38zM152 301v319l-128 -59v92l148 47h68v-399h-88zM769 355q44 -50 44 -145q0 -103 -43.5 -161t-121.5 -58q-58 0 -98.5 30t-48.5 87h87q7 -49 57 -49q37 0 56.5 34.5t21.5 91.5q-25 -51 -96 -51q-56 0 -95.5 37t-39.5 94q0 61 44 100.5
t112 39.5q76 0 121 -50zM647 196q32 0 52.5 20t20.5 51q0 32 -21 52t-52 20t-51.5 -19.5t-20.5 -52.5q0 -32 20.5 -51.5t51.5 -19.5z" />
    <glyph glyph-name="uni2152" unicode="&#x2152;" horiz-adv-x="1164" 
d="M621 712l52 -35l-513 -690l-51 38zM152 301v319l-128 -59v92l148 47h68v-399h-88zM959 402q81 0 129 -58.5t48 -148.5t-48 -148.5t-129 -58.5q-80 0 -127.5 59t-47.5 148t47.5 148t127.5 59zM655 399h68v-399h-88v319l-128 -59v92zM959 58q86 0 86 137q0 138 -86 138
q-41 0 -62.5 -36t-21.5 -102q0 -137 84 -137z" />
    <glyph glyph-name="uni2153" unicode="&#x2153;" horiz-adv-x="845" 
d="M621 712l52 -35l-513 -690l-51 38zM152 301v319l-128 -59v92l148 47h68v-399h-88zM744 199q73 -18 73 -89q0 -54 -41 -86.5t-110 -32.5q-72 0 -117.5 36.5t-49.5 101.5h85q2 -33 24 -51.5t56 -18.5q33 0 51 16t18 42q0 52 -78 52h-26v60h26q33 0 52.5 14.5t19.5 39.5
q0 24 -18 38t-46 14q-32 0 -51.5 -17t-21.5 -46h-81q4 61 45.5 96t108.5 35q66 0 106.5 -31.5t40.5 -83.5q0 -68 -66 -89z" />
    <glyph glyph-name="uni2154" unicode="&#x2154;" horiz-adv-x="895" 
d="M671 712l52 -35l-513 -690l-51 38zM323 373v-70h-313v51l149 121q36 29 52 52t16 51q0 26 -17.5 43.5t-45.5 17.5q-30 0 -49 -17t-21 -48h-83q4 64 44.5 99.5t109.5 35.5q66 0 108 -37t42 -93q0 -48 -32 -86t-88 -74l-66 -46h194zM794 199q73 -18 73 -89q0 -54 -41 -86.5
t-110 -32.5q-72 0 -117.5 36.5t-49.5 101.5h85q2 -33 24 -51.5t56 -18.5q33 0 51 16t18 42q0 52 -78 52h-26v60h26q33 0 52.5 14.5t19.5 39.5q0 24 -18 38t-46 14q-32 0 -51.5 -17t-21.5 -46h-81q4 61 45.5 96t108.5 35q66 0 106.5 -31.5t40.5 -83.5q0 -68 -66 -89z" />
    <glyph glyph-name="uni2155" unicode="&#x2155;" horiz-adv-x="846" 
d="M621 712l52 -35l-513 -690l-51 38zM152 301v319l-128 -59v92l148 47h68v-399h-88zM684 261q57 0 95.5 -37.5t38.5 -94.5q0 -60 -44 -99t-116 -39q-65 0 -107.5 33.5t-50.5 97.5h87q4 -30 24 -46t49 -16q33 0 51.5 18.5t18.5 49.5t-18.5 51.5t-50.5 20.5q-48 0 -69 -38
l-81 16l10 219h282v-72h-212l-10 -116q31 52 103 52z" />
    <glyph glyph-name="uni2156" unicode="&#x2156;" horiz-adv-x="924" 
d="M694 712l52 -35l-513 -690l-51 38zM323 373v-70h-313v51l149 121q36 29 52 52t16 51q0 26 -17.5 43.5t-45.5 17.5q-30 0 -49 -17t-21 -48h-83q4 64 44.5 99.5t109.5 35.5q66 0 108 -37t42 -93q0 -48 -32 -86t-88 -74l-66 -46h194zM762 261q57 0 95.5 -37.5t38.5 -94.5
q0 -60 -44 -99t-116 -39q-65 0 -107.5 33.5t-50.5 97.5h87q4 -30 24 -46t49 -16q33 0 51.5 18.5t18.5 49.5t-18.5 51.5t-50.5 20.5q-48 0 -69 -38l-81 16l10 219h282v-72h-212l-10 -116q31 52 103 52z" />
    <glyph glyph-name="uni2157" unicode="&#x2157;" horiz-adv-x="901" 
d="M674 712l52 -35l-513 -690l-51 38zM337 416q0 -54 -41 -86.5t-110 -32.5q-72 0 -117.5 36.5t-49.5 101.5h85q2 -33 24 -51.5t56 -18.5q33 0 51 16t18 42q0 52 -78 52h-26v60h26q33 0 52.5 14.5t19.5 39.5q0 24 -18 38t-46 14q-32 0 -51.5 -17t-21.5 -46h-81q4 61 45.5 96
t108.5 35q66 0 106.5 -31.5t40.5 -83.5q0 -68 -66 -89q73 -18 73 -89zM739 261q57 0 95.5 -37.5t38.5 -94.5q0 -60 -44 -99t-116 -39q-65 0 -107.5 33.5t-50.5 97.5h87q4 -30 24 -46t49 -16q33 0 51.5 18.5t18.5 49.5t-18.5 51.5t-50.5 20.5q-48 0 -69 -38l-81 16l10 219
h282v-72h-212l-10 -116q31 52 103 52z" />
    <glyph glyph-name="uni2158" unicode="&#x2158;" horiz-adv-x="925" 
d="M710 712l52 -35l-513 -690l-51 38zM222 301v81h-194l-14 57q78 142 94 261h94q-21 -118 -91 -248h112l6 142h75v-142h61v-70h-61v-81h-82zM763 261q57 0 95.5 -37.5t38.5 -94.5q0 -60 -44 -99t-116 -39q-65 0 -107.5 33.5t-50.5 97.5h87q4 -30 24 -46t49 -16
q33 0 51.5 18.5t18.5 49.5t-18.5 51.5t-50.5 20.5q-48 0 -69 -38l-81 16l10 219h282v-72h-212l-10 -116q31 52 103 52z" />
    <glyph glyph-name="uni2159" unicode="&#x2159;" horiz-adv-x="827" 
d="M621 712l52 -35l-513 -690l-51 38zM152 301v319l-128 -59v92l148 47h68v-399h-88zM667 262q56 0 95.5 -36.5t39.5 -94.5q0 -61 -44 -100.5t-112 -39.5q-77 0 -122 50q-43 49 -43 144q0 105 43.5 162.5t120.5 57.5q23 0 45.5 -5.5t45 -17.5t38 -36t19.5 -57h-88
q-3 25 -18.5 37t-37.5 12q-37 0 -56.5 -34.5t-21.5 -90.5q25 49 96 49zM647 58q30 0 50.5 19t20.5 52t-20 52.5t-51 19.5q-32 0 -52.5 -20t-20.5 -52t21 -51.5t52 -19.5z" />
    <glyph glyph-name="uni215A" unicode="&#x215a;" horiz-adv-x="874" 
d="M674 712l52 -35l-513 -690l-51 38zM338 432q0 -60 -44 -99t-116 -39q-65 0 -107.5 33.5t-50.5 97.5h87q4 -30 24 -46t49 -16q33 0 51.5 18.5t18.5 49.5t-18.5 51.5t-50.5 20.5q-48 0 -69 -38l-81 16l10 219h282v-72h-212l-10 -116q31 52 103 52q57 0 95.5 -37.5
t38.5 -94.5zM714 262q56 0 95.5 -36.5t39.5 -94.5q0 -61 -44 -100.5t-112 -39.5q-77 0 -122 50q-43 49 -43 144q0 105 43 162.5t121 57.5q23 0 45.5 -5.5t45 -17.5t38 -36t19.5 -57h-88q-3 25 -18.5 37t-37.5 12q-37 0 -56.5 -34.5t-21.5 -90.5q25 49 96 49zM694 58
q30 0 50.5 19t20.5 52t-20 52.5t-51 19.5q-32 0 -52.5 -20t-20.5 -52t21 -51.5t52 -19.5z" />
    <glyph glyph-name="oneeighth" unicode="&#x215b;" horiz-adv-x="847" 
d="M617 712l52 -35l-513 -690l-51 38zM152 301v319l-128 -59v92l148 47h68v-399h-88zM733 206q89 -20 89 -98q0 -55 -45 -86t-116 -31q-70 0 -114.5 31t-44.5 86q0 78 88 98q-74 21 -74 92q0 50 41 77t104 27q64 0 104.5 -27t40.5 -77q0 -71 -73 -92zM661 340
q-27 0 -45.5 -14.5t-18.5 -38.5t18.5 -39t45.5 -15t46 15t19 39t-19.5 38.5t-45.5 14.5zM661 57q30 0 50 15.5t20 41.5t-20 44t-50 18q-29 0 -48.5 -17.5t-19.5 -43.5q0 -27 19 -42.5t49 -15.5z" />
    <glyph glyph-name="threeeighths" unicode="&#x215c;" horiz-adv-x="897" 
d="M689 712l52 -35l-513 -690l-51 38zM337 416q0 -54 -41 -86.5t-110 -32.5q-72 0 -117.5 36.5t-49.5 101.5h85q2 -33 24 -51.5t56 -18.5q33 0 51 16t18 42q0 52 -78 52h-26v60h26q33 0 52.5 14.5t19.5 39.5q0 24 -18 38t-46 14q-32 0 -51.5 -17t-21.5 -46h-81q4 61 45.5 96
t108.5 35q66 0 106.5 -31.5t40.5 -83.5q0 -68 -66 -89q73 -18 73 -89zM782 206q89 -20 89 -98q0 -55 -45 -86t-116 -31q-70 0 -114.5 31t-44.5 86q0 78 88 98q-74 21 -74 92q0 50 41 77t104 27q64 0 104.5 -27t40.5 -77q0 -71 -73 -92zM710 340q-27 0 -45.5 -14.5
t-18.5 -38.5t18.5 -39t45.5 -15t46 15t19 39t-19.5 38.5t-45.5 14.5zM710 57q30 0 50 15.5t20 41.5t-20 44t-50 18q-29 0 -48.5 -17.5t-19.5 -43.5q0 -27 19 -42.5t49 -15.5z" />
    <glyph glyph-name="fiveeighths" unicode="&#x215d;" horiz-adv-x="907" 
d="M690 712l52 -35l-513 -690l-51 38zM338 432q0 -60 -44 -99t-116 -39q-65 0 -107.5 33.5t-50.5 97.5h87q4 -30 24 -46t49 -16q33 0 51.5 18.5t18.5 49.5t-18.5 51.5t-50.5 20.5q-48 0 -69 -38l-81 16l10 219h282v-72h-212l-10 -116q31 52 103 52q57 0 95.5 -37.5
t38.5 -94.5zM793 206q89 -20 89 -98q0 -55 -45 -86t-116 -31q-70 0 -114.5 31t-44.5 86q0 78 88 98q-74 21 -74 92q0 50 41 77t104 27q64 0 104.5 -27t40.5 -77q0 -71 -73 -92zM721 340q-27 0 -45.5 -14.5t-18.5 -38.5t18.5 -39t45.5 -15t46 15t19 39t-19.5 38.5t-45.5 14.5
zM721 57q30 0 50 15.5t20 41.5t-20 44t-50 18q-29 0 -48.5 -17.5t-19.5 -43.5q0 -27 19 -42.5t49 -15.5z" />
    <glyph glyph-name="seveneighths" unicode="&#x215e;" horiz-adv-x="846" 
d="M603 712l52 -35l-513 -690l-51 38zM102 309q8 181 145 318h-229v73h317v-57q-58 -66 -94.5 -154t-40.5 -184h-98v4zM732 206q89 -20 89 -98q0 -55 -45 -86t-116 -31q-70 0 -114.5 31t-44.5 86q0 78 88 98q-74 21 -74 92q0 50 41 77t104 27q64 0 104.5 -27t40.5 -77
q0 -71 -73 -92zM660 340q-27 0 -45.5 -14.5t-18.5 -38.5t18.5 -39t45.5 -15t46 15t19 39t-19.5 38.5t-45.5 14.5zM660 57q30 0 50 15.5t20 41.5t-20 44t-50 18q-29 0 -48.5 -17.5t-19.5 -43.5q0 -27 19 -42.5t49 -15.5z" />
    <glyph glyph-name="uni2189" unicode="&#x2189;" horiz-adv-x="918" 
d="M700 712l52 -35l-513 -690l-51 38zM380 502q0 -90 -48 -148.5t-129 -58.5q-80 0 -127.5 59t-47.5 148t47.5 148t127.5 59q81 0 129 -58.5t48 -148.5zM119 502q0 -137 84 -137q86 0 86 137q0 138 -86 138q-41 0 -62.5 -36t-21.5 -102zM817 199q73 -18 73 -89
q0 -54 -41 -86.5t-110 -32.5q-72 0 -117.5 36.5t-49.5 101.5h85q2 -33 24 -51.5t56 -18.5q33 0 51 16t18 42q0 52 -78 52h-26v60h26q33 0 52.5 14.5t19.5 39.5q0 24 -18 38t-46 14q-32 0 -51.5 -17t-21.5 -46h-81q4 61 45.5 96t108.5 35q66 0 106.5 -31.5t40.5 -83.5
q0 -68 -66 -89z" />
    <glyph glyph-name="arrowleft" unicode="&#x2190;" horiz-adv-x="849" 
d="M799 407v-112l-559 7l237 -227l-75 -79l-352 355l352 355l75 -78l-239 -228z" />
    <glyph glyph-name="arrowup" unicode="&#x2191;" horiz-adv-x="810" 
d="M760 374l-76 -75l-230 241l7 -540h-112l7 541l-231 -242l-75 75l355 352z" />
    <glyph glyph-name="arrowright" unicode="&#x2192;" horiz-adv-x="849" 
d="M447 706l352 -355l-352 -355l-75 79l237 227l-559 -7v112l561 -7l-239 228z" />
    <glyph glyph-name="arrowdown" unicode="&#x2193;" horiz-adv-x="810" 
d="M684 400l76 -75l-355 -352l-355 352l75 75l231 -242l-7 541h112l-7 -540z" />
    <glyph glyph-name="uni2196" unicode="&#x2196;" horiz-adv-x="805" 
d="M804 61l-76 -76l-542 549v-390h-106v556h556v-100h-381z" />
    <glyph glyph-name="uni2197" unicode="&#x2197;" horiz-adv-x="785" 
d="M725 700v-556h-106v390l-542 -549l-76 76l549 539h-381v100h556z" />
    <glyph glyph-name="uni2198" unicode="&#x2198;" horiz-adv-x="805" 
d="M619 556h106v-556h-556v100h381l-549 539l76 76l542 -549v390z" />
    <glyph glyph-name="uni2199" unicode="&#x2199;" horiz-adv-x="805" 
d="M804 639l-549 -539h381v-100h-556v556h106v-390l542 549z" />
    <glyph glyph-name="emptyset" unicode="&#x2205;" horiz-adv-x="655" 
d="M609 480l-71 -70q46 -68 46 -158q0 -116 -72 -190.5t-184 -74.5q-97 0 -166 58l-72 -71l-44 50l72 70q-46 68 -46 158q0 116 72 190.5t184 74.5q98 0 165 -58l72 70zM178 253q0 -47 16 -85l231 225q-40 37 -97 37q-65 0 -107.5 -49t-42.5 -128zM478 253q0 46 -16 84
l-231 -225q40 -38 97 -38q65 0 107.5 49t42.5 130z" />
    <glyph glyph-name="minus" unicode="&#x2212;" horiz-adv-x="627" 
d="M66 386h495v-91h-495v91z" />
    <glyph glyph-name="infinity" unicode="&#x221e;" horiz-adv-x="817" 
d="M226 153q-80 0 -128 47.5t-48 123.5q0 77 47 126t122 49q53 0 102 -31.5t86 -86.5q86 118 185 118q80 0 127.5 -47.5t47.5 -123.5q0 -77 -47 -125.5t-123 -48.5q-52 0 -101 31t-87 86q-87 -118 -183 -118zM222 229q72 0 137 97q-63 99 -136 99q-42 0 -66.5 -26.5
t-24.5 -70.5q-1 -45 23.5 -72t66.5 -27zM594 229q42 0 67 27t24 72q-1 44 -25 70.5t-66 26.5q-68 0 -143 -99q74 -97 143 -97z" />
    <glyph glyph-name="integral" unicode="&#x222b;" horiz-adv-x="406" 
d="M279 717q50 0 97 -15v-90q-52 15 -81 15t-48.5 -18.5t-19.5 -47.5v-622q0 -67 -46.5 -109.5t-116.5 -42.5q-51 0 -96 15v90q51 -15 80 -15q30 0 49.5 18t19.5 48v622q0 67 46 109.5t116 42.5z" />
    <glyph glyph-name="approxequal" unicode="&#x2248;" horiz-adv-x="628" 
d="M66 380q0 71 37.5 104.5t90.5 33.5q39 0 126 -26t110 -26q24 0 38 14t14 40h80q0 -71 -37.5 -104.5t-89.5 -33.5q-40 0 -126.5 26t-109.5 26q-24 0 -38 -14.5t-14 -39.5h-81zM66 179q0 71 37.5 104.5t90.5 33.5q39 0 126 -26t110 -26t37.5 15t14.5 40h80
q0 -71 -37 -104.5t-90 -33.5q-40 0 -126.5 26t-109.5 26q-24 0 -38 -14.5t-14 -40.5h-81z" />
    <glyph glyph-name="notequal" unicode="&#x2260;" horiz-adv-x="627" 
d="M561 409h-167l-63 -129h230v-86h-272l-57 -116h-97l57 116h-126v86h168l63 129h-231v86h274l56 115h97l-56 -115h124v-86z" />
    <glyph glyph-name="lessequal" unicode="&#x2264;" horiz-adv-x="625" 
d="M555 591v-102l-361 -118l361 -116v-100l-489 177v82zM555 0h-489v79h489v-79z" />
    <glyph glyph-name="greaterequal" unicode="&#x2265;" horiz-adv-x="625" 
d="M70 591l489 -177v-82l-489 -177v100l361 116l-361 118v102zM70 0v79h489v-79h-489z" />
    <glyph glyph-name="uni2460" unicode="&#x2460;" 
d="M441 731q158 0 269.5 -111t111.5 -269t-111.5 -269.5t-269.5 -111.5t-269.5 111.5t-111.5 269.5t111.5 269t269.5 111zM441 27q132 0 226 95.5t94 228.5q0 132 -94 227.5t-226 95.5q-131 0 -225 -95.5t-94 -227.5t93.5 -228t225.5 -96zM292 501l146 47h66v-391h-86v314
l-126 -58v88z" />
    <glyph glyph-name="uni2461" unicode="&#x2461;" 
d="M441 731q158 0 269.5 -111t111.5 -269t-111.5 -269.5t-269.5 -111.5t-269.5 111.5t-111.5 269.5t111.5 269t269.5 111zM440 27q132 0 226 95.5t94 228.5q0 132 -94 227.5t-226 95.5q-131 0 -225 -95.5t-94 -227.5t93.5 -228t225.5 -96zM463 278l-66 -47h191v-67h-305v50
l145 118q36 28 52 51t16 51q0 26 -17.5 43t-45.5 17q-64 0 -69 -64h-80q5 63 44 97.5t106 34.5q64 0 105 -36.5t41 -91.5q0 -81 -117 -156z" />
    <glyph glyph-name="uni2462" unicode="&#x2462;" 
d="M441 731q158 0 269.5 -111t111.5 -269t-111.5 -269.5t-269.5 -111.5t-269.5 111.5t-111.5 269.5t111.5 269t269.5 111zM440 27q132 0 226 95.5t94 228.5q0 132 -94 227.5t-226 95.5q-131 0 -225 -95.5t-94 -227.5t93.5 -228t225.5 -96zM522 354q71 -18 71 -87
q0 -53 -40 -85t-107 -32q-71 0 -115.5 36t-48.5 100h82q3 -33 24.5 -51.5t55.5 -18.5q32 0 50 16t18 41q0 52 -78 52h-25v58h25q33 0 52.5 14.5t19.5 38.5q0 25 -17.5 38.5t-45.5 13.5q-31 0 -51 -16.5t-22 -45.5h-78q4 60 44.5 94t106.5 34q64 0 103.5 -31t39.5 -82
q0 -66 -64 -87z" />
    <glyph glyph-name="uni2463" unicode="&#x2463;" 
d="M441 731q158 0 269.5 -111t111.5 -269t-111.5 -269.5t-269.5 -111.5t-269.5 111.5t-111.5 269.5t111.5 269t269.5 111zM440 27q132 0 226 95.5t94 228.5q0 132 -94 227.5t-226 95.5q-131 0 -225 -95.5t-94 -227.5t93.5 -228t225.5 -96zM547 448v-140h60v-68h-60v-79h-79
v79h-191l-13 55q76 138 92 256h91q-19 -114 -89 -243h110l6 140h73z" />
    <glyph glyph-name="uni2464" unicode="&#x2464;" 
d="M441 731q158 0 269.5 -111t111.5 -269t-111.5 -269.5t-269.5 -111.5t-269.5 111.5t-111.5 269.5t111.5 269t269.5 111zM441 27q132 0 226 95.5t94 228.5q0 132 -94 227.5t-226 95.5q-131 0 -225 -95.5t-94 -227.5t93.5 -228t225.5 -96zM461 407q56 0 94 -36.5t38 -92.5
q0 -59 -43.5 -97t-113.5 -38q-64 0 -105.5 32.5t-48.5 95.5h83q4 -30 24 -46t49 -16q32 0 51 19t19 49q0 31 -18.5 51t-50.5 20q-47 0 -69 -37l-78 15l11 214h275v-69h-209l-10 -115q33 51 102 51z" />
    <glyph glyph-name="uni2465" unicode="&#x2465;" 
d="M441 731q158 0 269.5 -111t111.5 -269t-111.5 -269.5t-269.5 -111.5t-269.5 111.5t-111.5 269.5t111.5 269t269.5 111zM440 27q132 0 226 95.5t94 228.5q0 132 -94 227.5t-226 95.5q-131 0 -225 -95.5t-94 -227.5t93.5 -228t225.5 -96zM458 413q55 0 93.5 -36t38.5 -93
q0 -59 -43 -97.5t-109 -38.5q-76 0 -119 48q-42 46 -42 141q0 103 42 159.5t118 56.5q52 0 95 -26.5t50 -87.5h-85q-3 25 -18.5 37t-37.5 12q-37 0 -56.5 -35t-21.5 -91q26 51 95 51zM439 212q31 0 51 19t20 52q0 32 -20 51t-51 19q-32 0 -52 -19.5t-20 -51.5
q0 -31 20.5 -50.5t51.5 -19.5z" />
    <glyph glyph-name="uni2466" unicode="&#x2466;" 
d="M441 731q158 0 269.5 -111t111.5 -269t-111.5 -269.5t-269.5 -111.5t-269.5 111.5t-111.5 269.5t111.5 269t269.5 111zM440 27q132 0 226 95.5t94 228.5q0 132 -94 227.5t-226 95.5q-131 0 -225 -95.5t-94 -227.5t93.5 -228t225.5 -96zM286 463v70h311v-54
q-125 -142 -134 -332h-94v3q8 177 142 313h-225z" />
    <glyph glyph-name="uni2467" unicode="&#x2467;" 
d="M441 731q158 0 269.5 -111t111.5 -269t-111.5 -269.5t-269.5 -111.5t-269.5 111.5t-111.5 269.5t111.5 269t269.5 111zM441 27q132 0 226 95.5t94 228.5q0 132 -94 227.5t-226 95.5q-131 0 -225 -95.5t-94 -227.5t93.5 -228t225.5 -96zM510 362q43 -10 65.5 -36t22.5 -63
q0 -54 -43.5 -84.5t-113.5 -30.5q-69 0 -112.5 30.5t-43.5 84.5q0 80 87 99q-72 20 -72 86q0 49 40 76t101 27q62 0 101.5 -27t39.5 -76q0 -66 -72 -86zM441 490q-27 0 -45 -14t-18 -38t18 -38.5t45 -14.5t45.5 15t18.5 38q0 24 -19 38t-45 14zM441 212q29 0 49 15t20 41
q0 27 -19.5 44.5t-49.5 17.5q-29 0 -48.5 -17.5t-19.5 -43.5t19.5 -41.5t48.5 -15.5z" />
    <glyph glyph-name="uni2468" unicode="&#x2468;" 
d="M441 731q158 0 269.5 -111t111.5 -269t-111.5 -269.5t-269.5 -111.5t-269.5 111.5t-111.5 269.5t111.5 269t269.5 111zM440 27q132 0 226 95.5t94 228.5q0 132 -94 227.5t-226 95.5q-131 0 -225 -95.5t-94 -227.5t93.5 -228t225.5 -96zM438 553q72 0 118 -49
q43 -48 43 -142q0 -101 -42.5 -157.5t-118.5 -56.5q-57 0 -96.5 29t-47.5 85h84q2 -23 17.5 -36t39.5 -13q37 0 56 34.5t21 89.5q-26 -50 -94 -50q-55 0 -94 36t-39 93q0 59 43.5 98t109.5 39zM437 347q32 0 52 20t20 51q0 32 -20.5 51.5t-51.5 19.5q-30 0 -50.5 -19
t-20.5 -52q0 -32 20 -51.5t51 -19.5z" />
    <glyph glyph-name="uni24EA" unicode="&#x24ea;" 
d="M441 -30q-158 0 -269.5 111.5t-111.5 269.5t111.5 269t269.5 111t269.5 -111t111.5 -269t-111.5 -269.5t-269.5 -111.5zM441 27q132 0 226 95.5t94 228.5q0 132 -94 227.5t-226 95.5q-131 0 -225 -95.5t-94 -227.5t93.5 -228t225.5 -96zM440 553q80 0 126.5 -57.5
t46.5 -145.5q0 -87 -46.5 -144.5t-126.5 -57.5q-78 0 -124.5 57.5t-46.5 144.5q0 88 46.5 145.5t124.5 57.5zM440 486q-41 0 -62 -35.5t-21 -100.5q0 -135 83 -135q85 0 85 135q0 136 -85 136z" />
    <glyph glyph-name="uni24FF" unicode="&#x24ff;" 
d="M441 -30q158 0 269.5 111.5t111.5 269.5t-111.5 269t-269.5 111t-269.5 -111t-111.5 -269t111.5 -269.5t269.5 -111.5zM440 553q80 0 126.5 -57.5t46.5 -145.5q0 -87 -46.5 -144.5t-126.5 -57.5q-78 0 -124.5 57.5t-46.5 144.5q0 88 46.5 145.5t124.5 57.5zM440 486
q-41 0 -62 -35.5t-21 -100.5q0 -135 83 -135q85 0 85 135q0 136 -85 136z" />
    <glyph glyph-name="filledbox" unicode="&#x25a0;" horiz-adv-x="778" 
d="M40 700h698v-700h-698v700z" />
    <glyph glyph-name="uni25A1" unicode="&#x25a1;" horiz-adv-x="778" 
d="M40 700h698v-700h-698v700zM141 601v-502h496v502h-496z" />
    <glyph glyph-name="uni25AA" unicode="&#x25aa;" horiz-adv-x="616" 
d="M184 475h248v-250h-248v250z" />
    <glyph glyph-name="uni25AB" unicode="&#x25ab;" horiz-adv-x="616" 
d="M184 474h248v-246h-248v246zM256 406v-110h104v110h-104z" />
    <glyph glyph-name="triagup" unicode="&#x25b2;" horiz-adv-x="924" 
d="M884 0h-844l422 709z" />
    <glyph glyph-name="uni25B4" unicode="&#x25b4;" horiz-adv-x="616" 
d="M458 228h-300l150 253z" />
    <glyph glyph-name="uni25B8" unicode="&#x25b8;" horiz-adv-x="605" 
d="M201 198v300l253 -150z" />
    <glyph glyph-name="triagrt" unicode="&#x25ba;" horiz-adv-x="681" 
d="M40 707l601 -357l-601 -357v714z" />
    <glyph glyph-name="triagdn" unicode="&#x25bc;" horiz-adv-x="924" 
d="M884 700l-422 -709l-422 709h844z" />
    <glyph glyph-name="uni25BE" unicode="&#x25be;" horiz-adv-x="616" 
d="M458 481l-150 -253l-150 253h300z" />
    <glyph glyph-name="uni25C2" unicode="&#x25c2;" horiz-adv-x="605" 
d="M404 198l-253 150l253 150v-300z" />
    <glyph glyph-name="triaglf" unicode="&#x25c4;" horiz-adv-x="681" 
d="M641 707v-714l-601 357z" />
    <glyph glyph-name="lozenge" unicode="&#x25ca;" horiz-adv-x="756" 
d="M426 -10h-101l-285 369l285 354h101l290 -354zM376 621l-214 -262l214 -277l218 277z" />
    <glyph glyph-name="circle" unicode="&#x25cb;" horiz-adv-x="799" 
d="M40 349q0 150 105 256.5t254 106.5q148 0 254 -107t106 -256t-106 -255t-254 -106q-149 0 -254 106t-105 255zM147 349q0 -106 73.5 -183.5t178.5 -77.5q104 0 178.5 77.5t74.5 183.5q0 107 -74.5 185t-178.5 78q-105 0 -178.5 -78t-73.5 -185z" />
    <glyph glyph-name="uni25CF" unicode="&#x25cf;" horiz-adv-x="799" 
d="M40 349q0 150 105 256.5t254 106.5q148 0 254 -107t106 -256t-106 -255t-254 -106q-149 0 -254 106t-105 255z" />
    <glyph glyph-name="uni278A" unicode="&#x278a;" 
d="M441 -30q158 0 269.5 111.5t111.5 269.5t-111.5 269t-269.5 111t-269.5 -111t-111.5 -269t111.5 -269.5t269.5 -111.5zM444 548h66v-391h-85v313l-126 -57v88z" />
    <glyph glyph-name="uni278B" unicode="&#x278b;" 
d="M441 -30q158 0 269.5 111.5t111.5 269.5t-111.5 269t-269.5 111t-269.5 -111t-111.5 -269t111.5 -269.5t269.5 -111.5zM409 230h185v-67h-305v49l145 119q36 30 52.5 51.5t16.5 49.5q0 26 -17.5 43.5t-45.5 17.5q-29 0 -47 -16.5t-19 -46.5h-84q5 62 44.5 96.5
t106.5 34.5q64 0 104.5 -36.5t40.5 -91.5q0 -81 -113 -154z" />
    <glyph glyph-name="uni278C" unicode="&#x278c;" 
d="M441 -30q158 0 269.5 111.5t111.5 269.5t-111.5 269t-269.5 111t-269.5 -111t-111.5 -269t111.5 -269.5t269.5 -111.5zM525 352q71 -18 71 -87q0 -53 -40 -85t-107 -32q-71 0 -115.5 36t-48.5 99h82q6 -68 80 -68q32 0 50 15.5t18 40.5q0 52 -77 52h-26v58h25
q34 0 53 14.5t19 39.5q0 24 -17.5 38t-45.5 14q-32 0 -51.5 -17t-20.5 -46h-79q4 60 44.5 94t106.5 34q64 0 104 -31t40 -82q0 -65 -65 -86v-1z" />
    <glyph glyph-name="uni278D" unicode="&#x278d;" 
d="M441 -30q158 0 269.5 111.5t111.5 269.5t-111.5 269t-269.5 111t-269.5 -111t-111.5 -269t111.5 -269.5t269.5 -111.5zM601 308v-68h-60v-79h-79v79h-192l-12 55q76 138 92 256h91q-20 -113 -90 -243h111l6 140h73v-140h60z" />
    <glyph glyph-name="uni278E" unicode="&#x278e;" 
d="M441 -30q158 0 269.5 111.5t111.5 269.5t-111.5 269t-269.5 111t-269.5 -111t-111.5 -269t111.5 -269.5t269.5 -111.5zM465 407q56 0 94 -36.5t38 -92.5q0 -59 -43.5 -97t-113.5 -38q-66 0 -108.5 35.5t-49.5 99.5h84q5 -34 26 -51.5t51 -17.5q32 0 50.5 19t18.5 49
q0 31 -18.5 51t-50.5 20q-46 0 -68 -37l-79 15l11 214h275v-67h-207l-7 -111q33 45 97 45z" />
    <glyph glyph-name="uni278F" unicode="&#x278f;" 
d="M441 -30q-158 0 -269.5 111.5t-111.5 269.5t111.5 269t269.5 111t269.5 -111t111.5 -269t-111.5 -269.5t-269.5 -111.5zM439 148q66 0 109.5 38.5t43.5 97.5q0 56 -38.5 92.5t-93.5 36.5q-70 0 -95 -50h-1q0 55 19 90t57 35q52 0 59 -50h85q-7 56 -47 85.5t-97 29.5
q-78 0 -120 -56.5t-42 -159.5q0 -93 42 -141q45 -48 119 -48zM440 212q-31 0 -51.5 19.5t-20.5 50.5t20 51t52 20q31 0 51.5 -19t20.5 -51q0 -33 -20.5 -52t-51.5 -19z" />
    <glyph glyph-name="uni2790" unicode="&#x2790;" 
d="M441 -30q158 0 269.5 111.5t111.5 269.5t-111.5 269t-269.5 111t-269.5 -111t-111.5 -269t111.5 -269.5t269.5 -111.5zM284 533h312l-1 -54q-124 -143 -133 -332h-95v3q10 185 150 313h-233v70z" />
    <glyph glyph-name="uni2791" unicode="&#x2791;" 
d="M441 -30q158 0 269.5 111.5t111.5 269.5t-111.5 269t-269.5 111t-269.5 -111t-111.5 -269t111.5 -269.5t269.5 -111.5zM512 362q86 -21 86 -99q0 -54 -43.5 -84.5t-113.5 -30.5q-69 0 -112.5 30.5t-43.5 84.5q0 78 85 99q-70 19 -70 87q0 48 40 75t101 27
q62 0 101.5 -26.5t39.5 -75.5q0 -68 -70 -87zM378 438q0 -24 18 -38.5t45 -14.5t45.5 15t18.5 38q0 24 -19 38t-45 14q-27 0 -45 -14t-18 -38zM441 212q29 0 49 15t20 41q0 27 -19.5 44.5t-49.5 17.5q-29 0 -48.5 -17.5t-19.5 -43.5t19 -41.5t49 -15.5z" />
    <glyph glyph-name="uni2792" unicode="&#x2792;" 
d="M441 -30q-158 0 -269.5 111.5t-111.5 269.5t111.5 269t269.5 111t269.5 -111t111.5 -269t-111.5 -269.5t-269.5 -111.5zM442 148q76 0 118.5 56.5t42.5 157.5q0 94 -43 142q-46 49 -118 49q-66 0 -109.5 -39t-43.5 -98q0 -57 39 -93t94 -36q69 0 94 51h1
q-1 -57 -20.5 -91t-57.5 -34q-22 0 -38 12t-19 37h-84q7 -62 50 -88t94 -26zM441 347q-31 0 -51 19.5t-20 51.5q0 33 20.5 52t50.5 19q31 0 51.5 -19.5t20.5 -51.5q0 -31 -20 -51t-52 -20z" />
    <glyph glyph-name="fi" unicode="&#xfb01;" horiz-adv-x="639" 
d="M557 504v-504h-111v414h-222v-414h-111v414h-102v90h102v17q0 90 65 144t165 54q78 0 152 -29v-95q-80 31 -148 31q-55 0 -89 -27.5t-34 -77.5v-17h333z" />
    <glyph glyph-name="I.case" horiz-adv-x="319" 
d="M99 700h121v-700h-121v700z" />
    <glyph glyph-name="IJ.case" horiz-adv-x="867" 
d="M99 700h121v-700h-121v700zM368 127q80 -37 141 -37q64 0 104 36t40 92v482h120v-481q0 -101 -69.5 -165t-185.5 -64q-76 0 -150 24v113z" />
    <glyph glyph-name="Iacute.case" horiz-adv-x="297" 
d="M104 756l50 140h157l-114 -140h-93zM99 700h121v-700h-121v700z" />
    <glyph glyph-name="Icircumflex.case" horiz-adv-x="319" 
d="M328 756h-99l-69 73l-70 -73h-99l102 140h133zM99 700h121v-700h-121v700z" />
    <glyph glyph-name="Idieresis.case" horiz-adv-x="319" 
d="M-17 768v116h124v-116h-124zM213 768v116h124v-116h-124zM99 700h121v-700h-121v700z" />
    <glyph glyph-name="Idotaccent.case" horiz-adv-x="319" 
d="M93 769v115h136v-115h-136zM99 700h121v-700h-121v700z" />
    <glyph glyph-name="Igrave.case" horiz-adv-x="319" 
d="M197 756h-93l-114 140h157zM99 700h121v-700h-121v700z" />
    <glyph glyph-name="Imacron.case" horiz-adv-x="319" 
d="M22 784v82h276v-82h-276zM99 700h121v-700h-121v700z" />
    <glyph glyph-name="Iogonek.case" horiz-adv-x="319" 
d="M189 -110q30 0 55 10v-80q-41 -11 -83 -11q-51 0 -86.5 25.5t-35.5 63.5q0 59 77 102h-17v700h121v-700l-38.5 -27.5t-21.5 -22t-10 -27.5q0 -15 11 -24t28 -9z" />
    <glyph glyph-name="I.ss01" horiz-adv-x="453" 
d="M389 610h-102v-520h102v-90h-325v90h102v520h-102v90h325v-90z" />
    <glyph glyph-name="IJ.ss01" horiz-adv-x="1001" 
d="M64 610v90h325v-90h-102v-520h102v-90h-325v90h102v520h-102zM787 700h120v-481q0 -101 -69.5 -165t-185.5 -64q-76 0 -150 24v113q80 -37 141 -37q64 0 104 36t40 92v482z" />
    <glyph glyph-name="Iacute.ss01" horiz-adv-x="453" 
d="M397 896l-114 -140h-93l50 140h157zM64 610v90h325v-90h-102v-520h102v-90h-325v90h102v520h-102z" />
    <glyph glyph-name="Icircumflex.ss01" horiz-adv-x="453" 
d="M227 829l-70 -73h-99l102 140h133l102 -140h-99zM64 610v90h325v-90h-102v-520h102v-90h-325v90h102v520h-102z" />
    <glyph glyph-name="Idieresis.ss01" horiz-adv-x="453" 
d="M174 884v-116h-124v116h124zM280 884h124v-116h-124v116zM64 610v90h325v-90h-102v-520h102v-90h-325v90h102v520h-102z" />
    <glyph glyph-name="Idotaccent.ss01" horiz-adv-x="453" 
d="M293 884v-115h-130v115h130zM389 610h-102v-520h102v-90h-325v90h102v520h-102v90h325v-90z" />
    <glyph glyph-name="Igrave.ss01" horiz-adv-x="453" 
d="M264 756h-93l-114 140h157zM389 610h-102v-520h102v-90h-325v90h102v520h-102v90h325v-90z" />
    <glyph glyph-name="Imacron.ss01" horiz-adv-x="453" 
d="M365 866v-82h-276v82h276zM389 610h-102v-520h102v-90h-325v90h102v520h-102v90h325v-90z" />
    <glyph glyph-name="Iogonek.ss01" horiz-adv-x="453" 
d="M389 610h-102v-520h102v-90h-102l-38.5 -27.5t-21.5 -22t-10 -27.5q0 -15 11 -24t28 -9q30 0 55 10v-80q-41 -11 -83 -11q-51 0 -86.5 25.5t-35.5 63.5q0 59 77 102h-119v90h102v520h-102v90h325v-90z" />
    <glyph glyph-name="I.case.ss01" horiz-adv-x="565" 
d="M501 602h-158v-504h158v-98h-437v98h158v504h-158v98h437v-98z" />
    <glyph glyph-name="IJ.case.ss01" horiz-adv-x="1113" 
d="M64 602v98h437v-98h-158v-504h158v-98h-437v98h158v504h-158zM899 700h120v-481q0 -101 -69.5 -165t-185.5 -64q-76 0 -150 24v113q80 -37 141 -37q64 0 104 36t40 92v482z" />
    <glyph glyph-name="Iacute.case.ss01" horiz-adv-x="565" 
d="M453 896l-114 -140h-93l50 140h157zM501 602h-158v-504h158v-98h-437v98h158v504h-158v98h437v-98z" />
    <glyph glyph-name="Icircumflex.case.ss01" horiz-adv-x="565" 
d="M283 829l-70 -73h-99l102 140h133l102 -140h-99zM501 602h-158v-504h158v-98h-437v98h158v504h-158v98h437v-98z" />
    <glyph glyph-name="Idieresis.case.ss01" horiz-adv-x="565" 
d="M230 884v-116h-124v116h124zM460 884v-116h-124v116h124zM501 602h-158v-504h158v-98h-437v98h158v504h-158v98h437v-98z" />
    <glyph glyph-name="Idotaccent.case.ss01" horiz-adv-x="565" 
d="M352 884v-115h-136v115h136zM501 602h-158v-504h158v-98h-437v98h158v504h-158v98h437v-98z" />
    <glyph glyph-name="Igrave.case.ss01" horiz-adv-x="565" 
d="M320 756h-93l-114 140h157zM501 602h-158v-504h158v-98h-437v98h158v504h-158v98h437v-98z" />
    <glyph glyph-name="Imacron.case.ss01" horiz-adv-x="565" 
d="M421 866v-82h-276v82h276zM501 602h-158v-504h158v-98h-437v98h158v504h-158v98h437v-98z" />
    <glyph glyph-name="Iogonek.case.ss01" horiz-adv-x="565" 
d="M501 602h-158v-504h158v-98h-158l-38.5 -27.5t-21.5 -22t-10 -27.5q0 -15 11 -24t28 -9q30 0 55 10v-80q-41 -11 -83 -11q-51 0 -86.5 25.5t-35.5 63.5q0 59 77 102h-175v98h158v504h-158v98h437v-98z" />
    <glyph glyph-name="IJ.ss02" horiz-adv-x="867" 
d="M99 0v700h121v-700h-121zM773 700v-481q0 -101 -69.5 -165t-185.5 -64q-76 0 -150 24v113q80 -37 141 -37q64 0 104 36t40 92v382h-246v100h366z" />
    <glyph glyph-name="J.ss02" horiz-adv-x="548" 
d="M454 700v-481q0 -101 -69.5 -165t-185.5 -64q-76 0 -150 24v113q80 -37 141 -37q64 0 104 36t40 92v382h-246v100h366z" />
    <glyph glyph-name="Q.ss03" horiz-adv-x="826" 
d="M413 712q157 0 253 -101t96 -262q0 -159 -96 -259.5t-253 -100.5t-253 100.5t-96 259.5q0 161 96 262t253 101zM413 611q-101 0 -162.5 -73t-61.5 -189q0 -114 61.5 -186.5t162.5 -72.5t162.5 72.5t61.5 186.5q0 116 -61.5 189t-162.5 73zM760 -155h-356v98h356v-98z" />
    <glyph glyph-name="R.ss04" horiz-adv-x="732" 
d="M620 187l76 -187h-138l-76 208q-21 58 -68 76.5t-135 18.5h-59v-303h-121v700h343q99 0 162 -52t63 -137q0 -148 -177 -176q47 -12 74.5 -44.5t55.5 -103.5zM220 395h190q64 0 99.5 32t35.5 81q0 43 -32.5 71t-82.5 28h-210v-212z" />
    <glyph glyph-name="Racute.ss04" horiz-adv-x="732" 
d="M527 896l-114 -140h-93l50 140h157zM620 187l76 -187h-138l-76 208q-21 58 -68 76.5t-135 18.5h-59v-303h-121v700h343q99 0 162 -52t63 -137q0 -148 -177 -176q47 -12 74.5 -44.5t55.5 -103.5zM220 395h190q64 0 99.5 32t35.5 81q0 43 -32.5 71t-82.5 28h-210v-212z" />
    <glyph glyph-name="Rcaron.ss04" horiz-adv-x="732" 
d="M423 756h-133l-102 140h99l70 -73l69 73h99zM620 187l76 -187h-138l-76 208q-21 58 -68 76.5t-135 18.5h-59v-303h-121v700h343q99 0 162 -52t63 -137q0 -148 -177 -176q47 -12 74.5 -44.5t55.5 -103.5zM220 395h190q64 0 99.5 32t35.5 81q0 43 -32.5 71t-82.5 28h-210
v-212z" />
    <glyph glyph-name="Rcommaaccent.ss04" horiz-adv-x="732" 
d="M620 187l76 -187h-138l-76 208q-21 58 -68 76.5t-135 18.5h-59v-303h-121v700h343q99 0 162 -52t63 -137q0 -148 -177 -176q47 -12 74.5 -44.5t55.5 -103.5zM220 395h190q64 0 99.5 32t35.5 81q0 43 -32.5 71t-82.5 28h-210v-212zM295 -193l30 141h132l-83 -141h-79z" />
    <glyph glyph-name="K.ss15" horiz-adv-x="737" 
d="M551 0l-195 334l-136 -160v-174h-121v700h121v-373l306 373h141l-235 -276l264 -424h-145z" />
    <glyph glyph-name="Kcommaaccent.ss15" horiz-adv-x="737" 
d="M432 424l264 -424h-145l-195 334l-136 -160v-174h-121v700h121v-373l306 373h141zM283 -193l30 141h132l-83 -141h-79z" />
    <glyph glyph-name="i.loclTRK" horiz-adv-x="233" 
d="M49 592v108h135v-108h-135zM65 0v504h111v-504h-111z" />
    <glyph glyph-name="b.ordn" horiz-adv-x="481" 
d="M275 297q-40 0 -72.5 20t-47.5 50h-1v-61h-95v540h95v-207h1q13 29 45.5 48.5t74.5 19.5q82 0 131 -56t49 -147q0 -93 -49 -150t-131 -57zM253 630q-47 0 -74 -34t-28 -89v-7q0 -56 27.5 -90.5t74.5 -34.5q50 0 79 36t29 93q0 56 -29 91t-79 35z" />
    <glyph glyph-name="c.ordn" horiz-adv-x="452" 
d="M419 458q-8 -72 -59 -116.5t-127 -44.5q-89 0 -144 57.5t-55 148.5q0 89 55 146.5t144 57.5q75 0 126 -44t60 -114h-96q-5 37 -29 59t-61 22q-49 0 -76.5 -35t-27.5 -92t27.5 -92.5t76.5 -35.5q37 0 61 22.5t29 60.5h96z" />
    <glyph glyph-name="d.ordn" horiz-adv-x="481" 
d="M205 297q-82 0 -130.5 57.5t-48.5 149.5q0 91 48.5 147t130.5 56q43 0 75 -19.5t45 -48.5h1v207h96v-540h-96v61h-1q-14 -30 -46.5 -50t-73.5 -20zM228 630q-50 0 -79 -35t-29 -91q0 -57 29 -93t79 -36q47 0 74.5 34.5t27.5 90.5v7q-1 55 -28.5 89t-73.5 34z" />
    <glyph glyph-name="e.ordn" horiz-adv-x="445" 
d="M417 432q-16 -65 -68 -100t-123 -35q-92 0 -146 56t-54 149q0 89 55.5 147t142.5 58t141 -56.5t54 -146.5v-26h-301v-3q3 -48 33 -77.5t75 -29.5q75 0 95 64h96zM119 536h207q-2 48 -29.5 76.5t-72.5 28.5q-44 0 -72.5 -29t-32.5 -76z" />
    <glyph glyph-name="egrave.ordn" horiz-adv-x="445" 
d="M268 753h-69l-66 93h107zM417 432q-16 -65 -68 -100t-123 -35q-92 0 -146 56t-54 149q0 89 55.5 147t142.5 58t141 -56.5t54 -146.5v-26h-301v-3q3 -48 33 -77.5t75 -29.5q75 0 95 64h96zM119 536h207q-2 48 -29.5 76.5t-72.5 28.5q-44 0 -72.5 -29t-32.5 -76z" />
    <glyph glyph-name="h.ordn" horiz-adv-x="470" 
d="M280 707q67 0 105 -42.5t38 -115.5v-243h-95v219q0 46 -21.5 71.5t-58.5 25.5q-45 0 -73.5 -30t-28.5 -86v-200h-95v540h95v-228q36 89 134 89z" />
    <glyph glyph-name="i.ordn" horiz-adv-x="192" 
d="M42 762v84h112v-84h-112zM50 306v392h96v-392h-96z" />
    <glyph glyph-name="l.ordn" horiz-adv-x="197" 
d="M51 846h95v-540h-95v540z" />
    <glyph glyph-name="m.ordn" horiz-adv-x="717" 
d="M529 707q65 0 103 -42t38 -123v-236h-95v224q0 45 -21 69t-57 24q-42 0 -65 -26.5t-23 -75.5v-215h-96v224q0 45 -20.5 69t-57.5 24q-42 0 -65.5 -26.5t-23.5 -75.5v-215h-95v392h95v-74q35 83 125 83q92 0 124 -80q40 80 134 80z" />
    <glyph glyph-name="n.ordn" horiz-adv-x="470" 
d="M280 707q67 0 105 -42.5t38 -115.5v-243h-95v219q0 46 -21.5 71.5t-58.5 25.5q-45 0 -73.5 -30t-28.5 -86v-200h-95v392h95v-80q36 89 134 89z" />
    <glyph glyph-name="r.ordn" horiz-adv-x="332" 
d="M146 588q36 117 172 117v-101q-89 8 -130.5 -27.5t-41.5 -119.5v-151h-95v392h95v-110z" />
    <glyph glyph-name="s.ordn" horiz-adv-x="389" 
d="M275 574q-8 68 -81 68q-72 0 -72 -48q0 -22 18.5 -31.5t75.5 -22.5q30 -6 46.5 -10.5t40 -14.5t35.5 -21t21 -30t9 -44q0 -58 -44.5 -90.5t-120.5 -32.5q-80 0 -128.5 36.5t-53.5 107.5h89q6 -76 91 -76q75 0 75 50q0 24 -19.5 35t-76.5 24q-31 7 -47.5 11.5t-38.5 13.5
t-33 20t-19.5 29t-8.5 42q0 57 43.5 87t117.5 30q73 0 117.5 -33.5t51.5 -99.5h-88z" />
    <glyph glyph-name="t.ordn" horiz-adv-x="350" 
d="M334 621h-151v-181q0 -28 20 -45.5t49 -17.5q32 0 82 21v-83q-48 -18 -101 -18q-62 0 -103.5 37t-41.5 94v193h-82v77h20q33 0 47.5 13t14.5 43v46h95v-102h151v-77z" />
    <glyph glyph-name="u.ordn" horiz-adv-x="472" 
d="M421 698v-392h-95v79q-35 -88 -131 -88q-66 0 -106 43t-40 121v237h95v-219q0 -47 21.5 -72.5t58.5 -25.5q45 0 73.5 30.5t28.5 86.5v200h95z" />
    <glyph glyph-name="a.ss05" horiz-adv-x="562" 
d="M276 516q100 0 155.5 -50t55.5 -139v-327h-108v74h-2q-20 -30 -63.5 -54.5t-107.5 -24.5q-75 0 -120 39t-45 105q0 170 279 170h59v19q0 47 -27.5 74t-75.5 27q-46 0 -74 -23t-31 -63h-108q2 81 60 127t153 46zM239 76q58 0 99 34.5t41 82.5v41h-59q-169 0 -169 -88
q0 -33 23.5 -51.5t64.5 -18.5z" />
    <glyph glyph-name="aacute.ss05" horiz-adv-x="562" 
d="M424 709l-114 -149h-85l47 149h152zM276 516q100 0 155.5 -50t55.5 -139v-327h-108v74h-2q-20 -30 -63.5 -54.5t-107.5 -24.5q-75 0 -120 39t-45 105q0 170 279 170h59v19q0 47 -27.5 74t-75.5 27q-46 0 -74 -23t-31 -63h-108q2 81 60 127t153 46zM239 76q58 0 99 34.5
t41 82.5v41h-59q-169 0 -169 -88q0 -33 23.5 -51.5t64.5 -18.5z" />
    <glyph glyph-name="abreve.ss05" horiz-adv-x="562" 
d="M272 564q-68 0 -109.5 38t-42.5 106h89q0 -35 17.5 -54t45.5 -19q29 0 48 19.5t19 53.5h87q-1 -68 -43 -106t-111 -38zM276 516q100 0 155.5 -50t55.5 -139v-327h-108v74h-2q-20 -30 -63.5 -54.5t-107.5 -24.5q-75 0 -120 39t-45 105q0 170 279 170h59v19q0 47 -27.5 74
t-75.5 27q-46 0 -74 -23t-31 -63h-108q2 81 60 127t153 46zM239 76q58 0 99 34.5t41 82.5v41h-59q-169 0 -169 -88q0 -33 23.5 -51.5t64.5 -18.5z" />
    <glyph glyph-name="acircumflex.ss05" horiz-adv-x="562" 
d="M272 638l-64 -78h-83l84 146h125l84 -146h-83zM276 516q100 0 155.5 -50t55.5 -139v-327h-108v74h-2q-20 -30 -63.5 -54.5t-107.5 -24.5q-75 0 -120 39t-45 105q0 170 279 170h59v19q0 47 -27.5 74t-75.5 27q-46 0 -74 -23t-31 -63h-108q2 81 60 127t153 46zM239 76
q58 0 99 34.5t41 82.5v41h-59q-169 0 -169 -88q0 -33 23.5 -51.5t64.5 -18.5z" />
    <glyph glyph-name="adieresis.ss05" horiz-adv-x="562" 
d="M226 709v-117h-124v117h124zM442 709v-117h-124v117h124zM276 516q100 0 155.5 -50t55.5 -139v-327h-108v74h-2q-20 -30 -63.5 -54.5t-107.5 -24.5q-75 0 -120 39t-45 105q0 170 279 170h59v19q0 47 -27.5 74t-75.5 27q-46 0 -74 -23t-31 -63h-108q2 81 60 127t153 46z
M239 76q58 0 99 34.5t41 82.5v41h-59q-169 0 -169 -88q0 -33 23.5 -51.5t64.5 -18.5z" />
    <glyph glyph-name="agrave.ss05" horiz-adv-x="562" 
d="M327 560h-85l-114 149h152zM276 516q100 0 155.5 -50t55.5 -139v-327h-108v74h-2q-20 -30 -63.5 -54.5t-107.5 -24.5q-75 0 -120 39t-45 105q0 170 279 170h59v19q0 47 -27.5 74t-75.5 27q-46 0 -74 -23t-31 -63h-108q2 81 60 127t153 46zM239 76q58 0 99 34.5t41 82.5
v41h-59q-169 0 -169 -88q0 -33 23.5 -51.5t64.5 -18.5z" />
    <glyph glyph-name="amacron.ss05" horiz-adv-x="562" 
d="M392 678v-82h-240v82h240zM276 516q100 0 155.5 -50t55.5 -139v-327h-108v74h-2q-20 -30 -63.5 -54.5t-107.5 -24.5q-75 0 -120 39t-45 105q0 170 279 170h59v19q0 47 -27.5 74t-75.5 27q-46 0 -74 -23t-31 -63h-108q2 81 60 127t153 46zM239 76q58 0 99 34.5t41 82.5v41
h-59q-169 0 -169 -88q0 -33 23.5 -51.5t64.5 -18.5z" />
    <glyph glyph-name="aogonek.ss05" horiz-adv-x="562" 
d="M456 -110q30 0 55 10v-80q-41 -11 -83 -11q-51 0 -86.5 25.5t-35.5 63.5q0 59 77 102h-4v74h-2q-20 -30 -63.5 -54.5t-107.5 -24.5q-75 0 -120 39t-45 105q0 170 279 170h59v19q0 47 -27.5 74t-75.5 27q-46 0 -74 -23t-31 -63h-108q2 81 60 127t153 46q100 0 155.5 -50
t55.5 -139v-327l-38.5 -27.5t-21.5 -22t-10 -27.5q0 -15 11 -24t28 -9zM239 76q58 0 99 34.5t41 82.5v41h-59q-169 0 -169 -88q0 -33 23.5 -51.5t64.5 -18.5z" />
    <glyph glyph-name="aring.ss05" horiz-adv-x="562" 
d="M274 547q-45 0 -78 30t-33 75t33 75t78 30t78 -30t33 -75t-33 -75t-78 -30zM274 706q-22 0 -37 -15.5t-15 -38.5t15 -38.5t37 -15.5t37 15.5t15 38.5t-15 38.5t-37 15.5zM276 516q100 0 155.5 -50t55.5 -139v-327h-108v74h-2q-20 -30 -63.5 -54.5t-107.5 -24.5
q-75 0 -120 39t-45 105q0 170 279 170h59v19q0 47 -27.5 74t-75.5 27q-46 0 -74 -23t-31 -63h-108q2 81 60 127t153 46zM239 76q58 0 99 34.5t41 82.5v41h-59q-169 0 -169 -88q0 -33 23.5 -51.5t64.5 -18.5z" />
    <glyph glyph-name="atilde.ss05" horiz-adv-x="562" 
d="M229 612q-33 0 -35 -35h-78q1 56 31.5 81t75.5 25q32 0 60 -17.5t43 -17.5q20 0 27.5 9t8.5 26h77q0 -56 -29.5 -81.5t-76.5 -25.5q-32 0 -60.5 18t-43.5 18zM276 516q100 0 155.5 -50t55.5 -139v-327h-108v74h-2q-20 -30 -63.5 -54.5t-107.5 -24.5q-75 0 -120 39
t-45 105q0 170 279 170h59v19q0 47 -27.5 74t-75.5 27q-46 0 -74 -23t-31 -63h-108q2 81 60 127t153 46zM239 76q58 0 99 34.5t41 82.5v41h-59q-169 0 -169 -88q0 -33 23.5 -51.5t64.5 -18.5z" />
    <glyph glyph-name="g.ss06" horiz-adv-x="588" 
d="M584 561v-109q-78 -2 -117 -5q41 -46 41 -107q0 -78 -63.5 -126.5t-162.5 -48.5q-41 0 -83 10q-18 -23 -18 -43q0 -31 46 -31h141q81 0 126 -39.5t45 -101.5q0 -75 -75 -123.5t-187 -48.5t-178.5 40t-66.5 104q0 42 27 71t79 39q-52 22 -52 69t54 89q-82 48 -82 140
q0 79 62 127.5t162 48.5q84 0 142 -35q65 80 160 80zM280 239q52 0 84 27.5t32 73.5q0 47 -32 74.5t-84 27.5q-50 0 -80.5 -27.5t-30.5 -74.5q0 -46 30.5 -73.5t80.5 -27.5zM348 10h-135q-71 0 -71 -64q0 -35 37.5 -56t104.5 -21q60 0 101 23.5t41 60.5q0 57 -78 57z" />
    <glyph glyph-name="gbreve.ss06" horiz-adv-x="588" 
d="M296 564q-68 0 -109.5 38t-42.5 106h89q0 -35 17.5 -54t45.5 -19q29 0 48 19.5t19 53.5h87q-1 -68 -43 -106t-111 -38zM584 561v-109q-78 -2 -117 -5q41 -46 41 -107q0 -78 -63.5 -126.5t-162.5 -48.5q-41 0 -83 10q-18 -23 -18 -43q0 -31 46 -31h141q81 0 126 -39.5
t45 -101.5q0 -75 -75 -123.5t-187 -48.5t-178.5 40t-66.5 104q0 42 27 71t79 39q-52 22 -52 69t54 89q-82 48 -82 140q0 79 62 127.5t162 48.5q84 0 142 -35q65 80 160 80zM280 239q52 0 84 27.5t32 73.5q0 47 -32 74.5t-84 27.5q-50 0 -80.5 -27.5t-30.5 -74.5
q0 -46 30.5 -73.5t80.5 -27.5zM348 10h-135q-71 0 -71 -64q0 -35 37.5 -56t104.5 -21q60 0 101 23.5t41 60.5q0 57 -78 57z" />
    <glyph glyph-name="gcommaaccent.ss06" horiz-adv-x="588" 
d="M376 701l-30 -141h-132l83 141h79zM584 561v-109q-78 -2 -117 -5q41 -46 41 -107q0 -78 -63.5 -126.5t-162.5 -48.5q-41 0 -83 10q-18 -23 -18 -43q0 -31 46 -31h141q81 0 126 -39.5t45 -101.5q0 -75 -75 -123.5t-187 -48.5t-178.5 40t-66.5 104q0 42 27 71t79 39
q-52 22 -52 69t54 89q-82 48 -82 140q0 79 62 127.5t162 48.5q84 0 142 -35q65 80 160 80zM280 239q52 0 84 27.5t32 73.5q0 47 -32 74.5t-84 27.5q-50 0 -80.5 -27.5t-30.5 -74.5q0 -46 30.5 -73.5t80.5 -27.5zM348 10h-135q-71 0 -71 -64q0 -35 37.5 -56t104.5 -21
q60 0 101 23.5t41 60.5q0 57 -78 57z" />
    <glyph glyph-name="gdotaccent.ss06" horiz-adv-x="588" 
d="M365 709v-117h-135v117h135zM584 561v-109q-78 -2 -117 -5q41 -46 41 -107q0 -78 -63.5 -126.5t-162.5 -48.5q-41 0 -83 10q-18 -23 -18 -43q0 -31 46 -31h141q81 0 126 -39.5t45 -101.5q0 -75 -75 -123.5t-187 -48.5t-178.5 40t-66.5 104q0 42 27 71t79 39
q-52 22 -52 69t54 89q-82 48 -82 140q0 79 62 127.5t162 48.5q84 0 142 -35q65 80 160 80zM280 239q52 0 84 27.5t32 73.5q0 47 -32 74.5t-84 27.5q-50 0 -80.5 -27.5t-30.5 -74.5q0 -46 30.5 -73.5t80.5 -27.5zM348 10h-135q-71 0 -71 -64q0 -35 37.5 -56t104.5 -21
q60 0 101 23.5t41 60.5q0 57 -78 57z" />
    <glyph glyph-name="l.ss07" horiz-adv-x="326" 
d="M300 7q-48 -16 -81 -16q-65 0 -102.5 40t-37.5 105v564h112v-551q0 -27 13 -43.5t33 -16.5q27 0 63 17v-99z" />
    <glyph glyph-name="lacute.ss07" horiz-adv-x="326" 
d="M96 756l47 149h152l-114 -149h-85zM300 7q-48 -16 -81 -16q-65 0 -102.5 40t-37.5 105v564h112v-551q0 -27 13 -43.5t33 -16.5q27 0 63 17v-99z" />
    <glyph glyph-name="lcaron.ss07" horiz-adv-x="326" 
d="M300 7q-48 -16 -81 -16q-65 0 -102.5 40t-37.5 105v564h112v-551q0 -27 13 -43.5t33 -16.5q27 0 63 17v-99zM267 700h108l-52 -139h-74z" />
    <glyph glyph-name="lcommaaccent.ss07" horiz-adv-x="326" 
d="M300 7q-48 -16 -81 -16q-65 0 -102.5 40t-37.5 105v564h112v-551q0 -27 13 -43.5t33 -16.5q27 0 63 17v-99zM79 -193l30 141h132l-83 -141h-79z" />
    <glyph glyph-name="lslash.ss07" horiz-adv-x="322" 
d="M243 89q27 0 63 17v-99q-48 -16 -81 -16q-65 0 -102.5 40t-37.5 105v162l-64 -28v91l64 28v311h112v-261l88 39v-91l-88 -39v-199q0 -27 13 -43.5t33 -16.5z" />
    <glyph glyph-name="l.ordn.ss07" horiz-adv-x="233" 
d="M219 308q-33 -11 -59 -11q-54 0 -85 32t-31 84v433h95v-420q0 -20 11 -32.5t28 -12.5t41 11v-84z" />
    <glyph glyph-name="y.ss08" horiz-adv-x="546" 
d="M422 504h116l-296 -705h-116l87 207l-205 498h125l134 -369z" />
    <glyph glyph-name="yacute.ss08" horiz-adv-x="546" 
d="M431 709l-114 -149h-85l47 149h152zM422 504h116l-296 -705h-116l87 207l-205 498h125l134 -369z" />
    <glyph glyph-name="ycircumflex.ss08" horiz-adv-x="546" 
d="M279 638l-64 -78h-83l84 146h125l84 -146h-83zM422 504h116l-296 -705h-116l87 207l-205 498h125l134 -369z" />
    <glyph glyph-name="ydieresis.ss08" horiz-adv-x="546" 
d="M233 709v-117h-124v117h124zM449 709v-117h-124v117h124zM422 504h116l-296 -705h-116l87 207l-205 498h125l134 -369z" />
    <glyph glyph-name="ygrave.ss08" horiz-adv-x="546" 
d="M327 560h-85l-114 149h152zM422 504h116l-296 -705h-116l87 207l-205 498h125l134 -369z" />
    <glyph glyph-name="y.ss09" horiz-adv-x="620" 
d="M541 504v-506q0 -92 -67.5 -150t-172.5 -58t-170 50.5t-74 137.5h115q9 -43 43.5 -71t85.5 -28q56 0 92 32.5t36 82.5v117q-49 -98 -163 -98q-90 0 -140.5 57.5t-50.5 157.5v276h112v-265q0 -60 27.5 -94t75.5 -34q64 0 101.5 42t37.5 113v238h112z" />
    <glyph glyph-name="yacute.ss09" horiz-adv-x="620" 
d="M463 709l-114 -149h-85l47 149h152zM541 504v-506q0 -92 -67.5 -150t-172.5 -58t-170 50.5t-74 137.5h115q9 -43 43.5 -71t85.5 -28q56 0 92 32.5t36 82.5v117q-49 -98 -163 -98q-90 0 -140.5 57.5t-50.5 157.5v276h112v-265q0 -60 27.5 -94t75.5 -34q64 0 101.5 42
t37.5 113v238h112z" />
    <glyph glyph-name="ycircumflex.ss09" horiz-adv-x="620" 
d="M311 638l-64 -78h-83l84 146h125l84 -146h-83zM541 504v-506q0 -92 -67.5 -150t-172.5 -58t-170 50.5t-74 137.5h115q9 -43 43.5 -71t85.5 -28q56 0 92 32.5t36 82.5v117q-49 -98 -163 -98q-90 0 -140.5 57.5t-50.5 157.5v276h112v-265q0 -60 27.5 -94t75.5 -34
q64 0 101.5 42t37.5 113v238h112z" />
    <glyph glyph-name="ydieresis.ss09" horiz-adv-x="620" 
d="M265 709v-117h-124v117h124zM481 709v-117h-124v117h124zM541 504v-506q0 -92 -67.5 -150t-172.5 -58t-170 50.5t-74 137.5h115q9 -43 43.5 -71t85.5 -28q56 0 92 32.5t36 82.5v117q-49 -98 -163 -98q-90 0 -140.5 57.5t-50.5 157.5v276h112v-265q0 -60 27.5 -94
t75.5 -34q64 0 101.5 42t37.5 113v238h112z" />
    <glyph glyph-name="ygrave.ss09" horiz-adv-x="620" 
d="M356 560h-85l-114 149h152zM541 504v-506q0 -92 -67.5 -150t-172.5 -58t-170 50.5t-74 137.5h115q9 -43 43.5 -71t85.5 -28q56 0 92 32.5t36 82.5v117q-49 -98 -163 -98q-90 0 -140.5 57.5t-50.5 157.5v276h112v-265q0 -60 27.5 -94t75.5 -34q64 0 101.5 42t37.5 113v238
h112z" />
    <glyph glyph-name="germandbls.ss10" horiz-adv-x="648" 
d="M440 387q0 -17 18 -33t44 -33t51.5 -37t43.5 -53.5t18 -74.5q0 -74 -57 -120.5t-144 -46.5q-57 0 -114 22l1 106q62 -35 105 -35q41 0 69.5 21.5t28.5 56.5q0 27 -17.5 48t-42 36.5l-49 31.5t-42 41t-17.5 57q0 28 15 52t32.5 39t32.5 37.5t15 47.5q0 34 -26 56t-68 22
q-58 0 -86.5 -36.5t-28.5 -99.5v-492h-111v412h-100v92h100q5 96 65 154t162 58q90 0 148 -45t58 -117q0 -28 -10.5 -51.5t-26 -38.5t-31 -27.5t-26 -25t-10.5 -24.5z" />
    <glyph glyph-name="f.ss11" horiz-adv-x="398" 
d="M285 629q-46 0 -70 -24t-24 -68v-33h186v-90h-186v-414h-112v537q0 83 54 132.5t143 49.5q47 0 101 -19v-89q-53 18 -92 18z" />
    <glyph glyph-name="t.ordn.ss11" horiz-adv-x="307" 
d="M291 621h-150v-181q0 -28 20 -45.5t48 -17.5q32 0 82 21v-83q-48 -18 -101 -18q-62 0 -103.5 37t-41.5 94v372h96v-102h150v-77z" />
    <glyph glyph-name="t.ss11" horiz-adv-x="392" 
d="M369 414h-186v-239q0 -43 23.5 -66t67.5 -23q41 0 95 21v-97q-51 -20 -106 -20q-88 0 -140 47.5t-52 127.5v495h112v-156h186v-90z" />
    <glyph glyph-name="tbar.ss11" horiz-adv-x="392" 
d="M369 414h-186v-97h163v-67h-163v-75q0 -43 23.5 -66t67.5 -23q41 0 95 21v-97q-51 -20 -106 -20q-88 0 -140 47.5t-52 127.5v495h112v-156h186v-90z" />
    <glyph glyph-name="tcaron.ss11" horiz-adv-x="392" 
d="M360 700l-52 -139h-74l18 139h108zM369 414h-186v-239q0 -43 23.5 -66t67.5 -23q41 0 95 21v-97q-51 -20 -106 -20q-88 0 -140 47.5t-52 127.5v495h112v-156h186v-90z" />
    <glyph glyph-name="uni0163.ss11" horiz-adv-x="392" 
d="M369 414h-186v-239q0 -43 23.5 -66t67.5 -23q41 0 95 21v-97q-51 -20 -106 -20h-2l-35 -44h6q43 0 70.5 -23t27.5 -59q0 -37 -30 -61t-75 -24q-46 0 -77 26t-36 67l73 8q1 -19 11.5 -29.5t25.5 -10.5q14 0 23 7t9 19q0 31 -50 31h-34l-17 40l53 59q-64 14 -99.5 58.5
t-35.5 110.5v495h112v-156h186v-90z" />
    <glyph glyph-name="uni021B.ss11" horiz-adv-x="392" 
d="M369 414h-186v-239q0 -43 23.5 -66t67.5 -23q41 0 95 21v-97q-51 -20 -106 -20q-88 0 -140 47.5t-52 127.5v495h112v-156h186v-90zM125 -193l30 141h132l-83 -141h-79z" />
    <glyph glyph-name="k.ss15" horiz-adv-x="572" 
d="M434 0l-143 234l-100 -109v-125h-112v700h112v-441l221 245h126l-178 -195l196 -309h-122z" />
    <glyph glyph-name="kcommaaccent.ss15" horiz-adv-x="572" 
d="M360 309l196 -309h-122l-143 234l-100 -109v-125h-112v700h112v-441l221 245h126zM200 -193l30 141h132l-83 -141h-79z" />
    <glyph glyph-name="f_f" horiz-adv-x="799" 
d="M682 626q-45 0 -69.5 -23t-24.5 -66v-33h191v-90h-191v-414h-111v414h-253v-414h-111v414h-102v90h102v33q0 83 54 132.5t143 49.5q48 0 105 -19v-92q-54 18 -97 18q-45 0 -69.5 -23t-24.5 -66v-33h253v33q0 83 54 132.5t143 49.5q48 0 105 -19v-92q-54 18 -97 18z" />
    <glyph glyph-name="f_f_f" horiz-adv-x="1163" 
d="M1046 626q-45 0 -69.5 -23t-24.5 -66v-33h191v-90h-191v-414h-111v414h-253v-414h-111v414h-253v-414h-111v414h-102v90h102v33q0 83 54 132.5t143 49.5q48 0 105 -19v-92q-54 18 -97 18q-45 0 -69.5 -23t-24.5 -66v-33h253v33q0 83 54 132.5t143 49.5q48 0 105 -19v-92
q-54 18 -97 18q-45 0 -69.5 -23t-24.5 -66v-33h253v33q0 83 54 132.5t143 49.5q48 0 105 -19v-92q-54 18 -97 18z" />
    <glyph glyph-name="f_f_i" horiz-adv-x="1036" 
d="M954 504v-504h-111v414h-251v-414h-111v414h-257v-414h-111v414h-102v90h102v17q0 90 65 144t165 54q53 0 108 -15v-94q-52 16 -104 16q-55 0 -89 -27.5t-34 -77.5v-17h257v17q0 90 65 144t165 54q78 0 152 -29v-95q-80 31 -148 31q-55 0 -89 -27.5t-34 -77.5v-17h362z
" />
    <glyph glyph-name="f_f_j" horiz-adv-x="1015" 
d="M951 504v-557q0 -70 -46 -115t-116 -45q-51 0 -108 16v96q54 -20 89 -20q30 0 49.5 19.5t19.5 48.5v467h-247v-414h-111v414h-257v-414h-111v414h-102v90h102v17q0 90 65 144t165 54q53 0 108 -15v-94q-52 16 -104 16q-55 0 -89 -27.5t-34 -77.5v-17h257v17q0 90 65 144
t165 54q78 0 152 -29v-95q-80 31 -148 31q-55 0 -89 -27.5t-34 -77.5v-17h359z" />
    <glyph glyph-name="f_j" horiz-adv-x="648" 
d="M583 504v-557q0 -70 -46 -115t-116 -45q-50 0 -108 16v96q55 -20 89 -20q30 0 49.5 19.5t19.5 48.5v467h-247v-414h-111v414h-102v90h102v17q0 90 65 144t165 54q78 0 152 -29v-95q-80 31 -148 31q-55 0 -89 -27.5t-34 -77.5v-17h359z" />
    <glyph glyph-name="fl.ss07" horiz-adv-x="752" 
d="M113 536q0 83 54 132.5t143 49.5q46 0 95 -17v-92q-47 16 -87 16q-94 0 -94 -89v-32h181v-90h-181v-414h-111v414h-102v90h102v32zM663 89q27 0 63 17v-99q-48 -16 -81 -16q-65 0 -102.5 40t-37.5 105v564h112v-551q0 -27 13 -43.5t33 -16.5z" />
    <glyph glyph-name="fi.ss11" horiz-adv-x="664" 
d="M285 629q-46 0 -70 -24t-24 -68v-33h186v-90h-186v-414h-112v537q0 83 54 132.5t143 49.5q47 0 101 -19v-89q-53 18 -92 18zM463 592v117h137v-117h-137zM475 0v504h112v-504h-112z" />
    <glyph glyph-name="fl.ss11" horiz-adv-x="664" 
d="M285 629q-46 0 -70 -24t-24 -68v-33h186v-90h-186v-414h-112v537q0 83 54 132.5t143 49.5q47 0 101 -19v-89q-53 18 -92 18zM475 700h112v-700h-112v700z" />
    <glyph glyph-name="a.sc" horiz-adv-x="681" 
d="M520 0l-49 123h-260l-49 -123h-117l238 557h116l237 -557h-116zM246 209h190l-95 237z" />
    <glyph glyph-name="aacute.sc" horiz-adv-x="681" 
d="M504 762l-114 -149h-85l47 149h152zM520 0l-49 123h-260l-49 -123h-117l238 557h116l237 -557h-116zM246 209h190l-95 237z" />
    <glyph glyph-name="abreve.sc" horiz-adv-x="681" 
d="M341 617q-68 0 -109.5 38t-42.5 106h89q0 -35 17.5 -54t45.5 -19q29 0 48 19.5t19 53.5h87q-1 -68 -43 -106t-111 -38zM520 0l-49 123h-260l-49 -123h-117l238 557h116l237 -557h-116zM246 209h190l-95 237z" />
    <glyph glyph-name="acircumflex.sc" horiz-adv-x="681" 
d="M341 691l-64 -78h-83l84 146h125l84 -146h-83zM520 0l-49 123h-260l-49 -123h-117l238 557h116l237 -557h-116zM246 209h190l-95 237z" />
    <glyph glyph-name="adieresis.sc" horiz-adv-x="681" 
d="M295 762v-117h-124v117h124zM511 762v-117h-124v117h124zM520 0l-49 123h-260l-49 -123h-117l238 557h116l237 -557h-116zM246 209h190l-95 237z" />
    <glyph glyph-name="agrave.sc" horiz-adv-x="681" 
d="M386 613h-85l-114 149h152zM520 0l-49 123h-260l-49 -123h-117l238 557h116l237 -557h-116zM246 209h190l-95 237z" />
    <glyph glyph-name="amacron.sc" horiz-adv-x="681" 
d="M461 731v-82h-240v82h240zM520 0l-49 123h-260l-49 -123h-117l238 557h116l237 -557h-116zM246 209h190l-95 237z" />
    <glyph glyph-name="aogonek.sc" horiz-adv-x="681" 
d="M605 -110q30 0 55 10v-80q-41 -11 -83 -11q-51 0 -86.5 25.5t-35.5 63.5q0 59 77 102h-12l-49 123h-260l-49 -123h-117l238 557h116l237 -557l-38.5 -27.5t-21.5 -22t-10 -27.5q0 -15 11 -24t28 -9zM246 209h190l-95 237z" />
    <glyph glyph-name="aring.sc" horiz-adv-x="681" 
d="M343 600q-45 0 -78 30t-33 75t33 75t78 30t78 -30t33 -75t-33 -75t-78 -30zM343 759q-22 0 -37 -15.5t-15 -38.5t15 -38.5t37 -15.5t37 15.5t15 38.5t-15 38.5t-37 15.5zM520 0l-49 123h-260l-49 -123h-117l238 557h116l237 -557h-116zM246 209h190l-95 237z" />
    <glyph glyph-name="atilde.sc" horiz-adv-x="681" 
d="M298 665q-33 0 -35 -35h-78q1 56 31.5 81t75.5 25q32 0 60 -17.5t43 -17.5q20 0 27.5 9t8.5 26h77q0 -56 -29.5 -81.5t-76.5 -25.5q-32 0 -60.5 18t-43.5 18zM520 0l-49 123h-260l-49 -123h-117l238 557h116l237 -557h-116zM246 209h190l-95 237z" />
    <glyph glyph-name="ae.sc" horiz-adv-x="937" 
d="M869 467h-309v-142h291v-85h-291v-150h309v-90h-422v120h-205l-75 -120h-123l372 557h453v-90zM298 209h149v238z" />
    <glyph glyph-name="b.sc" horiz-adv-x="644" 
d="M450 287q134 -29 134 -135q0 -67 -52.5 -109.5t-139.5 -42.5h-288v557h270q89 0 137 -38.5t48 -101.5q0 -94 -109 -130zM215 472v-148h121q54 0 83.5 19.5t29.5 55.5q0 73 -99 73h-135zM364 85q50 0 79 22.5t29 58.5q0 77 -115 77h-142v-158h149z" />
    <glyph glyph-name="c.sc" horiz-adv-x="699" 
d="M629 196q-18 -96 -91 -151t-178 -55q-131 0 -211 80t-80 206q0 129 80.5 211t211.5 82q104 0 177.5 -57t90.5 -154h-119q-11 53 -52.5 85t-96.5 32q-78 0 -126 -56t-48 -143q0 -85 48 -138.5t126 -53.5q56 0 96.5 29.5t50.5 82.5h121z" />
    <glyph glyph-name="cacute.sc" horiz-adv-x="699" 
d="M313 613l47 149h152l-114 -149h-85zM629 196q-18 -96 -91 -151t-178 -55q-131 0 -211 80t-80 206q0 129 80.5 211t211.5 82q104 0 177.5 -57t90.5 -154h-119q-11 53 -52.5 85t-96.5 32q-78 0 -126 -56t-48 -143q0 -85 48 -138.5t126 -53.5q56 0 96.5 29.5t50.5 82.5h121z
" />
    <glyph glyph-name="ccaron.sc" horiz-adv-x="699" 
d="M506 759l-84 -146h-125l-84 146h83l64 -78l63 78h83zM629 196q-18 -96 -91 -151t-178 -55q-131 0 -211 80t-80 206q0 129 80.5 211t211.5 82q104 0 177.5 -57t90.5 -154h-119q-11 53 -52.5 85t-96.5 32q-78 0 -126 -56t-48 -143q0 -85 48 -138.5t126 -53.5
q56 0 96.5 29.5t50.5 82.5h121z" />
    <glyph glyph-name="ccedilla.sc" horiz-adv-x="699" 
d="M361 84q56 0 96.5 29.5t50.5 82.5h121q-17 -92 -84 -146t-165 -59l-35 -45h6q43 0 70.5 -23t27.5 -59q0 -37 -30 -61t-75 -24q-46 0 -77 26t-36 67l73 8q1 -19 11.5 -29.5t25.5 -10.5q14 0 23 7t9 19q0 31 -50 31h-34l-17 40l50 55q-115 12 -184 89.5t-69 194.5
q0 129 80.5 211t211.5 82q104 0 177.5 -57t90.5 -154h-119q-11 53 -52.5 85t-96.5 32q-78 0 -126 -56t-48 -143q0 -85 48 -138.5t126 -53.5z" />
    <glyph glyph-name="cdotaccent.sc" horiz-adv-x="699" 
d="M296 626v115h130v-115h-130zM629 196q-18 -96 -91 -151t-178 -55q-131 0 -211 80t-80 206q0 129 80.5 211t211.5 82q104 0 177.5 -57t90.5 -154h-119q-11 53 -52.5 85t-96.5 32q-78 0 -126 -56t-48 -143q0 -85 48 -138.5t126 -53.5q56 0 96.5 29.5t50.5 82.5h121z" />
    <glyph glyph-name="d.sc" horiz-adv-x="664" 
d="M291 557q142 0 223 -76.5t81 -195.5q0 -130 -80 -207.5t-224 -77.5h-187v557h187zM287 96q96 0 143 50.5t47 138.5q0 77 -48 127t-142 50h-70v-366h70z" />
    <glyph glyph-name="eth.sc" horiz-adv-x="664" 
d="M291 557q142 0 223 -76.5t81 -195.5q0 -130 -80 -207.5t-224 -77.5h-187v249h-71v67h71v241h187zM287 96q96 0 143 50.5t47 138.5q0 77 -48 127t-142 50h-70v-146h165v-67h-165v-153h70z" />
    <glyph glyph-name="dcaron.sc" horiz-adv-x="664" 
d="M480 759l-84 -146h-125l-84 146h83l64 -78l63 78h83zM291 557q142 0 223 -76.5t81 -195.5q0 -130 -80 -207.5t-224 -77.5h-187v557h187zM287 96q96 0 143 50.5t47 138.5q0 77 -48 127t-142 50h-70v-366h70z" />
    <glyph glyph-name="dcroat.sc" horiz-adv-x="664" 
d="M291 557q142 0 223 -76.5t81 -195.5q0 -130 -80 -207.5t-224 -77.5h-187v249h-86v67h86v241h187zM287 96q96 0 143 50.5t47 138.5q0 77 -48 127t-142 50h-70v-146h181v-67h-181v-153h70z" />
    <glyph glyph-name="e.sc" horiz-adv-x="594" 
d="M526 467h-309v-142h291v-85h-291v-150h309v-90h-422v557h422v-90z" />
    <glyph glyph-name="eacute.sc" horiz-adv-x="594" 
d="M272 613l47 149h152l-114 -149h-85zM526 467h-309v-142h291v-85h-291v-150h309v-90h-422v557h422v-90z" />
    <glyph glyph-name="ebreve.sc" horiz-adv-x="594" 
d="M319 617q-68 0 -109.5 38t-42.5 106h89q0 -35 17.5 -54t45.5 -19q29 0 48 19.5t19 53.5h87q-1 -68 -43 -106t-111 -38zM526 467h-309v-142h291v-85h-291v-150h309v-90h-422v557h422v-90z" />
    <glyph glyph-name="ecaron.sc" horiz-adv-x="594" 
d="M465 759l-84 -146h-125l-84 146h83l64 -78l63 78h83zM526 467h-309v-142h291v-85h-291v-150h309v-90h-422v557h422v-90z" />
    <glyph glyph-name="ecircumflex.sc" horiz-adv-x="594" 
d="M465 613h-83l-63 78l-64 -78h-83l84 146h125zM526 467h-309v-142h291v-85h-291v-150h309v-90h-422v557h422v-90z" />
    <glyph glyph-name="edieresis.sc" horiz-adv-x="594" 
d="M149 645v117h124v-117h-124zM365 645v117h124v-117h-124zM526 467h-309v-142h291v-85h-291v-150h309v-90h-422v557h422v-90z" />
    <glyph glyph-name="edotaccent.sc" horiz-adv-x="594" 
d="M253 645v117h135v-117h-135zM526 467h-309v-142h291v-85h-291v-150h309v-90h-422v557h422v-90z" />
    <glyph glyph-name="egrave.sc" horiz-adv-x="594" 
d="M371 609h-85l-114 149h152zM526 467h-309v-142h291v-85h-291v-150h309v-90h-422v557h422v-90z" />
    <glyph glyph-name="emacron.sc" horiz-adv-x="594" 
d="M199 731h240v-82h-240v82zM526 467h-309v-142h291v-85h-291v-150h309v-90h-422v557h422v-90z" />
    <glyph glyph-name="eogonek.sc" horiz-adv-x="594" 
d="M495 -110q30 0 55 10v-80q-41 -11 -83 -11q-51 0 -86.5 25.5t-35.5 63.5q0 59 77 102h-318v557h422v-90h-309v-142h291v-85h-291v-150h309v-90l-38.5 -27.5t-21.5 -22t-10 -27.5q0 -15 11 -24t28 -9z" />
    <glyph glyph-name="f.sc" horiz-adv-x="589" 
d="M526 462h-309v-148h296v-92h-296v-222h-113v557h422v-95z" />
    <glyph glyph-name="f_f.sc" horiz-adv-x="1178" 
d="M526 462h-309v-148h296v-92h-296v-222h-113v557h422v-95zM1115 462h-309v-148h296v-92h-296v-222h-113v557h422v-95z" />
    <glyph glyph-name="f_f_f.sc" horiz-adv-x="1767" 
d="M526 462h-309v-148h296v-92h-296v-222h-113v557h422v-95zM1115 462h-309v-148h296v-92h-296v-222h-113v557h422v-95zM1704 462h-309v-148h296v-92h-296v-222h-113v557h422v-95z" />
    <glyph glyph-name="f_f_i.sc" horiz-adv-x="1499" 
d="M526 462h-309v-148h296v-92h-296v-222h-113v557h422v-95zM1115 462h-309v-148h296v-92h-296v-222h-113v557h422v-95zM1282 0v557h113v-557h-113z" />
    <glyph glyph-name="f_f_j.sc" horiz-adv-x="1565" 
d="M526 462h-309v-148h296v-92h-296v-222h-113v557h422v-95zM1115 462h-309v-148h296v-92h-296v-222h-113v557h422v-95zM1140 106q48 -23 98 -23q49 0 82 28.5t33 72.5v373h113v-370q0 -85 -61 -140t-158 -55q-59 0 -107 14v100z" />
    <glyph glyph-name="f_j.sc" horiz-adv-x="976" 
d="M526 462h-309v-148h296v-92h-296v-222h-113v557h422v-95zM551 106q48 -23 98 -23q49 0 82 28.5t33 72.5v373h113v-370q0 -85 -61 -140t-158 -55q-59 0 -107 14v100z" />
    <glyph glyph-name="fi.sc" horiz-adv-x="910" 
d="M526 462h-309v-148h296v-92h-296v-222h-113v557h422v-95zM693 0v557h113v-557h-113z" />
    <glyph glyph-name="fl.sc" horiz-adv-x="1151" 
d="M104 0v557h422v-95h-309v-148h296v-92h-296v-222h-113zM806 95h278v-95h-391v557h113v-462z" />
    <glyph glyph-name="g.sc" horiz-adv-x="729" 
d="M358 301h281v-301h-83l-6 87q-60 -97 -193 -97q-129 0 -208.5 80.5t-79.5 207.5q0 129 80.5 210t211.5 81q107 0 178.5 -53.5t94.5 -148.5h-124q-14 52 -52 81.5t-96 29.5q-79 0 -127 -55.5t-48 -141.5q0 -88 49 -143.5t130 -55.5q68 0 117 38.5t57 95.5h-182v85z" />
    <glyph glyph-name="gbreve.sc" horiz-adv-x="729" 
d="M370 617q-68 0 -109.5 38t-42.5 106h89q0 -35 17.5 -54t45.5 -19q29 0 48 19.5t19 53.5h87q-1 -68 -43 -106t-111 -38zM358 301h281v-301h-83l-6 87q-60 -97 -193 -97q-129 0 -208.5 80.5t-79.5 207.5q0 129 80.5 210t211.5 81q107 0 178.5 -53.5t94.5 -148.5h-124
q-14 52 -52 81.5t-96 29.5q-79 0 -127 -55.5t-48 -141.5q0 -88 49 -143.5t130 -55.5q68 0 117 38.5t57 95.5h-182v85z" />
    <glyph glyph-name="gcommaaccent.sc" horiz-adv-x="729" 
d="M450 754l-30 -141h-132l83 141h79zM358 301h281v-301h-83l-6 87q-60 -97 -193 -97q-129 0 -208.5 80.5t-79.5 207.5q0 129 80.5 210t211.5 81q107 0 178.5 -53.5t94.5 -148.5h-124q-14 52 -52 81.5t-96 29.5q-79 0 -127 -55.5t-48 -141.5q0 -88 49 -143.5t130 -55.5
q68 0 117 38.5t57 95.5h-182v85z" />
    <glyph glyph-name="gdotaccent.sc" horiz-adv-x="729" 
d="M436 741v-115h-130v115h130zM358 301h281v-301h-83l-6 87q-60 -97 -193 -97q-129 0 -208.5 80.5t-79.5 207.5q0 129 80.5 210t211.5 81q107 0 178.5 -53.5t94.5 -148.5h-124q-14 52 -52 81.5t-96 29.5q-79 0 -127 -55.5t-48 -141.5q0 -88 49 -143.5t130 -55.5
q68 0 117 38.5t57 95.5h-182v85z" />
    <glyph glyph-name="h.sc" horiz-adv-x="714" 
d="M497 557h113v-557h-113v237h-280v-237h-113v557h113v-225h280v225z" />
    <glyph glyph-name="hbar.sc" horiz-adv-x="714" 
d="M640 476v-67h-30v-409h-113v237h-280v-237h-113v409h-34v67h34v81h113v-81h280v81h113v-81h30zM497 332v77h-280v-77h280z" />
    <glyph glyph-name="i.sc" horiz-adv-x="321" 
d="M104 0v557h113v-557h-113z" />
    <glyph glyph-name="dotlessi.sc" horiz-adv-x="321" 
d="M104 0v557h113v-557h-113z" />
    <glyph glyph-name="iacute.sc" horiz-adv-x="321" 
d="M114 613l47 149h152l-114 -149h-85zM104 0v557h113v-557h-113z" />
    <glyph glyph-name="icircumflex.sc" horiz-adv-x="321" 
d="M307 613h-83l-63 78l-64 -78h-83l84 146h125zM104 0v557h113v-557h-113z" />
    <glyph glyph-name="idieresis.sc" horiz-adv-x="321" 
d="M-9 645v117h124v-117h-124zM207 645v117h124v-117h-124zM104 0v557h113v-557h-113z" />
    <glyph glyph-name="i.sc.loclTRK" horiz-adv-x="321" 
d="M95 645v117h135v-117h-135zM104 0v557h113v-557h-113z" />
    <glyph glyph-name="igrave.sc" horiz-adv-x="321" 
d="M203 613h-85l-114 149h152zM104 0v557h113v-557h-113z" />
    <glyph glyph-name="ij.sc" horiz-adv-x="800" 
d="M104 0v557h113v-557h-113zM375 106q48 -23 98 -23q49 0 82 28.5t33 72.5v373h113v-370q0 -85 -61 -140t-158 -55q-59 0 -107 14v100z" />
    <glyph glyph-name="imacron.sc" horiz-adv-x="321" 
d="M41 731h240v-82h-240v82zM104 0v557h113v-557h-113z" />
    <glyph glyph-name="iogonek.sc" horiz-adv-x="321" 
d="M186 -110q30 0 55 10v-80q-41 -11 -83 -11q-51 0 -86.5 25.5t-35.5 63.5q0 59 77 102h-9v557h113v-557l-38.5 -27.5t-21.5 -22t-10 -27.5q0 -15 11 -24t28 -9z" />
    <glyph glyph-name="j.sc" horiz-adv-x="479" 
d="M54 106q48 -23 98 -23q49 0 82 28.5t33 72.5v373h113v-370q0 -85 -61 -140t-158 -55q-59 0 -107 14v100z" />
    <glyph glyph-name="k.sc" horiz-adv-x="665" 
d="M482 0l-155 232h-110v-232h-113v557h113v-225h106l143 225h130l-185 -271l209 -286h-138z" />
    <glyph glyph-name="kcommaaccent.sc" horiz-adv-x="665" 
d="M411 286l209 -286h-138l-155 232h-110v-232h-113v557h113v-225h106l143 225h130zM237 -193l30 141h132l-83 -141h-79z" />
    <glyph glyph-name="l.sc" horiz-adv-x="562" 
d="M217 95h278v-95h-391v557h113v-462z" />
    <glyph glyph-name="lacute.sc" horiz-adv-x="562" 
d="M322 756l-114 -149h-85l47 149h152zM217 95h278v-95h-391v557h113v-462z" />
    <glyph glyph-name="lcaron.sc" horiz-adv-x="562" 
d="M217 95h278v-95h-391v557h113v-462zM411 557l-52 -139h-74l18 139h108z" />
    <glyph glyph-name="lcommaaccent.sc" horiz-adv-x="562" 
d="M217 95h278v-95h-391v557h113v-462zM207 -193l30 141h132l-83 -141h-79z" />
    <glyph glyph-name="lslash.sc" horiz-adv-x="572" 
d="M222 95h278v-95h-391v213l-64 -31v89l64 31v255h113v-202l123 59v-89l-123 -59v-171z" />
    <glyph glyph-name="m.sc" horiz-adv-x="790" 
d="M578 557h108v-557h-110v388l-175 -238h-13l-174 238v-388h-110v557h108l183 -257z" />
    <glyph glyph-name="n.sc" horiz-adv-x="714" 
d="M498 557h112v-557h-95l-299 384v-384h-112v557h95l299 -385v385z" />
    <glyph glyph-name="nacute.sc" horiz-adv-x="714" 
d="M513 762l-114 -149h-85l47 149h152zM498 557h112v-557h-95l-299 384v-384h-112v557h95l299 -385v385z" />
    <glyph glyph-name="ncaron.sc" horiz-adv-x="714" 
d="M423 613h-125l-84 146h83l64 -78l63 78h83zM498 557h112v-557h-95l-299 384v-384h-112v557h95l299 -385v385z" />
    <glyph glyph-name="ncommaaccent.sc" horiz-adv-x="714" 
d="M498 557h112v-557h-95l-299 384v-384h-112v557h95l299 -385v385zM268 -193l30 141h132l-83 -141h-79z" />
    <glyph glyph-name="eng.sc" horiz-adv-x="714" 
d="M498 557h112v-610q0 -70 -45 -115t-115 -45q-51 0 -109 16v91q53 -15 92 -15q30 0 48 19t18 49v74l-283 363v-384h-112v557h95l299 -385v385z" />
    <glyph glyph-name="ntilde.sc" horiz-adv-x="714" 
d="M318 665q-33 0 -35 -35h-78q1 56 31.5 81t75.5 25q32 0 60 -17.5t43 -17.5q20 0 27.5 9t8.5 26h77q0 -56 -29.5 -81.5t-76.5 -25.5q-32 0 -60.5 18t-43.5 18zM498 557h112v-557h-95l-299 384v-384h-112v557h95l299 -385v385z" />
    <glyph glyph-name="o.sc" horiz-adv-x="721" 
d="M360 569q130 0 211 -81t81 -204q0 -132 -80 -213t-212 -81q-131 0 -211 81t-80 213q0 123 80.5 204t210.5 81zM360 474q-77 0 -125 -54.5t-48 -135.5q0 -90 47 -145t126 -55q80 0 127 54.5t47 145.5q0 81 -48 135.5t-126 54.5z" />
    <glyph glyph-name="oacute.sc" horiz-adv-x="721" 
d="M313 613l47 149h152l-114 -149h-85zM360 569q130 0 211 -81t81 -204q0 -132 -80 -213t-212 -81q-131 0 -211 81t-80 213q0 123 80.5 204t210.5 81zM360 474q-77 0 -125 -54.5t-48 -135.5q0 -90 47 -145t126 -55q80 0 127 54.5t47 145.5q0 81 -48 135.5t-126 54.5z" />
    <glyph glyph-name="ocircumflex.sc" horiz-adv-x="721" 
d="M506 613h-83l-63 78l-64 -78h-83l84 146h125zM360 569q130 0 211 -81t81 -204q0 -132 -80 -213t-212 -81q-131 0 -211 81t-80 213q0 123 80.5 204t210.5 81zM360 474q-77 0 -125 -54.5t-48 -135.5q0 -90 47 -145t126 -55q80 0 127 54.5t47 145.5q0 81 -48 135.5
t-126 54.5z" />
    <glyph glyph-name="odieresis.sc" horiz-adv-x="721" 
d="M190 645v117h124v-117h-124zM406 645v117h124v-117h-124zM360 569q130 0 211 -81t81 -204q0 -132 -80 -213t-212 -81q-131 0 -211 81t-80 213q0 123 80.5 204t210.5 81zM360 474q-77 0 -125 -54.5t-48 -135.5q0 -90 47 -145t126 -55q80 0 127 54.5t47 145.5
q0 81 -48 135.5t-126 54.5z" />
    <glyph glyph-name="ograve.sc" horiz-adv-x="721" 
d="M408 613h-85l-114 149h152zM360 569q130 0 211 -81t81 -204q0 -132 -80 -213t-212 -81q-131 0 -211 81t-80 213q0 123 80.5 204t210.5 81zM360 474q-77 0 -125 -54.5t-48 -135.5q0 -90 47 -145t126 -55q80 0 127 54.5t47 145.5q0 81 -48 135.5t-126 54.5z" />
    <glyph glyph-name="ohungarumlaut.sc" horiz-adv-x="721" 
d="M226 614l58 148h143l-110 -148h-91zM408 614l58 148h143l-110 -148h-91zM360 569q130 0 211 -81t81 -204q0 -132 -80 -213t-212 -81q-131 0 -211 81t-80 213q0 123 80.5 204t210.5 81zM360 474q-77 0 -125 -54.5t-48 -135.5q0 -90 47 -145t126 -55q80 0 127 54.5
t47 145.5q0 81 -48 135.5t-126 54.5z" />
    <glyph glyph-name="omacron.sc" horiz-adv-x="721" 
d="M240 731h240v-82h-240v82zM360 569q130 0 211 -81t81 -204q0 -132 -80 -213t-212 -81q-131 0 -211 81t-80 213q0 123 80.5 204t210.5 81zM360 474q-77 0 -125 -54.5t-48 -135.5q0 -90 47 -145t126 -55q80 0 127 54.5t47 145.5q0 81 -48 135.5t-126 54.5z" />
    <glyph glyph-name="oslash.sc" horiz-adv-x="721" 
d="M572 488q80 -80 80 -204q0 -132 -80 -213t-212 -81q-102 0 -175 51l-56 -64l-50 45l56 65q-66 79 -66 197q0 123 80.5 204t210.5 81q91 0 157 -40l54 62l51 -45zM187 284q0 -64 24 -110l238 276q-40 24 -89 24q-77 0 -125 -54.5t-48 -135.5zM360 84q80 0 127 54.5
t47 145.5q0 68 -35 120l-246 -284q44 -36 107 -36z" />
    <glyph glyph-name="otilde.sc" horiz-adv-x="721" 
d="M421 629q-32 0 -60.5 18t-43.5 18q-33 0 -35 -35h-78q1 56 31.5 81t75.5 25q32 0 60 -17.5t43 -17.5q20 0 27.5 9t8.5 26h77q0 -56 -29.5 -81.5t-76.5 -25.5zM360 569q130 0 211 -81t81 -204q0 -132 -80 -213t-212 -81q-131 0 -211 81t-80 213q0 123 80.5 204t210.5 81z
M360 474q-77 0 -125 -54.5t-48 -135.5q0 -90 47 -145t126 -55q80 0 127 54.5t47 145.5q0 81 -48 135.5t-126 54.5z" />
    <glyph glyph-name="oe.sc" horiz-adv-x="937" 
d="M869 467h-309v-142h291v-85h-291v-150h309v-90h-496q-144 0 -224 77.5t-80 207.5q0 119 81 195.5t223 76.5h496v-90zM447 96v366h-70q-94 0 -142 -50t-48 -127q0 -88 47 -138.5t143 -50.5h70z" />
    <glyph glyph-name="p.sc" horiz-adv-x="634" 
d="M394 557q87 0 142 -49.5t55 -127.5q0 -76 -55.5 -127.5t-141.5 -51.5h-177v-201h-113v557h290zM379 291q43 0 71 25t28 64q0 38 -28 63t-71 25h-162v-177h162z" />
    <glyph glyph-name="thorn.sc" horiz-adv-x="634" 
d="M394 473q87 0 142 -51t55 -129q0 -77 -55.5 -128.5t-141.5 -51.5h-177v-113h-113v557h113v-84h177zM380 203q43 0 70 25.5t27 64.5t-27 64.5t-70 25.5h-163v-180h163z" />
    <glyph glyph-name="q.sc" horiz-adv-x="721" 
d="M693 45l-63 -70l-84 73q-77 -58 -186 -58q-131 0 -211 81t-80 213q0 123 80.5 204t210.5 81t211 -81t81 -204q0 -97 -45 -168zM360 84q62 0 105 34l-78 68l56 65l74 -61q17 42 17 94q0 81 -48 135.5t-126 54.5q-77 0 -125 -54.5t-48 -135.5q0 -90 47 -145t126 -55z" />
    <glyph glyph-name="r.sc" horiz-adv-x="629" 
d="M588 0h-127l-104 229h-140v-229h-113v557h275q86 0 141 -44.5t55 -113.5q0 -55 -31 -96.5t-85 -60.5zM217 468v-152h154q39 0 64.5 23t25.5 57q0 31 -25.5 51.5t-64.5 20.5h-154z" />
    <glyph glyph-name="racute.sc" horiz-adv-x="629" 
d="M477 762l-114 -149h-85l47 149h152zM588 0h-127l-104 229h-140v-229h-113v557h275q86 0 141 -44.5t55 -113.5q0 -55 -31 -96.5t-85 -60.5zM217 468v-152h154q39 0 64.5 23t25.5 57q0 31 -25.5 51.5t-64.5 20.5h-154z" />
    <glyph glyph-name="rcaron.sc" horiz-adv-x="629" 
d="M387 613h-125l-84 146h83l64 -78l63 78h83zM588 0h-127l-104 229h-140v-229h-113v557h275q86 0 141 -44.5t55 -113.5q0 -55 -31 -96.5t-85 -60.5zM217 468v-152h154q39 0 64.5 23t25.5 57q0 31 -25.5 51.5t-64.5 20.5h-154z" />
    <glyph glyph-name="rcommaaccent.sc" horiz-adv-x="629" 
d="M459 242l129 -242h-127l-104 229h-140v-229h-113v557h275q86 0 141 -44.5t55 -113.5q0 -55 -31 -96.5t-85 -60.5zM217 468v-152h154q39 0 64.5 23t25.5 57q0 31 -25.5 51.5t-64.5 20.5h-154zM251 -193l30 141h132l-83 -141h-79z" />
    <glyph glyph-name="s.sc" horiz-adv-x="616" 
d="M189 200q3 -58 36.5 -90t94.5 -32q50 0 80 21.5t30 58.5q0 36 -29.5 52.5t-105.5 34.5q-49 12 -68.5 17.5t-53 19t-47 27.5t-25 38.5t-11.5 57.5q0 77 57.5 120.5t159.5 43.5q103 0 162 -49t66 -142h-117q-6 104 -114 104q-46 0 -74 -20t-28 -56q0 -28 25 -43t102 -35
q100 -25 133 -42q82 -41 82 -130q0 -78 -58.5 -122t-164.5 -44q-111 0 -177 53t-72 157h117z" />
    <glyph glyph-name="sacute.sc" horiz-adv-x="616" 
d="M262 613l47 149h152l-114 -149h-85zM189 200q3 -58 36.5 -90t94.5 -32q50 0 80 21.5t30 58.5q0 36 -29.5 52.5t-105.5 34.5q-49 12 -68.5 17.5t-53 19t-47 27.5t-25 38.5t-11.5 57.5q0 77 57.5 120.5t159.5 43.5q103 0 162 -49t66 -142h-117q-6 104 -114 104
q-46 0 -74 -20t-28 -56q0 -28 25 -43t102 -35q100 -25 133 -42q82 -41 82 -130q0 -78 -58.5 -122t-164.5 -44q-111 0 -177 53t-72 157h117z" />
    <glyph glyph-name="scaron.sc" horiz-adv-x="616" 
d="M455 759l-84 -146h-125l-84 146h83l64 -78l63 78h83zM189 200q3 -58 36.5 -90t94.5 -32q50 0 80 21.5t30 58.5q0 36 -29.5 52.5t-105.5 34.5q-49 12 -68.5 17.5t-53 19t-47 27.5t-25 38.5t-11.5 57.5q0 77 57.5 120.5t159.5 43.5q103 0 162 -49t66 -142h-117
q-6 104 -114 104q-46 0 -74 -20t-28 -56q0 -28 25 -43t102 -35q100 -25 133 -42q82 -41 82 -130q0 -78 -58.5 -122t-164.5 -44q-111 0 -177 53t-72 157h117z" />
    <glyph glyph-name="scedilla.sc" horiz-adv-x="616" 
d="M544 156q0 -74 -52 -117.5t-146 -47.5l-36 -45h6q43 0 70.5 -23t27.5 -59q0 -37 -30 -61t-75 -24q-46 0 -77 26t-36 67l73 8q1 -19 11.5 -29.5t25.5 -10.5q14 0 23 7t9 19q0 31 -50 31h-34l-17 40l49 54q-96 9 -152.5 61t-61.5 148h117q3 -58 36.5 -90t94.5 -32
q50 0 80 21.5t30 58.5q0 36 -29.5 52.5t-105.5 34.5q-49 12 -68.5 17.5t-53 19t-47 27.5t-25 38.5t-11.5 57.5q0 77 57.5 120.5t159.5 43.5q103 0 162 -49t66 -142h-117q-6 104 -114 104q-46 0 -74 -20t-28 -56q0 -28 25 -43t102 -35q100 -25 133 -42q82 -41 82 -130z" />
    <glyph glyph-name="scommaaccent.sc" horiz-adv-x="616" 
d="M189 200q3 -58 36.5 -90t94.5 -32q50 0 80 21.5t30 58.5q0 36 -29.5 52.5t-105.5 34.5q-49 12 -68.5 17.5t-53 19t-47 27.5t-25 38.5t-11.5 57.5q0 77 57.5 120.5t159.5 43.5q103 0 162 -49t66 -142h-117q-6 104 -114 104q-46 0 -74 -20t-28 -56q0 -28 25 -43t102 -35
q100 -25 133 -42q82 -41 82 -130q0 -78 -58.5 -122t-164.5 -44q-111 0 -177 53t-72 157h117zM192 -193l30 141h132l-83 -141h-79z" />
    <glyph glyph-name="germandbls.sc" horiz-adv-x="1232" 
d="M189 200q3 -58 36.5 -90t94.5 -32q50 0 80 21.5t30 58.5q0 36 -29.5 52.5t-105.5 34.5q-49 12 -68.5 17.5t-53 19t-47 27.5t-25 38.5t-11.5 57.5q0 77 57.5 120.5t159.5 43.5q103 0 162 -49t66 -142h-117q-6 104 -114 104q-46 0 -74 -20t-28 -56q0 -28 25 -43t102 -35
q100 -25 133 -42q82 -41 82 -130q0 -78 -58.5 -122t-164.5 -44q-111 0 -177 53t-72 157h117zM805 200q3 -58 36.5 -90t94.5 -32q50 0 80 21.5t30 58.5q0 36 -29.5 52.5t-105.5 34.5q-49 12 -68.5 17.5t-53 19t-47 27.5t-25 38.5t-11.5 57.5q0 77 57.5 120.5t159.5 43.5
q103 0 162 -49t66 -142h-117q-6 104 -114 104q-46 0 -74 -20t-28 -56q0 -28 25 -43t102 -35q100 -25 133 -42q82 -41 82 -130q0 -78 -58.5 -122t-164.5 -44q-111 0 -177 53t-72 157h117z" />
    <glyph glyph-name="t.sc" horiz-adv-x="547" 
d="M516 557v-94h-186v-463h-113v463h-186v94h485z" />
    <glyph glyph-name="tbar.sc" horiz-adv-x="547" 
d="M516 463h-186v-156h110v-86h-110v-221h-113v221h-108v86h108v156h-186v94h485v-94z" />
    <glyph glyph-name="tcaron.sc" horiz-adv-x="547" 
d="M335 613h-125l-84 146h83l64 -78l63 78h83zM516 557v-94h-186v-463h-113v463h-186v94h485z" />
    <glyph glyph-name="uni0163.sc" horiz-adv-x="547" 
d="M330 0h-13l-43 -54h6q43 0 70.5 -23t27.5 -59q0 -37 -30 -61t-75 -24q-46 0 -77 26t-36 67l73 8q1 -19 11.5 -29.5t25.5 -10.5q14 0 23 7t9 19q0 31 -50 31h-34l-17 40l57 63h-41v463h-186v94h485v-94h-186v-463z" />
    <glyph glyph-name="uni021B.sc" horiz-adv-x="547" 
d="M31 557h485v-94h-186v-463h-113v463h-186v94zM173 -193l30 141h132l-83 -141h-79z" />
    <glyph glyph-name="u.sc" horiz-adv-x="695" 
d="M483 557h113v-324q0 -110 -70 -175.5t-178 -65.5t-178.5 65.5t-70.5 175.5v324h113v-333q0 -64 38.5 -101t97.5 -37t97 37t38 101v333z" />
    <glyph glyph-name="uacute.sc" horiz-adv-x="695" 
d="M500 762l-114 -149h-85l47 149h152zM483 557h113v-324q0 -110 -70 -175.5t-178 -65.5t-178.5 65.5t-70.5 175.5v324h113v-333q0 -64 38.5 -101t97.5 -37t97 37t38 101v333z" />
    <glyph glyph-name="ucircumflex.sc" horiz-adv-x="695" 
d="M348 691l-64 -78h-83l84 146h125l84 -146h-83zM483 557h113v-324q0 -110 -70 -175.5t-178 -65.5t-178.5 65.5t-70.5 175.5v324h113v-333q0 -64 38.5 -101t97.5 -37t97 37t38 101v333z" />
    <glyph glyph-name="udieresis.sc" horiz-adv-x="695" 
d="M302 762v-117h-124v117h124zM518 762v-117h-124v117h124zM483 557h113v-324q0 -110 -70 -175.5t-178 -65.5t-178.5 65.5t-70.5 175.5v324h113v-333q0 -64 38.5 -101t97.5 -37t97 37t38 101v333z" />
    <glyph glyph-name="ugrave.sc" horiz-adv-x="695" 
d="M420 613h-85l-114 149h152zM483 557h113v-324q0 -110 -70 -175.5t-178 -65.5t-178.5 65.5t-70.5 175.5v324h113v-333q0 -64 38.5 -101t97.5 -37t97 37t38 101v333z" />
    <glyph glyph-name="uhungarumlaut.sc" horiz-adv-x="695" 
d="M384 762l-110 -148h-91l58 148h143zM456 614h-91l58 148h143zM483 557h113v-324q0 -110 -70 -175.5t-178 -65.5t-178.5 65.5t-70.5 175.5v324h113v-333q0 -64 38.5 -101t97.5 -37t97 37t38 101v333z" />
    <glyph glyph-name="umacron.sc" horiz-adv-x="695" 
d="M468 731v-82h-240v82h240zM483 557h113v-324q0 -110 -70 -175.5t-178 -65.5t-178.5 65.5t-70.5 175.5v324h113v-333q0 -64 38.5 -101t97.5 -37t97 37t38 101v333z" />
    <glyph glyph-name="uogonek.sc" horiz-adv-x="695" 
d="M483 557h113v-324q0 -124 -87 -190l-30 -28l-25 -23t-18.5 -17.5t-15 -16t-9 -12t-6 -12t-1.5 -11.5q0 -15 11 -24t28 -9q30 0 55 10v-80q-41 -11 -83 -11q-50 0 -86 25.5t-36 63.5q0 48 65 94h-10q-108 0 -178.5 65.5t-70.5 175.5v324h113v-333q0 -64 38.5 -101
t97.5 -37t97 37t38 101v333z" />
    <glyph glyph-name="uring.sc" horiz-adv-x="695" 
d="M350 600q-45 0 -78 30t-33 75t33 75t78 30t78 -30t33 -75t-33 -75t-78 -30zM350 759q-22 0 -37 -15.5t-15 -38.5t15 -38.5t37 -15.5t37 15.5t15 38.5t-15 38.5t-37 15.5zM483 557h113v-324q0 -110 -70 -175.5t-178 -65.5t-178.5 65.5t-70.5 175.5v324h113v-333
q0 -64 38.5 -101t97.5 -37t97 37t38 101v333z" />
    <glyph glyph-name="v.sc" horiz-adv-x="664" 
d="M494 557h125l-229 -557h-115l-230 557h126l161 -432z" />
    <glyph glyph-name="w.sc" horiz-adv-x="884" 
d="M726 557h112l-165 -557h-100l-131 401l-132 -401h-99l-166 557h111l111 -401l130 401h89l131 -401z" />
    <glyph glyph-name="wacute.sc" horiz-adv-x="884" 
d="M608 758l-114 -149h-85l47 149h152zM726 557h112l-165 -557h-100l-131 401l-132 -401h-99l-166 557h111l111 -401l130 401h89l131 -401z" />
    <glyph glyph-name="wcircumflex.sc" horiz-adv-x="884" 
d="M442 691l-64 -78h-83l84 146h125l84 -146h-83zM726 557h112l-165 -557h-100l-131 401l-132 -401h-99l-166 557h111l111 -401l130 401h89l131 -401z" />
    <glyph glyph-name="wdieresis.sc" horiz-adv-x="884" 
d="M396 762v-117h-124v117h124zM612 762v-117h-124v117h124zM726 557h112l-165 -557h-100l-131 401l-132 -401h-99l-166 557h111l111 -401l130 401h89l131 -401z" />
    <glyph glyph-name="wgrave.sc" horiz-adv-x="884" 
d="M490 613h-85l-114 149h152zM726 557h112l-165 -557h-100l-131 401l-132 -401h-99l-166 557h111l111 -401l130 401h89l131 -401z" />
    <glyph glyph-name="x.sc" horiz-adv-x="649" 
d="M604 0h-138l-142 201l-142 -201h-137l211 279l-202 278h136l135 -201l134 201h136l-203 -278z" />
    <glyph glyph-name="y.sc" horiz-adv-x="660" 
d="M615 557l-228 -366v-191h-113v190l-229 367h127l158 -270l159 270h126z" />
    <glyph glyph-name="yacute.sc" horiz-adv-x="660" 
d="M482 762l-114 -149h-85l47 149h152zM615 557l-228 -366v-191h-113v190l-229 367h127l158 -270l159 270h126z" />
    <glyph glyph-name="ycircumflex.sc" horiz-adv-x="660" 
d="M330 691l-64 -78h-83l84 146h125l84 -146h-83zM615 557l-228 -366v-191h-113v190l-229 367h127l158 -270l159 270h126z" />
    <glyph glyph-name="ydieresis.sc" horiz-adv-x="660" 
d="M284 762v-117h-124v117h124zM500 762v-117h-124v117h124zM615 557l-228 -366v-191h-113v190l-229 367h127l158 -270l159 270h126z" />
    <glyph glyph-name="ygrave.sc" horiz-adv-x="660" 
d="M366 609h-85l-114 149h152zM615 557l-228 -366v-191h-113v190l-229 367h127l158 -270l159 270h126z" />
    <glyph glyph-name="z.sc" horiz-adv-x="612" 
d="M207 94h339v-94h-480v78l335 386h-335v93h476v-77z" />
    <glyph glyph-name="zacute.sc" horiz-adv-x="612" 
d="M453 762l-114 -149h-85l47 149h152zM207 94h339v-94h-480v78l335 386h-335v93h476v-77z" />
    <glyph glyph-name="zcaron.sc" horiz-adv-x="612" 
d="M363 613h-125l-84 146h83l64 -78l63 78h83zM207 94h339v-94h-480v78l335 386h-335v93h476v-77z" />
    <glyph glyph-name="zdotaccent.sc" horiz-adv-x="612" 
d="M370 762v-117h-135v117h135zM207 94h339v-94h-480v78l335 386h-335v93h476v-77z" />
    <glyph glyph-name="f_f_i.sc.ss01" horiz-adv-x="1671" 
d="M526 462h-309v-148h296v-92h-296v-222h-113v557h422v-95zM1115 462h-309v-148h296v-92h-296v-222h-113v557h422v-95zM1602 464h-121v-370h121v-94h-355v94h121v370h-121v93h355v-93z" />
    <glyph glyph-name="fi.sc.ss01" horiz-adv-x="1082" 
d="M526 462h-309v-148h296v-92h-296v-222h-113v557h422v-95zM1013 464h-121v-370h121v-94h-355v94h121v370h-121v93h355v-93z" />
    <glyph glyph-name="i.sc.ss01" horiz-adv-x="493" 
d="M424 464h-121v-370h121v-94h-355v94h121v370h-121v93h355v-93z" />
    <glyph glyph-name="dotlessi.sc.ss01" horiz-adv-x="493" 
d="M424 464h-121v-370h121v-94h-355v94h121v370h-121v93h355v-93z" />
    <glyph glyph-name="iacute.sc.ss01" horiz-adv-x="493" 
d="M210 610l47 149h152l-114 -149h-85zM424 464h-121v-370h121v-94h-355v94h121v370h-121v93h355v-93z" />
    <glyph glyph-name="icircumflex.sc.ss01" horiz-adv-x="493" 
d="M391 610h-83l-63 78l-64 -78h-83l84 146h125zM424 464h-121v-370h121v-94h-355v94h121v370h-121v93h355v-93z" />
    <glyph glyph-name="idieresis.sc.ss01" horiz-adv-x="493" 
d="M75 642v117h124v-117h-124zM291 642v117h124v-117h-124zM424 464h-121v-370h121v-94h-355v94h121v370h-121v93h355v-93z" />
    <glyph glyph-name="i.sc.loclTRK.ss01" horiz-adv-x="493" 
d="M179 642v117h135v-117h-135zM424 464h-121v-370h121v-94h-355v94h121v370h-121v93h355v-93z" />
    <glyph glyph-name="igrave.sc.ss01" horiz-adv-x="493" 
d="M286 610h-85l-114 149h152zM424 464h-121v-370h121v-94h-355v94h121v370h-121v93h355v-93z" />
    <glyph glyph-name="ij.sc.ss01" horiz-adv-x="972" 
d="M424 464h-121v-370h121v-94h-355v94h121v370h-121v93h355v-93zM547 106q48 -23 98 -23q49 0 82 28.5t33 72.5v373h113v-370q0 -85 -61 -140t-158 -55q-59 0 -107 14v100z" />
    <glyph glyph-name="imacron.sc.ss01" horiz-adv-x="493" 
d="M125 728h240v-82h-240v82zM424 464h-121v-370h121v-94h-355v94h121v370h-121v93h355v-93z" />
    <glyph glyph-name="iogonek.sc.ss01" horiz-adv-x="493" 
d="M424 464h-121v-370h121v-94h-121l-38.5 -27.5t-21.5 -22t-10 -27.5q0 -15 11 -24t28 -9q30 0 55 10v-80q-41 -11 -83 -11q-51 0 -86.5 25.5t-35.5 63.5q0 59 77 102h-130v94h121v370h-121v93h355v-93z" />
    <glyph glyph-name="f_f_j.sc.ss02" horiz-adv-x="1605" 
d="M104 0v557h422v-95h-309v-148h296v-92h-296v-222h-113zM693 0v557h422v-95h-309v-148h296v-92h-296v-222h-113zM1501 557v-370q0 -85 -61 -140t-158 -55q-59 0 -107 14v100q48 -23 98 -23q49 0 82 28.5t33 72.5v280h-188v93h301z" />
    <glyph glyph-name="f_j.sc.ss02" horiz-adv-x="1016" 
d="M104 0v557h422v-95h-309v-148h296v-92h-296v-222h-113zM912 557v-370q0 -85 -61 -140t-158 -55q-59 0 -107 14v100q48 -23 98 -23q49 0 82 28.5t33 72.5v280h-188v93h301z" />
    <glyph glyph-name="ij.sc.ss02" horiz-adv-x="800" 
d="M104 0v557h113v-557h-113zM696 557v-370q0 -85 -61 -140t-158 -55q-59 0 -107 14v100q48 -23 98 -23q49 0 82 28.5t33 72.5v280h-188v93h301z" />
    <glyph glyph-name="j.sc.ss02" horiz-adv-x="479" 
d="M375 557v-370q0 -85 -61 -140t-158 -55q-59 0 -107 14v100q48 -23 98 -23q49 0 82 28.5t33 72.5v280h-188v93h301z" />
    <glyph glyph-name="q.sc.ss03" horiz-adv-x="721" 
d="M360 569q130 0 211 -81t81 -204q0 -132 -80 -213t-212 -81q-131 0 -211 81t-80 213q0 123 80.5 204t210.5 81zM360 474q-77 0 -125 -54.5t-48 -135.5q0 -90 47 -145t126 -55q80 0 127 54.5t47 145.5q0 81 -48 135.5t-126 54.5zM631 -153h-290v96h290v-96z" />
    <glyph glyph-name="r.sc.ss04" horiz-adv-x="638" 
d="M532 162l65 -162h-131l-58 165q-13 39 -43.5 51.5t-86.5 12.5h-61v-229h-113v557h284q81 0 134 -44.5t53 -113.5q0 -113 -129 -140q31 -9 49.5 -31t36.5 -66zM374 316q39 0 63 23.5t24 56.5q0 32 -25 52t-65 20h-154v-152h157z" />
    <glyph glyph-name="racute.sc.ss04" horiz-adv-x="638" 
d="M482 762l-114 -149h-85l47 149h152zM532 162l65 -162h-131l-58 165q-13 39 -43.5 51.5t-86.5 12.5h-61v-229h-113v557h284q81 0 134 -44.5t53 -113.5q0 -113 -129 -140q31 -9 49.5 -31t36.5 -66zM374 316q39 0 63 23.5t24 56.5q0 32 -25 52t-65 20h-154v-152h157z" />
    <glyph glyph-name="rcaron.sc.ss04" horiz-adv-x="638" 
d="M392 613h-125l-84 146h83l64 -78l63 78h83zM532 162l65 -162h-131l-58 165q-13 39 -43.5 51.5t-86.5 12.5h-61v-229h-113v557h284q81 0 134 -44.5t53 -113.5q0 -113 -129 -140q31 -9 49.5 -31t36.5 -66zM374 316q39 0 63 23.5t24 56.5q0 32 -25 52t-65 20h-154v-152h157z
" />
    <glyph glyph-name="rcommaaccent.sc.ss04" horiz-adv-x="638" 
d="M532 162l65 -162h-131l-58 165q-13 39 -43.5 51.5t-86.5 12.5h-61v-229h-113v557h284q81 0 134 -44.5t53 -113.5q0 -113 -129 -140q31 -9 49.5 -31t36.5 -66zM374 316q39 0 63 23.5t24 56.5q0 32 -25 52t-65 20h-154v-152h157zM256 -193l30 141h132l-83 -141h-79z" />
    <glyph glyph-name="k.sc.ss15" horiz-adv-x="681" 
d="M501 0l-176 260l-108 -111v-149h-113v557h113v-274l259 274h136l-214 -221l238 -336h-135z" />
    <glyph glyph-name="kcommaaccent.sc.ss15" horiz-adv-x="681" 
d="M398 336l238 -336h-135l-176 260l-108 -111v-149h-113v557h113v-274l259 274h136zM245 -193l30 141h132l-83 -141h-79z" />
    <glyph glyph-name="ordfeminine.ss05" horiz-adv-x="430" 
d="M213 707q80 0 125 -38.5t45 -103.5v-259h-93v57h-2q-13 -25 -46 -45.5t-87 -20.5q-56 0 -92.5 32t-36.5 82q0 128 212 128h52v27q0 33 -21 52t-57 19q-34 0 -55 -16.5t-23 -44.5h-92q2 61 48.5 96t122.5 35zM187 366q42 0 72 26t31 69v24h-51q-116 0 -116 -66
q0 -24 18 -38.5t46 -14.5z" />
    <glyph glyph-name="zero.osf" horiz-adv-x="663" 
d="M332 604q123 0 203.5 -86.5t80.5 -221.5q0 -134 -80 -220t-204 -86t-204.5 86t-80.5 220q0 135 80.5 221.5t204.5 86.5zM332 510q-76 0 -123 -59t-47 -155t47 -153.5t123 -57.5t123 57.5t47 153.5t-47 155t-123 59z" />
    <glyph glyph-name="one.osf" horiz-adv-x="601" 
d="M393 94h172v-94h-483v94h195v387l-193 -83v117l245 75v-1l1 1h63v-496z" />
    <glyph glyph-name="two.osf" horiz-adv-x="574" 
d="M181 94h345v-94h-496v86h1l211 135q33 21 52.5 36t44.5 39t37.5 50t12.5 54q0 48 -34 79.5t-86 31.5q-64 0 -99.5 -37t-33.5 -99h-114q3 107 69 168t179 61q103 0 168 -56t65 -145q0 -83 -59 -141.5t-163 -110.5z" />
    <glyph glyph-name="three.osf" horiz-adv-x="612" 
d="M418 251q137 -37 137 -172q0 -87 -69 -144t-176 -57q-116 0 -188 60t-82 165h116q4 -61 44.5 -95.5t108.5 -34.5q60 0 98.5 32t38.5 81q0 56 -42 87.5t-115 31.5h-58v87h58q62 0 100 28.5t38 73.5q0 55 -33 85t-94 30q-133 0 -135 -131h-114q7 110 72.5 167t176.5 57
q108 0 172 -54t64 -147q0 -54 -31.5 -93t-86.5 -57z" />
    <glyph glyph-name="four.osf" horiz-adv-x="654" 
d="M619 121v-91h-99v-166h-113v166h-351l-14 60q132 246 192 500h120q-53 -235 -179 -469h232l9 273h104v-273h99z" />
    <glyph glyph-name="five.osf" horiz-adv-x="640" 
d="M346 361q100 0 169 -68t69 -171q0 -106 -73.5 -175t-187.5 -69q-108 0 -183 60.5t-85 162.5h113q7 -57 51 -92.5t105 -35.5q64 0 106.5 42.5t42.5 106.5q0 63 -43.5 104.5t-110.5 41.5q-92 0 -144 -71l-99 30l17 363l1 -1v1h461v-97h-365l-12 -216q56 84 168 84z" />
    <glyph glyph-name="six.osf" horiz-adv-x="641" 
d="M355 456q102 0 168 -65t66 -164q0 -106 -71 -172.5t-185 -66.5q-133 0 -206 95q-70 92 -70 261q0 176 77.5 272t202.5 96q85 0 155 -45.5t91 -144.5h-122q-11 51 -44 74.5t-76 23.5q-77 0 -123 -71t-50 -211q50 118 187 118zM337 79q63 0 102 40.5t39 104.5t-39.5 104.5
t-104.5 40.5q-63 0 -103 -38.5t-40 -101.5q0 -64 40.5 -107t105.5 -43z" />
    <glyph glyph-name="seven.osf" horiz-adv-x="586" 
d="M32 590h533v-87q-134 -129 -197.5 -288.5t-63.5 -324.5h-129v11q0 157 67 310.5t203 277.5h-413v101z" />
    <glyph glyph-name="eight.osf" horiz-adv-x="648" 
d="M441 368q73 -20 112.5 -66.5t39.5 -108.5q0 -88 -76.5 -146.5t-192.5 -58.5q-117 0 -193 58.5t-76 146.5q0 63 39 109t112 66q-61 19 -93.5 60t-32.5 96q0 81 69.5 134.5t174.5 53.5t174 -54t69 -134q0 -56 -32.5 -97t-93.5 -59zM324 623q-59 0 -95 -29t-36 -78
q0 -47 36.5 -78.5t94.5 -31.5t94.5 31.5t36.5 78.5q0 49 -36 78t-95 29zM324 81q66 0 107 34t41 89q0 52 -41.5 84.5t-106.5 32.5q-66 0 -107.5 -32.5t-41.5 -84.5q0 -55 41.5 -89t107.5 -34z" />
    <glyph glyph-name="nine.osf" horiz-adv-x="641" 
d="M512 507q72 -93 72 -261q0 -176 -77.5 -272t-202.5 -96q-85 0 -155.5 45.5t-91.5 144.5h123q11 -51 44.5 -74.5t76.5 -23.5q77 0 123 71t50 211q-50 -118 -187 -118q-102 0 -168.5 65t-66.5 164q0 106 71 172.5t185 66.5q128 0 204 -95zM307 221q63 0 103.5 38.5
t40.5 101.5q0 64 -41 107t-105 43q-63 0 -102.5 -40.5t-39.5 -104.5t39.5 -104.5t104.5 -40.5z" />
    <glyph glyph-name="three.osf.ss12" horiz-adv-x="601" 
d="M307 301q106 -4 171.5 -61t65.5 -146q0 -94 -69 -154.5t-176 -60.5q-113 0 -186 65.5t-73 165.5h115q0 -60 40.5 -98.5t103.5 -38.5q60 0 98 34.5t38 87.5q0 52 -39 85.5t-101 33.5h-83l-37 65l216 214h-332v97h465v-92z" />
    <glyph glyph-name="four.osf.ss13" horiz-adv-x="684" 
d="M649 121v-91h-129v-166h-113v166h-343l-22 90l318 470h160v-469h129zM409 486l-240 -365h238z" />
    <glyph glyph-name="uni278C.ss12" 
d="M441 -30q-158 0 -269.5 111.5t-111.5 269.5t111.5 269t269.5 111t269.5 -111t111.5 -269t-111.5 -269.5t-269.5 -111.5zM448 146q63 0 104 34.5t41 87.5q0 49 -36.5 80.5t-92.5 31.5h-10l131 98v65h-284v-69h178l-112 -98l19 -50h62q29 0 47 -15.5t18 -40.5t-18.5 -41.5
t-46.5 -16.5q-32 0 -54.5 20.5t-23.5 51.5h-83q4 -61 49 -99.5t112 -38.5z" />
    <glyph glyph-name="three.ss12" horiz-adv-x="601" 
d="M307 411q106 -4 171.5 -61t65.5 -146q0 -94 -69 -154.5t-176 -60.5q-113 0 -186 65.5t-73 165.5h115q0 -60 40.5 -98.5t103.5 -38.5q60 0 98 34.5t38 87.5q0 52 -39 85.5t-101 33.5h-83l-37 65l216 214h-332v97h465v-92z" />
    <glyph glyph-name="uni2462.ss12" 
d="M441 731q158 0 269.5 -111t111.5 -269t-111.5 -269.5t-269.5 -111.5t-269.5 111.5t-111.5 269.5t111.5 269t269.5 111zM440 27q132 0 226 95.5t94 228.5q0 132 -94 227.5t-226 95.5q-131 0 -225 -95.5t-94 -227.5t93.5 -228t225.5 -96zM469 387q55 -5 89.5 -37t34.5 -80
q0 -53 -42 -87.5t-105 -34.5q-67 0 -111 38.5t-48 99.5h83q1 -31 22.5 -51.5t53.5 -20.5q29 0 48 16.5t19 41.5t-19 40.5t-50 15.5h-48l-22 59l107 89h-180v69h284v-65z" />
    <glyph glyph-name="four.ss13" horiz-adv-x="676" 
d="M641 241v-90h-121v-151h-115v151h-341l-22 90l318 459h160v-459h121zM408 614l-251 -373h248z" />
    <glyph glyph-name="uni2463.ss13" 
d="M441 731q158 0 269.5 -111t111.5 -269t-111.5 -269.5t-269.5 -111.5t-269.5 111.5t-111.5 269.5t111.5 269t269.5 111zM440 27q132 0 226 95.5t94 228.5q0 132 -94 227.5t-226 95.5q-131 0 -225 -95.5t-94 -227.5t93.5 -228t225.5 -96zM525 551v-245h60v-66h-60v-79h-80
v79h-190l-14 66l179 245h105zM450 484l-124 -178h119z" />
    <glyph glyph-name="uni278D.ss132" 
d="M441 -30q158 0 269.5 111.5t111.5 269.5t-111.5 269t-269.5 111t-269.5 -111t-111.5 -269t111.5 -269.5t269.5 -111.5zM531 308h60v-68h-60v-79h-79v79h-192l-12 61l169 250h114v-243zM337 308h115l4 183z" />
    <glyph glyph-name="zero.tf" horiz-adv-x="600" 
d="M300 713q256 0 256 -363q0 -360 -256 -360t-256 360q0 363 256 363zM300 617q-139 0 -139 -267q0 -264 139 -264q140 0 140 264q0 267 -140 267z" />
    <glyph glyph-name="one.tf" horiz-adv-x="600" 
d="M379 94h174v-94h-493v94h203v498l-199 -86v117l252 77v-1l1 1h62v-606z" />
    <glyph glyph-name="two.tf" horiz-adv-x="600" 
d="M205 94h351v-94h-498v82h1l247 220q72 65 100.5 108.5t28.5 80.5q0 58 -36.5 91.5t-95.5 33.5q-62 0 -98.5 -36.5t-37.5 -101.5h-113q4 110 70 172t179 62q112 0 177 -59.5t65 -159.5q0 -61 -44 -120t-145 -147z" />
    <glyph glyph-name="three.tf" horiz-adv-x="600" 
d="M415 361q135 -39 135 -171q0 -89 -67.5 -145t-174.5 -56q-114 0 -184.5 60t-80.5 164h114q4 -61 44 -95.5t108 -34.5q59 0 96.5 32t37.5 80q0 56 -42.5 87.5t-115.5 31.5h-51v88h50q64 0 102 28t38 75q0 55 -32.5 84.5t-92.5 29.5q-131 0 -133 -131h-113q7 110 71.5 167
t174.5 57q106 0 169 -54t63 -147q0 -55 -31 -93t-85 -57z" />
    <glyph glyph-name="four.tf" horiz-adv-x="600" 
d="M578 241v-93h-105v-148h-107v148h-337l-14 63q158 301 186 489h114q-23 -176 -174 -459h225l9 263h98v-263h105z" />
    <glyph glyph-name="five.tf" horiz-adv-x="600" 
d="M335 461q96 0 160.5 -66t64.5 -169q0 -107 -69 -172t-178 -65q-104 0 -175.5 59t-82.5 162h115q7 -56 47 -91t96 -35q60 0 99 40t39 103t-40 101.5t-103 38.5q-40 0 -75.5 -18.5t-57.5 -50.5l-100 29l16 373l1 -1v1h442v-97h-343l-13 -224q53 82 157 82z" />
    <glyph glyph-name="six.tf" horiz-adv-x="600" 
d="M337 456q98 0 161.5 -65t63.5 -164q0 -107 -69 -173t-180 -66q-126 0 -199 95q-68 90 -68 261q0 176 75 272t199 96q81 0 148 -45.5t88 -144.5h-123q-10 51 -41.5 74.5t-71.5 23.5q-73 0 -115.5 -70t-46.5 -209q23 54 68.5 84.5t110.5 30.5zM316 79q60 0 97 40t37 105
t-37 105t-99 40q-59 0 -97 -37.5t-38 -102.5t38 -107.5t99 -42.5z" />
    <glyph glyph-name="seven.tf" horiz-adv-x="600" 
d="M44 700h525v-88q-134 -129 -199 -289t-65 -323h-127v11q0 157 67.5 310t203.5 278h-405v101z" />
    <glyph glyph-name="eight.tf" horiz-adv-x="600" 
d="M415 368q70 -20 106.5 -66t36.5 -109q0 -88 -72 -145.5t-182 -57.5q-111 0 -183 57.5t-72 145.5q0 63 36.5 109t106.5 66q-59 18 -89.5 59t-30.5 97q0 81 65.5 134.5t166.5 53.5q100 0 165.5 -53.5t65.5 -134.5q0 -56 -30.5 -97t-89.5 -59zM304 624q-54 0 -87.5 -29.5
t-33.5 -78.5q0 -47 34 -76.5t87 -29.5t86.5 29.5t33.5 76.5q0 49 -33 78.5t-87 29.5zM304 82q60 0 97.5 33t37.5 89q0 52 -37.5 82.5t-97.5 30.5t-98 -30.5t-38 -82.5q0 -56 38 -89t98 -33z" />
    <glyph glyph-name="nine.tf" horiz-adv-x="600" 
d="M492 617q69 -91 69 -261q0 -176 -74.5 -272t-197.5 -96q-82 0 -150 45t-88 144h123q10 -51 41 -74t72 -23q73 0 115.5 70t46.5 209q-23 -54 -68.5 -84.5t-110.5 -30.5q-98 0 -161.5 65t-63.5 164q0 106 69 172.5t179 66.5q126 0 199 -95zM292 331q59 0 97.5 38t38.5 102
t-38.5 107t-99.5 43q-60 0 -97 -40t-37 -105t37 -105t99 -40z" />
    <glyph glyph-name="three.tf.ss12" horiz-adv-x="600" 
d="M313 411q106 -4 171.5 -61t65.5 -146q0 -94 -69.5 -154.5t-176.5 -60.5q-112 0 -185 65.5t-73 165.5h115q0 -60 40.5 -98.5t102.5 -38.5q61 0 99 34.5t38 87.5q0 52 -39 85.5t-101 33.5h-83l-37 65l216 214h-332v97h464v-92z" />
    <glyph glyph-name="four.tf.ss13" horiz-adv-x="600" 
d="M566 241v-93h-93v-148h-107v148h-317l-14 93l283 459h155v-459h93zM373 607l-222 -366h215z" />
    <glyph glyph-name="zero.tosf" horiz-adv-x="600" 
d="M300 604q119 0 188.5 -85t69.5 -223q0 -139 -69.5 -224t-188.5 -85t-188.5 85t-69.5 224q0 138 69.5 223t188.5 85zM300 510q-67 0 -105.5 -58.5t-38.5 -155.5q0 -96 38.5 -155t105.5 -59t105.5 59t38.5 155q0 97 -38.5 155.5t-105.5 58.5z" />
    <glyph glyph-name="one.tosf" horiz-adv-x="600" 
d="M373 94h188v-94h-509v94h207v384l-185 -82v119l235 75v-1l1 1h63v-496z" />
    <glyph glyph-name="two.tosf" horiz-adv-x="600" 
d="M226 94h320v-94h-478v86h1l200 135q80 55 107 86q40 45 40 94q0 47 -33 78t-86 31q-62 0 -97.5 -36.5t-35.5 -97.5h-112q5 106 70.5 167t176.5 61q102 0 167 -56t65 -144q0 -43 -17.5 -82t-50 -71t-67 -56t-81.5 -50z" />
    <glyph glyph-name="three.tosf" horiz-adv-x="600" 
d="M415 253q135 -39 135 -171q0 -89 -67.5 -145t-174.5 -56q-114 0 -184.5 60t-80.5 164h114q4 -61 44 -95.5t108 -34.5q59 0 96.5 32t37.5 80q0 56 -42.5 87.5t-115.5 31.5h-51v88h50q64 0 102 28t38 75q0 55 -32.5 84.5t-92.5 29.5q-131 0 -133 -131h-113q7 110 71.5 167
t174.5 57q106 0 169 -54t63 -147q0 -55 -31 -93t-85 -57z" />
    <glyph glyph-name="four.tosf" horiz-adv-x="600" 
d="M578 131v-93h-105v-148h-107v148h-337l-14 63q158 301 186 489h114q-23 -176 -174 -459h225l9 263h98v-263h105z" />
    <glyph glyph-name="five.tosf" horiz-adv-x="600" 
d="M335 351q96 0 160.5 -66t64.5 -169q0 -107 -69 -172t-178 -65q-104 0 -175.5 59t-82.5 162h115q7 -56 47 -91t96 -35q60 0 99 40t39 103t-40 101.5t-103 38.5q-40 0 -75.5 -18.5t-57.5 -50.5l-100 29l16 373l1 -1v1h442v-97h-343l-13 -224q53 82 157 82z" />
    <glyph glyph-name="six.tosf" horiz-adv-x="600" 
d="M337 456q98 0 161.5 -65t63.5 -164q0 -107 -69 -173t-180 -66q-126 0 -199 95q-68 90 -68 261q0 176 75 272t199 96q81 0 148 -45.5t88 -144.5h-123q-10 51 -41.5 74.5t-71.5 23.5q-73 0 -115.5 -70t-46.5 -209q23 54 68.5 84.5t110.5 30.5zM316 79q60 0 97 40t37 105
t-37 105t-99 40q-59 0 -97 -37.5t-38 -102.5t38 -107.5t99 -42.5z" />
    <glyph glyph-name="seven.tosf" horiz-adv-x="600" 
d="M44 590h525v-88q-134 -129 -199 -289t-65 -323h-127v11q0 157 67.5 310t203.5 278h-405v101z" />
    <glyph glyph-name="eight.tosf" horiz-adv-x="600" 
d="M415 368q70 -20 106.5 -66t36.5 -109q0 -88 -72 -145.5t-182 -57.5q-111 0 -183 57.5t-72 145.5q0 63 36.5 109t106.5 66q-59 18 -89.5 59t-30.5 97q0 81 65.5 134.5t166.5 53.5q100 0 165.5 -53.5t65.5 -134.5q0 -56 -30.5 -97t-89.5 -59zM304 624q-54 0 -87.5 -29.5
t-33.5 -78.5q0 -47 34 -76.5t87 -29.5t86.5 29.5t33.5 76.5q0 49 -33 78.5t-87 29.5zM304 82q60 0 97.5 33t37.5 89q0 52 -37.5 82.5t-97.5 30.5t-98 -30.5t-38 -82.5q0 -56 38 -89t98 -33z" />
    <glyph glyph-name="nine.tosf" horiz-adv-x="600" 
d="M492 507q69 -91 69 -261q0 -176 -74.5 -272t-197.5 -96q-82 0 -150 45t-88 144h123q10 -51 41 -74t72 -23q73 0 115.5 70t46.5 209q-23 -54 -68.5 -84.5t-110.5 -30.5q-98 0 -161.5 65t-63.5 164q0 106 69 172.5t179 66.5q126 0 199 -95zM292 221q59 0 97.5 38t38.5 102
t-38.5 107t-99.5 43q-60 0 -97 -40t-37 -105t37 -105t99 -40z" />
    <glyph glyph-name="three.tosf.ss12" horiz-adv-x="600" 
d="M313 303q106 -4 171.5 -61t65.5 -146q0 -94 -69.5 -154.5t-176.5 -60.5q-112 0 -185 65.5t-73 165.5h115q0 -60 40.5 -98.5t102.5 -38.5q61 0 99 34.5t38 87.5q0 52 -39 85.5t-101 33.5h-83l-37 65l216 214h-332v97h464v-92z" />
    <glyph glyph-name="four.tosf.ss13" horiz-adv-x="600" 
d="M566 131v-93h-93v-148h-107v148h-317l-14 93l283 459h155v-459h93zM373 497l-222 -366h215z" />
    <glyph glyph-name="zero.zero" horiz-adv-x="676" 
d="M342 712q133 0 213 -98t80 -264t-80 -264t-213 -98t-213 98t-80 264t80 264t213 98zM342 613q-79 0 -126 -70t-47 -193q0 -65 14 -116l274 324q-44 55 -115 55zM342 87q79 0 126 70t47 193q0 71 -17 127l-277 -327q46 -63 121 -63z" />
    <glyph glyph-name="zero.zero.osf" horiz-adv-x="663" 
d="M332 604q123 0 203.5 -86.5t80.5 -221.5q0 -134 -80 -220t-204 -86t-204.5 86t-80.5 220q0 135 80.5 221.5t204.5 86.5zM332 510q-76 0 -123 -59t-47 -155q0 -63 22 -112l247 292q-42 34 -99 34zM332 85q76 0 123 57.5t47 153.5q0 72 -26 122l-250 -294q45 -39 106 -39z
" />
    <glyph glyph-name="zero.zero.tf" horiz-adv-x="600" 
d="M300 713q256 0 256 -363q0 -360 -256 -360t-256 360q0 363 256 363zM300 617q-139 0 -139 -267q0 -47 5 -94l243 286q-35 75 -109 75zM300 86q140 0 140 264q0 59 -8 110l-245 -290q32 -84 113 -84z" />
    <glyph glyph-name="zero.zero.tosf" horiz-adv-x="600" 
d="M300 604q119 0 188.5 -85t69.5 -223q0 -139 -69.5 -224t-188.5 -85t-188.5 85t-69.5 224q0 138 69.5 223t188.5 85zM300 510q-67 0 -105.5 -58.5t-38.5 -155.5q0 -55 14 -102l228 268q-37 48 -98 48zM300 82q67 0 105.5 59t38.5 155q0 54 -12 96l-226 -266q36 -44 94 -44
z" />
    <glyph glyph-name="zero.dnom" horiz-adv-x="408" 
d="M203 402q81 0 129 -58.5t48 -148.5t-48 -148.5t-129 -58.5q-80 0 -127.5 59t-47.5 148t47.5 148t127.5 59zM203 333q-41 0 -62.5 -36t-21.5 -102q0 -137 84 -137q86 0 86 137q0 138 -86 138z" />
    <glyph glyph-name="one.dnom" horiz-adv-x="297" 
d="M172 399h68v-399h-88v319l-128 -59v92z" />
    <glyph glyph-name="two.dnom" horiz-adv-x="347" 
d="M129 70h194v-70h-313v51l149 121q36 29 52 52t16 51q0 26 -17.5 43.5t-45.5 17.5q-30 0 -49 -17t-21 -48h-83q4 64 44.5 99.5t109.5 35.5q66 0 108 -37t42 -93q0 -48 -32 -86t-88 -74z" />
    <glyph glyph-name="three.dnom" horiz-adv-x="365" 
d="M264 199q73 -18 73 -89q0 -54 -41 -86.5t-110 -32.5q-72 0 -117.5 36.5t-49.5 101.5h85q2 -33 24 -51.5t56 -18.5q33 0 51 16t18 42q0 52 -78 52h-26v60h26q33 0 52.5 14.5t19.5 39.5q0 24 -18 38t-46 14q-32 0 -51.5 -17t-21.5 -46h-81q4 61 45.5 96t108.5 35
q66 0 106.5 -31.5t40.5 -83.5q0 -68 -66 -89z" />
    <glyph glyph-name="four.dnom" horiz-adv-x="386" 
d="M365 151v-70h-61v-81h-82v81h-194l-14 57q78 142 94 261h94q-21 -118 -91 -248h112l6 142h75v-142h61z" />
    <glyph glyph-name="five.dnom" horiz-adv-x="366" 
d="M204 261q57 0 95.5 -37.5t38.5 -94.5q0 -60 -44 -99t-116 -39q-65 0 -107.5 33.5t-50.5 97.5h87q4 -30 24 -46t49 -16q33 0 51.5 18.5t18.5 49.5t-18.5 51.5t-50.5 20.5q-48 0 -69 -38l-81 16l10 219h282v-72h-212l-10 -116q31 52 103 52z" />
    <glyph glyph-name="six.dnom" horiz-adv-x="374" 
d="M214 262q56 0 95.5 -36.5t39.5 -94.5q0 -61 -44 -100.5t-112 -39.5q-77 0 -122 50q-43 49 -43 144q0 105 43 162.5t121 57.5q23 0 45.5 -5.5t45 -17.5t38 -36t19.5 -57h-88q-3 25 -18.5 37t-37.5 12q-37 0 -56.5 -34.5t-21.5 -90.5q25 49 96 49zM194 58q30 0 50.5 19
t20.5 52t-20 52.5t-51 19.5q-32 0 -52.5 -20t-20.5 -52t21 -51.5t52 -19.5z" />
    <glyph glyph-name="seven.dnom" horiz-adv-x="345" 
d="M18 395h317v-57q-58 -66 -94.5 -154t-40.5 -184h-98v4q8 181 145 318h-229v73z" />
    <glyph glyph-name="eight.dnom" horiz-adv-x="369" 
d="M256 206q89 -20 89 -98q0 -55 -45 -86t-116 -31q-70 0 -114.5 31t-44.5 86q0 78 88 98q-74 21 -74 92q0 50 41 77t104 27q64 0 104.5 -27t40.5 -77q0 -71 -73 -92zM184 340q-27 0 -45.5 -14.5t-18.5 -38.5t18.5 -39t45.5 -15t46 15t19 39t-19.5 38.5t-45.5 14.5zM184 57
q30 0 50 15.5t20 41.5t-20 44t-50 18q-29 0 -48.5 -17.5t-19.5 -43.5q0 -27 19 -42.5t49 -15.5z" />
    <glyph glyph-name="nine.dnom" horiz-adv-x="374" 
d="M302 355q44 -50 44 -145q0 -103 -43.5 -161t-121.5 -58q-58 0 -98.5 30t-48.5 87h87q7 -49 57 -49q37 0 56.5 34.5t21.5 91.5q-26 -51 -96 -51q-56 0 -95.5 37t-39.5 94q0 61 44 100.5t112 39.5q76 0 121 -50zM180 196q32 0 52.5 20t20.5 51q0 32 -21 52t-52 20
t-51.5 -19.5t-20.5 -52.5q0 -32 20.5 -51.5t51.5 -19.5z" />
    <glyph glyph-name="zero.numr" horiz-adv-x="408" 
d="M203 709q81 0 129 -58.5t48 -148.5t-48 -148.5t-129 -58.5q-80 0 -127.5 59t-47.5 148t47.5 148t127.5 59zM203 640q-41 0 -62.5 -36t-21.5 -102q0 -137 84 -137q86 0 86 137q0 138 -86 138z" />
    <glyph glyph-name="one.numr" horiz-adv-x="297" 
d="M172 700h68v-399h-88v319l-128 -59v92z" />
    <glyph glyph-name="two.numr" horiz-adv-x="347" 
d="M129 373h194v-70h-313v51l149 121q36 29 52 52t16 51q0 26 -17.5 43.5t-45.5 17.5q-30 0 -49 -17t-21 -48h-83q4 64 44.5 99.5t109.5 35.5q66 0 108 -37t42 -93q0 -48 -32 -86t-88 -74z" />
    <glyph glyph-name="three.numr" horiz-adv-x="365" 
d="M264 505q73 -18 73 -89q0 -54 -41 -86.5t-110 -32.5q-72 0 -117.5 36.5t-49.5 101.5h85q2 -33 24 -51.5t56 -18.5q33 0 51 16t18 42q0 52 -78 52h-26v60h26q33 0 52.5 14.5t19.5 39.5q0 24 -18 38t-46 14q-32 0 -51.5 -17t-21.5 -46h-81q4 61 45.5 96t108.5 35
q66 0 106.5 -31.5t40.5 -83.5q0 -68 -66 -89z" />
    <glyph glyph-name="four.numr" horiz-adv-x="386" 
d="M365 452v-70h-61v-81h-82v81h-194l-14 57q78 142 94 261h94q-21 -118 -91 -248h112l6 142h75v-142h61z" />
    <glyph glyph-name="five.numr" horiz-adv-x="366" 
d="M204 564q57 0 95.5 -37.5t38.5 -94.5q0 -60 -44 -99t-116 -39q-65 0 -107.5 33.5t-50.5 97.5h87q4 -30 24 -46t49 -16q33 0 51.5 18.5t18.5 49.5t-18.5 51.5t-50.5 20.5q-48 0 -69 -38l-81 16l10 219h282v-72h-212l-10 -116q31 52 103 52z" />
    <glyph glyph-name="six.numr" horiz-adv-x="374" 
d="M214 566q56 0 95.5 -36.5t39.5 -94.5q0 -61 -44 -100.5t-112 -39.5q-77 0 -122 50q-43 49 -43 144q0 105 43 162.5t121 57.5q23 0 45.5 -5.5t45 -17.5t38 -36t19.5 -57h-88q-3 25 -18.5 37t-37.5 12q-37 0 -56.5 -34.5t-21.5 -90.5q25 49 96 49zM194 362q30 0 50.5 19
t20.5 52t-20 52.5t-51 19.5q-32 0 -52.5 -20t-20.5 -52t21 -51.5t52 -19.5z" />
    <glyph glyph-name="seven.numr" horiz-adv-x="345" 
d="M18 700h317v-57q-58 -66 -94.5 -154t-40.5 -184h-98v4q8 181 145 318h-229v73z" />
    <glyph glyph-name="eight.numr" horiz-adv-x="369" 
d="M256 513q89 -20 89 -98q0 -55 -45 -86t-116 -31q-70 0 -114.5 31t-44.5 86q0 78 88 98q-74 21 -74 92q0 50 41 77t104 27q64 0 104.5 -27t40.5 -77q0 -71 -73 -92zM184 647q-27 0 -45.5 -14.5t-18.5 -38.5t18.5 -39t45.5 -15t46 15t19 39t-19.5 38.5t-45.5 14.5zM184 364
q30 0 50 15.5t20 41.5t-20 44t-50 18q-29 0 -48.5 -17.5t-19.5 -43.5q0 -27 19 -42.5t49 -15.5z" />
    <glyph glyph-name="nine.numr" horiz-adv-x="374" 
d="M302 659q44 -50 44 -145q0 -103 -43.5 -161t-121.5 -58q-58 0 -98.5 30t-48.5 87h87q7 -49 57 -49q37 0 56.5 34.5t21.5 91.5q-26 -51 -96 -51q-56 0 -95.5 37t-39.5 94q0 61 44 100.5t112 39.5q76 0 121 -50zM180 500q32 0 52.5 20t20.5 51q0 32 -21 52t-52 20
t-51.5 -19.5t-20.5 -52.5q0 -32 20.5 -51.5t51.5 -19.5z" />
    <glyph glyph-name="uni2083.ss12" horiz-adv-x="360" 
d="M205 33q57 -5 92 -37.5t35 -81.5q0 -54 -42.5 -89t-107.5 -35q-68 0 -113.5 39.5t-49.5 101.5h86q1 -31 23 -51.5t54 -20.5q29 0 48 16.5t19 41.5t-21 41t-54 16h-44l-24 60l108 90h-180v72h290v-68z" />
    <glyph glyph-name="three.dnom.ss12" horiz-adv-x="365" 
d="M209 231q57 -5 92.5 -37.5t35.5 -80.5q0 -54 -42.5 -89.5t-107.5 -35.5q-68 0 -113.5 39.5t-49.5 101.5h86q1 -31 23 -51.5t54 -20.5q29 0 48 16.5t19 41.5t-21 41t-55 16h-43l-29 48l121 102h-189v72h291v-67z" />
    <glyph glyph-name="three.numr.ss12" horiz-adv-x="365" 
d="M209 537q57 -5 92.5 -37.5t35.5 -80.5q0 -54 -42.5 -89.5t-107.5 -35.5q-68 0 -113.5 39.5t-49.5 101.5h86q1 -31 23 -51.5t54 -20.5q29 0 48 16.5t19 41.5t-21 41t-55 16h-43l-29 48l121 102h-189v72h291v-67z" />
    <glyph glyph-name="uni00B3.ss12" horiz-adv-x="360" 
d="M205 600q57 -5 92 -38t35 -81q0 -54 -42.5 -89t-107.5 -35q-68 0 -113.5 39.5t-49.5 101.5h86q1 -32 23 -52.5t54 -20.5q29 0 48 16.5t19 42.5q0 25 -21 41t-54 16h-44l-24 60l108 90h-180v71h290v-67z" />
    <glyph glyph-name="threequarters.ss12" horiz-adv-x="895" 
d="M689 712l52 -35l-513 -690l-51 38zM337 419q0 -54 -42.5 -89.5t-107.5 -35.5q-68 0 -113.5 39.5t-49.5 101.5h86q1 -31 23 -51.5t54 -20.5q29 0 48 16.5t19 41.5t-21 41t-55 16h-43l-29 48l121 102h-189v72h291v-67l-120 -96q57 -5 92.5 -37.5t35.5 -80.5zM874 151v-70
h-61v-81h-82v81h-194l-14 57q78 142 94 261h94q-21 -118 -91 -248h112l6 142h75v-142h61z" />
    <glyph glyph-name="uni2157.ss12" horiz-adv-x="895" 
d="M669 712l52 -35l-513 -690l-51 38zM337 419q0 -54 -42.5 -89.5t-107.5 -35.5q-68 0 -113.5 39.5t-49.5 101.5h86q1 -31 23 -51.5t54 -20.5q29 0 48 16.5t19 41.5t-21 41t-55 16h-43l-29 48l121 102h-189v72h291v-67l-120 -96q57 -5 92.5 -37.5t35.5 -80.5zM732 261
q57 0 95.5 -37.5t38.5 -94.5q0 -60 -44 -99t-116 -39q-65 0 -107.5 33.5t-50.5 97.5h87q4 -30 24 -46t49 -16q33 0 51.5 18.5t18.5 49.5t-18.5 51.5t-50.5 20.5q-48 0 -69 -38l-81 16l10 219h282v-72h-212l-10 -116q31 52 103 52z" />
    <glyph glyph-name="threeeighths.ss12" horiz-adv-x="892" 
d="M689 712l52 -35l-513 -690l-51 38zM337 419q0 -54 -42.5 -89.5t-107.5 -35.5q-68 0 -113.5 39.5t-49.5 101.5h86q1 -31 23 -51.5t54 -20.5q29 0 48 16.5t19 41.5t-21 41t-55 16h-43l-29 48l121 102h-189v72h291v-67l-120 -96q57 -5 92.5 -37.5t35.5 -80.5zM779 206
q89 -20 89 -98q0 -55 -45 -86t-116 -31q-70 0 -114.5 31t-44.5 86q0 78 88 98q-74 21 -74 92q0 50 41 77t104 27q64 0 104.5 -27t40.5 -77q0 -71 -73 -92zM707 340q-27 0 -45.5 -14.5t-18.5 -38.5t18.5 -39t45.5 -15t46 15t19 39t-19.5 38.5t-45.5 14.5zM707 57
q30 0 50 15.5t20 41.5t-20 44t-50 18q-29 0 -48.5 -17.5t-19.5 -43.5q0 -27 19 -42.5t49 -15.5z" />
    <glyph glyph-name="uni2084.ss13" horiz-adv-x="386" 
d="M365 -50v-68h-61v-81h-82v81h-194l-14 68l182 250h108v-250h61zM227 129l-124 -179h119z" />
    <glyph glyph-name="four.dnom.ss13" horiz-adv-x="386" 
d="M365 149v-68h-61v-81h-82v81h-194l-14 68l182 250h108v-250h61zM227 329l-125 -180h120z" />
    <glyph glyph-name="four.numr.ss13" horiz-adv-x="386" 
d="M365 450v-68h-61v-81h-82v81h-194l-14 68l182 250h108v-250h61zM227 630l-125 -180h120z" />
    <glyph glyph-name="uni2074.ss13" horiz-adv-x="386" 
d="M365 510v-68h-61v-81h-82v81h-194l-14 68l182 250h108v-250h61zM227 690l-125 -180h120z" />
    <glyph glyph-name="onequarter.ss13" horiz-adv-x="796" 
d="M621 712l52 -35l-513 -690l-51 38zM152 301v319l-128 -59v92l148 47h68v-399h-88zM774 149v-68h-61v-81h-82v81h-194l-14 68l182 250h108v-250h61zM636 329l-125 -180h120z" />
    <glyph glyph-name="threequarters.ss13" horiz-adv-x="856" 
d="M689 712l52 -35l-513 -690l-51 38zM337 419q0 -54 -42.5 -89.5t-107.5 -35.5q-68 0 -113.5 39.5t-49.5 101.5h86q1 -31 23 -51.5t54 -20.5q29 0 48 16.5t19 41.5t-21 41t-55 16h-43l-29 48l121 102h-189v72h291v-67l-120 -96q57 -5 92.5 -37.5t35.5 -80.5zM835 149v-68
h-61v-81h-82v81h-194l-14 68l182 250h108v-250h61zM697 329l-125 -180h120z" />
    <glyph glyph-name="uni2158.ss13" horiz-adv-x="923" 
d="M710 712l52 -35l-513 -690l-51 38zM222 301v81h-194l-14 68l182 250h108v-250h61v-68h-61v-81h-82zM227 630l-125 -180h120zM761 261q57 0 95.5 -37.5t38.5 -94.5q0 -60 -44 -99t-116 -39q-65 0 -107.5 33.5t-50.5 97.5h87q4 -30 24 -46t49 -16q33 0 51.5 18.5t18.5 49.5
t-18.5 51.5t-50.5 20.5q-48 0 -69 -38l-81 16l10 219h282v-72h-212l-10 -116q31 52 103 52z" />
    <glyph glyph-name="zero.sc" horiz-adv-x="626" 
d="M312 569q116 0 188 -79.5t72 -208.5q0 -131 -72 -211t-188 -80q-115 0 -186.5 80t-71.5 211q0 129 72 208.5t186 79.5zM312 478q-65 0 -105 -53t-40 -144q0 -94 40 -147t105 -53q66 0 106.5 53.5t40.5 146.5q0 91 -40.5 144t-106.5 53z" />
    <glyph glyph-name="one.sc" horiz-adv-x="412" 
d="M236 557h63v-557h-107v454l-153 -72v114l196 61v-1z" />
    <glyph glyph-name="two.sc" horiz-adv-x="511" 
d="M172 86h282v-86h-417v72h-1l169 141q80 69 107 105t27 69q0 43 -27.5 69t-72.5 26q-47 0 -74 -27t-30 -76h-103q4 90 59.5 140t148.5 50t148.5 -50t55.5 -130q0 -54 -41.5 -102t-156.5 -141z" />
    <glyph glyph-name="three.sc" horiz-adv-x="539" 
d="M357 285q120 -28 120 -131q0 -72 -58 -118t-151 -46q-96 0 -156 51t-67 137h105q1 -47 33.5 -74t84.5 -27q48 0 77 23.5t29 61.5t-32.5 60.5t-87.5 22.5h-41v77h41q48 0 77.5 22.5t29.5 60.5q0 35 -27.5 58t-71.5 23q-48 0 -76.5 -26t-28.5 -72h-102q6 86 61 133.5
t146 47.5q89 0 144.5 -43.5t55.5 -114.5q0 -95 -105 -126z" />
    <glyph glyph-name="four.sc" horiz-adv-x="581" 
d="M541 201v-83h-83v-118h-107v118h-290l-14 61q111 187 155 378h112q-45 -187 -144 -356h181l9 206h98v-206h83z" />
    <glyph glyph-name="five.sc" horiz-adv-x="566" 
d="M312 370q81 0 137 -52.5t56 -134.5q0 -85 -62 -139t-158 -54q-89 0 -150.5 47.5t-74.5 133.5h102q9 -43 43 -68.5t81 -25.5q50 0 82 29.5t32 77.5q0 46 -33 75.5t-85 29.5q-73 0 -112 -54l-93 25l15 297h390v-91h-304l-10 -164q48 68 144 68z" />
    <glyph glyph-name="six.sc" horiz-adv-x="561" 
d="M317 367q83 0 137 -52t54 -131q0 -87 -60 -140.5t-155 -53.5q-111 0 -172 75q-59 71 -59 210q0 141 64 217.5t170 76.5q45 0 85 -12t76 -50t45 -97h-108q-16 77 -97 77q-59 0 -93.5 -53t-36.5 -157q41 90 150 90zM296 71q48 0 79 31.5t31 78.5t-31 78t-81 31
q-48 0 -80.5 -29.5t-32.5 -76.5t32.5 -80t82.5 -33z" />
    <glyph glyph-name="seven.sc" horiz-adv-x="507" 
d="M37 557h444v-78q-107 -99 -159.5 -223.5t-54.5 -255.5h-116v8q2 268 218 454h-332v95z" />
    <glyph glyph-name="eight.sc" horiz-adv-x="568" 
d="M382 295q126 -31 126 -141q0 -72 -63 -118t-161 -46t-161 46t-63 118q0 52 32 89t94 52q-105 30 -105 125q0 66 57.5 107.5t145.5 41.5t146 -42t58 -107q0 -96 -106 -125zM284 489q-44 0 -72.5 -22.5t-28.5 -57.5t28.5 -58t72.5 -23t72.5 23t28.5 58t-28.5 57.5
t-72.5 22.5zM284 77q50 0 82 25t32 65q0 38 -32 62.5t-82 24.5q-49 0 -81.5 -24.5t-32.5 -62.5q0 -40 32 -65t82 -25z" />
    <glyph glyph-name="nine.sc" horiz-adv-x="565" 
d="M442 493q61 -75 61 -211q0 -140 -64 -216t-170 -76q-78 0 -135.5 40.5t-70.5 117.5h109q5 -34 31 -54t66 -20q58 0 92 52.5t37 154.5q-40 -89 -149 -89q-84 0 -138 51t-54 131q0 87 59.5 141t155.5 54q110 0 170 -76zM271 268q48 0 80.5 29.5t32.5 76.5q0 48 -32.5 80.5
t-82.5 32.5q-48 0 -79 -31t-31 -78t31 -78.5t81 -31.5z" />
    <glyph glyph-name="three.sc.ss12" horiz-adv-x="537" 
d="M282 326q88 -4 140.5 -50.5t52.5 -114.5q0 -74 -59 -122.5t-150 -48.5q-89 0 -151.5 53.5t-69.5 138.5l101 1q6 -48 39.5 -78.5t79.5 -30.5q47 0 79.5 26t32.5 64t-34 63t-86 25h-66l-32 75l168 141h-263v89h398v-84z" />
    <glyph glyph-name="four.sc.ss13" horiz-adv-x="578" 
d="M538 199v-79h-84v-120h-101v120h-292l-14 79l280 358h127v-358h84zM361 468l-206 -269h198z" />
    <glyph glyph-name="zero.zero.sc" horiz-adv-x="636" 
d="M317 569q116 0 188 -79.5t72 -208.5q0 -131 -72 -211t-188 -80q-115 0 -186.5 80t-71.5 211q0 129 72 208.5t186 79.5zM317 478q-65 0 -105 -53t-40 -144q0 -57 15 -97l219 260q-37 34 -89 34zM317 81q66 0 106.5 53.5t40.5 146.5q0 65 -21 109l-224 -265q39 -44 98 -44z
" />
    <glyph glyph-name="backslash.case" horiz-adv-x="550" 
d="M141 700l373 -700h-105l-373 700h105z" />
    <glyph glyph-name="periodcentered.case" horiz-adv-x="260" 
d="M65 286v128h130v-128h-130z" />
    <glyph glyph-name="bullet.case" horiz-adv-x="395" 
d="M197 191q-62 0 -106.5 44t-44.5 106v2q0 62 44.5 106t106.5 44q63 0 107.5 -44t44.5 -106v-2q0 -62 -44.5 -106t-107.5 -44z" />
    <glyph glyph-name="exclamdown.case" horiz-adv-x="286" 
d="M79 700h128v-120h-128v120zM89 489h108l7 -489h-123z" />
    <glyph glyph-name="questiondown.case" horiz-adv-x="527" 
d="M343 700v-120h-128v120h128zM402 205h107q-3 -103 -68 -160.5t-173 -57.5q-98 0 -161 55.5t-63 139.5q0 83 41 128.5t129 82.5l12 5v90h102v-139l-72 -33q-60 -28 -84 -57.5t-24 -73.5q0 -47 34 -77.5t86 -30.5q59 0 95 34t39 94z" />
    <glyph glyph-name="slash.case" horiz-adv-x="550" 
d="M409 700h105l-373 -700h-105z" />
    <glyph glyph-name="braceleft.case" horiz-adv-x="395" 
d="M229 474q0 -100 -83 -124q83 -24 83 -124l1 -136q0 -30 16 -45.5t44 -15.5h69v-89h-80q-74 0 -115.5 37t-41.5 104v141q0 53 -24 72t-71 19h-6l-1 -2v76h7q47 0 71 19t24 72v141q0 67 41.5 104t115.5 37h80v-89h-69q-28 0 -44 -15.5t-16 -45.5z" />
    <glyph glyph-name="braceright.case" horiz-adv-x="395" 
d="M368 387h7v-76l-1 2h-6q-47 0 -71 -19t-24 -72v-141q0 -67 -41.5 -104t-115.5 -37h-80v89h69q28 0 44 15.5t16 45.5l1 136q0 100 83 124q-83 24 -83 124l-1 136q0 30 -16 45.5t-44 15.5h-69v89h80q74 0 115.5 -37t41.5 -104v-141q0 -53 24 -72t71 -19z" />
    <glyph glyph-name="bracketleft.case" horiz-adv-x="365" 
d="M329 671h-137v-642h137v-89h-246v820h246v-89z" />
    <glyph glyph-name="bracketright.case" horiz-adv-x="365" 
d="M282 760v-820h-246v89h137v642h-137v89h246z" />
    <glyph glyph-name="parenleft.case" horiz-adv-x="344" 
d="M302 760q-64 -75 -105 -185.5t-41 -224.5t41 -224.5t105 -185.5h-102q-70 75 -114 185t-44 225t44 225t114 185h102z" />
    <glyph glyph-name="parenright.case" horiz-adv-x="344" 
d="M42 760h102q70 -75 114 -185t44 -225t-44 -225t-114 -185h-102q64 75 105 185.5t41 224.5t-41 224.5t-105 185.5z" />
    </font>
</defs>
</svg>
